<svg width="32" height="32" viewBox="0 0 32 32" fill="none" xmlns="http://www.w3.org/2000/svg">
<mask id="mask0_1265_432" style="mask-type:alpha" maskUnits="userSpaceOnUse" x="0" y="0" width="32" height="32">
<rect width="32" height="32" rx="9.404" fill="#45BCFF"/>
</mask>
<g mask="url(#mask0_1265_432)">
<rect width="32" height="32" fill="url(#paint0_radial_1265_432)"/>
<rect width="32" height="32" fill="url(#paint1_radial_1265_432)" fill-opacity="0.6"/>
<path fill-rule="evenodd" clip-rule="evenodd" d="M6.2915 16.0004C6.2915 12.1223 6.2915 10.1832 7.21562 8.78656C7.62829 8.16289 8.1624 7.62878 8.78607 7.21611C10.1827 6.29199 12.1218 6.29199 15.9999 6.29199C19.878 6.29199 21.817 6.29199 23.2137 7.21611C23.8373 7.62878 24.3714 8.16289 24.7841 8.78656C25.7082 10.1832 25.7082 12.1223 25.7082 16.0004C25.7082 19.8785 25.7082 21.8175 24.7841 23.2141C24.3714 23.8378 23.8373 24.3719 23.2137 24.7846C21.817 25.7087 19.878 25.7087 15.9999 25.7087C12.1218 25.7087 10.1827 25.7087 8.78607 24.7846C8.1624 24.3719 7.62829 23.8378 7.21562 23.2141C6.2915 21.8175 6.2915 19.8785 6.2915 16.0004ZM21.026 16.0008C21.026 18.7767 18.7758 21.027 15.9999 21.027C13.224 21.027 10.9738 18.7767 10.9738 16.0008C10.9738 13.225 13.224 10.9747 15.9999 10.9747C18.7758 10.9747 21.026 13.225 21.026 16.0008ZM15.9999 19.3265C17.8366 19.3265 19.3256 17.8375 19.3256 16.0008C19.3256 14.1641 17.8366 12.6752 15.9999 12.6752C14.1632 12.6752 12.6742 14.1641 12.6742 16.0008C12.6742 17.8375 14.1632 19.3265 15.9999 19.3265ZM21.2245 11.9032C21.8767 11.9032 22.4055 11.3744 22.4055 10.7222C22.4055 10.0699 21.8767 9.54118 21.2245 9.54118C20.5722 9.54118 20.0435 10.0699 20.0435 10.7222C20.0435 11.3744 20.5722 11.9032 21.2245 11.9032Z" fill="white"/>
</g>
<defs>
<radialGradient id="paint0_radial_1265_432" cx="0" cy="0" r="1" gradientUnits="userSpaceOnUse" gradientTransform="translate(8.50004 34.4647) rotate(-90) scale(31.7144 29.4969)">
<stop stop-color="#FFDD55"/>
<stop offset="0.1" stop-color="#FFDD55"/>
<stop offset="0.5" stop-color="#FF543E"/>
<stop offset="1" stop-color="#C837AB"/>
</radialGradient>
<radialGradient id="paint1_radial_1265_432" cx="0" cy="0" r="1" gradientUnits="userSpaceOnUse" gradientTransform="translate(-5.36017 2.30523) rotate(78.6806) scale(14.1765 58.4359)">
<stop stop-color="#3771C8"/>
<stop offset="0.128" stop-color="#3771C8"/>
<stop offset="1" stop-color="#6600FF" stop-opacity="0"/>
</radialGradient>
</defs>
</svg>
