<svg width="538" height="219" viewBox="0 0 538 219" fill="none" xmlns="http://www.w3.org/2000/svg">
<path d="M0.0922852 173.665V147.83L91.5465 3.36363H111.904V41.392H98.9868L33.5738 144.937V146.59H158.923V173.665H0.0922852ZM100.434 215V165.811L100.64 154.031V3.36363H130.918V215H100.434ZM268.616 218.513C252.289 218.445 238.338 214.139 226.764 205.596C215.19 197.054 206.338 184.619 200.206 168.291C194.075 151.964 191.009 132.295 191.009 109.285C191.009 86.3441 194.075 66.7443 200.206 50.4858C206.407 34.2273 215.294 21.8267 226.868 13.2841C238.51 4.74147 252.427 0.470163 268.616 0.470163C284.806 0.470163 298.688 4.77591 310.262 13.3874C321.835 21.93 330.688 34.3306 336.819 50.5891C343.02 66.7788 346.12 86.3441 346.12 109.285C346.12 132.364 343.054 152.067 336.923 168.395C330.791 184.653 321.939 197.088 310.365 205.7C298.791 214.242 284.875 218.513 268.616 218.513ZM268.616 190.922C282.946 190.922 294.141 183.93 302.201 169.945C310.33 155.96 314.395 135.74 314.395 109.285C314.395 91.7177 312.535 76.8714 308.815 64.7464C305.163 52.5525 299.893 43.321 293.004 37.0518C286.184 30.7138 278.054 27.5447 268.616 27.5447C254.356 27.5447 243.161 34.5717 235.031 48.6257C226.902 62.6797 222.803 82.8995 222.734 109.285C222.734 126.922 224.56 141.837 228.211 154.031C231.931 166.156 237.201 175.353 244.022 181.622C250.842 187.822 259.04 190.922 268.616 190.922ZM378.335 173.665V147.83L469.79 3.36363H490.147V41.392H477.23L411.817 144.937V146.59H537.166V173.665H378.335ZM478.677 215V165.811L478.883 154.031V3.36363H509.161V215H478.677Z" fill="#EBEEF3"/>
</svg>
