<svg width="1920" height="1350" viewBox="0 0 1920 1350" fill="none" xmlns="http://www.w3.org/2000/svg">
<g clip-path="url(#clip0_1201_13477)">
<rect width="1920" height="1802" fill="white"></rect>
<mask id="mask0_1201_13477" style="mask-type:alpha" maskUnits="userSpaceOnUse" x="-195" y="773" width="453" height="457">
<path d="M-195 813.588C-195 791.172 -176.828 773 -154.412 773H217.412C239.828 773 258 791.172 258 813.588L258 1189.41C258 1211.83 239.828 1230 217.412 1230H-154.412C-176.828 1230 -195 1211.83 -195 1189.41L-195 813.588Z" fill="#FFBA07"></path>
</mask>
<g mask="url(#mask0_1201_13477)">
<rect opacity="0.5" x="-195.001" y="792.916" width="453" height="608.139" fill="#FF4F00"></rect>
<rect opacity="0.3" width="513.383" height="513.477" rx="137.475" transform="matrix(0.422718 -0.906261 0.906354 0.422519 -334.49 1458.61)" fill="#FF4F00"></rect>
<rect opacity="0.4" width="355.696" height="735.627" transform="matrix(-0.342107 -0.939661 0.939724 -0.341934 -383.297 1075.17)" fill="#FF4F00"></rect>
<ellipse opacity="0.2" cx="233.517" cy="733.677" rx="293.249" ry="293.165" fill="#FF4F00"></ellipse>
</g>
<mask id="mask1_1201_13477" style="mask-type:alpha" maskUnits="userSpaceOnUse" x="1442" y="-177" width="595" height="594">
<path d="M1737.94 -167.291C1754.7 -181.352 1779.69 -179.167 1793.75 -162.408L2026.79 115.325C2040.86 132.083 2038.67 157.068 2021.91 171.13L1741.09 406.765C1724.33 420.827 1699.35 418.641 1685.29 401.883L1452.24 124.15C1438.18 107.392 1440.37 82.4067 1457.12 68.3447L1737.94 -167.291Z" fill="#FFBA07"></path>
</mask>
<g mask="url(#mask1_1201_13477)">
<rect opacity="0.5" x="1753.4" y="-180.264" width="441.777" height="593.242" transform="rotate(50 1753.4 -180.264)" fill="#FF4F00"></rect>
<rect opacity="0.2" x="1232.37" y="500.334" width="500.781" height="500.781" rx="134.166" transform="rotate(-65 1232.37 500.334)" fill="#FF4F00"></rect>
<rect opacity="0.6" x="1424.45" y="-143.95" width="346.971" height="717.426" transform="rotate(-60 1424.45 -143.95)" fill="#FF4F00"></rect>
<circle opacity="0.5" cx="2066.29" cy="102.721" r="285.984" transform="rotate(50 2066.29 102.721)" fill="#FF4F00"></circle>
</g>

































</g>
<defs>
<filter id="filter0_d_1201_13477" x="962" y="766" width="269" height="92" filterUnits="userSpaceOnUse" color-interpolation-filters="sRGB">
<feFlood flood-opacity="0" result="BackgroundImageFix"></feFlood>
<feColorMatrix in="SourceAlpha" type="matrix" values="0 0 0 0 0 0 0 0 0 0 0 0 0 0 0 0 0 0 127 0" result="hardAlpha"></feColorMatrix>
<feOffset dy="4"></feOffset>
<feGaussianBlur stdDeviation="5"></feGaussianBlur>
<feComposite in2="hardAlpha" operator="out"></feComposite>
<feColorMatrix type="matrix" values="0 0 0 0 0.078875 0 0 0 0 0.0770833 0 0 0 0 0.166667 0 0 0 0.04 0"></feColorMatrix>
<feBlend mode="normal" in2="BackgroundImageFix" result="effect1_dropShadow_1201_13477"></feBlend>
<feBlend mode="normal" in="SourceGraphic" in2="effect1_dropShadow_1201_13477" result="shape"></feBlend>
</filter>
<filter id="filter1_d_1201_13477" x="-40" y="-38" width="2000" height="198" filterUnits="userSpaceOnUse" color-interpolation-filters="sRGB">
<feFlood flood-opacity="0" result="BackgroundImageFix"></feFlood>
<feColorMatrix in="SourceAlpha" type="matrix" values="0 0 0 0 0 0 0 0 0 0 0 0 0 0 0 0 0 0 127 0" result="hardAlpha"></feColorMatrix>
<feOffset dy="2"></feOffset>
<feGaussianBlur stdDeviation="20"></feGaussianBlur>
<feComposite in2="hardAlpha" operator="out"></feComposite>
<feColorMatrix type="matrix" values="0 0 0 0 0.0784314 0 0 0 0 0.0784314 0 0 0 0 0.168627 0 0 0 0.04 0"></feColorMatrix>
<feBlend mode="normal" in2="BackgroundImageFix" result="effect1_dropShadow_1201_13477"></feBlend>
<feBlend mode="normal" in="SourceGraphic" in2="effect1_dropShadow_1201_13477" result="shape"></feBlend>
</filter>
<filter id="filter2_d_1201_13477" x="1317" y="26" width="268" height="74" filterUnits="userSpaceOnUse" color-interpolation-filters="sRGB">
<feFlood flood-opacity="0" result="BackgroundImageFix"></feFlood>
<feColorMatrix in="SourceAlpha" type="matrix" values="0 0 0 0 0 0 0 0 0 0 0 0 0 0 0 0 0 0 127 0" result="hardAlpha"></feColorMatrix>
<feOffset dy="4"></feOffset>
<feGaussianBlur stdDeviation="5"></feGaussianBlur>
<feComposite in2="hardAlpha" operator="out"></feComposite>
<feColorMatrix type="matrix" values="0 0 0 0 0.0784314 0 0 0 0 0.0784314 0 0 0 0 0.168627 0 0 0 0.04 0"></feColorMatrix>
<feBlend mode="normal" in2="BackgroundImageFix" result="effect1_dropShadow_1201_13477"></feBlend>
<feBlend mode="normal" in="SourceGraphic" in2="effect1_dropShadow_1201_13477" result="shape"></feBlend>
</filter>
<clipPath id="clip0_1201_13477">
<rect width="1920" height="1802" fill="white"></rect>
</clipPath>
<clipPath id="clip1_1201_13477">
<rect width="111" height="30" fill="white" transform="translate(300 1392)"></rect>
</clipPath>
<clipPath id="clip2_1201_13477">
<rect width="24" height="25" fill="white" transform="translate(300 1490)"></rect>
</clipPath>
<clipPath id="clip3_1201_13477">
<rect width="24" height="25" fill="white" transform="translate(348 1490)"></rect>
</clipPath>
<clipPath id="clip4_1201_13477">
<rect width="24" height="25" fill="white" transform="translate(396 1490)"></rect>
</clipPath>
<clipPath id="clip5_1201_13477">
<rect width="24" height="25" fill="white" transform="translate(444 1490)"></rect>
</clipPath>
<clipPath id="clip6_1201_13477">
<rect width="18" height="18" fill="white" transform="translate(1196 1457)"></rect>
</clipPath>
<clipPath id="clip7_1201_13477">
<rect width="18" height="18" fill="white" transform="translate(1196 1495)"></rect>
</clipPath>
<clipPath id="clip8_1201_13477">
<rect width="18" height="18" fill="white" transform="translate(1196 1533)"></rect>
</clipPath>
<clipPath id="clip9_1201_13477">
<rect width="18" height="18" fill="white" transform="translate(1196 1533)"></rect>
</clipPath>
<clipPath id="clip10_1201_13477">
<rect width="111" height="30" fill="white" transform="translate(340 39)"></rect>
</clipPath>
</defs>
</svg>