<svg width="454" height="279" viewBox="0 0 454 279" fill="none" xmlns="http://www.w3.org/2000/svg">
<g clip-path="url(#clip0_1201_10663)">
<path opacity="0.1" d="M454 179.195C454.008 186.754 453.093 194.286 451.275 201.624C450.663 204.096 449.953 206.517 449.143 208.887C448.153 211.812 447.005 214.682 445.705 217.483C445.05 218.9 444.357 220.289 443.627 221.65C443.639 229.401 442.042 237.071 438.936 244.175C433.322 256.92 423.311 267.225 410.728 273.212C402.861 276.962 394.263 278.935 385.546 278.989H86.1844C72.8652 279.017 59.776 275.521 48.2477 268.856L48.0704 268.756C46.4283 267.796 44.8274 266.779 43.2675 265.706C39.758 263.284 36.4608 260.568 33.4114 257.588C29.2841 253.558 25.6472 249.056 22.5762 244.175C15.3634 232.732 11.5425 219.483 11.5559 205.96C4.2515 193.155 -0.0078125 177.817 -0.0078125 161.334C-0.0078125 140.538 6.76083 121.568 17.8813 107.207C20.1997 104.207 22.7392 101.384 25.4787 98.7614C28.1816 96.1666 31.0869 93.7907 34.1669 91.6561C36.6311 89.9465 39.2065 88.4026 41.876 87.0348C42.99 86.4687 44.1078 85.9334 45.2449 85.4366C46.2433 84.9937 47.2532 84.5817 48.2747 84.1927C49.5004 83.728 50.7416 83.3005 51.9982 82.9103C53.2548 82.52 54.4947 82.1786 55.7178 81.8859C57.5166 81.4469 59.3463 81.09 61.2068 80.8153C62.7486 80.5881 64.2904 80.4302 65.8323 80.3108C67.058 80.2184 68.2953 80.1683 69.5404 80.1529H70.2149C71.5871 80.1529 72.9517 80.2068 74.3046 80.2992C74.4472 80.0143 74.6014 79.7254 74.744 79.4443C75.2837 78.4161 75.8426 77.3917 76.4054 76.3904C76.4041 76.3815 76.4041 76.3724 76.4054 76.3634C76.5017 76.1863 76.5981 76.013 76.6983 75.8435C77.1532 75.0233 77.6273 74.2107 78.113 73.4058C78.3365 73.0207 78.5562 72.6587 78.7836 72.2967C78.8318 72.2067 78.8845 72.1193 78.9417 72.0348C79.173 71.6497 79.4081 71.2646 79.6471 70.8795C80.8368 68.9796 82.0742 67.1131 83.359 65.28L83.6867 64.8102C83.8871 64.5252 84.0721 64.2479 84.2957 63.9629C84.8276 63.2197 85.375 62.4726 85.9262 61.7408C86.3116 61.2171 86.6971 60.6972 87.1134 60.2004C88.1156 58.9167 89.1435 57.633 90.1971 56.3493C91.2506 55.0656 92.3453 53.7986 93.4812 52.5483C93.6353 52.375 93.7895 52.2055 93.9514 52.0361L95.5973 50.2415C95.6783 50.1568 95.7476 50.0797 95.8247 50.0027C96.0213 49.7909 96.2102 49.5791 96.4222 49.375C97.3049 48.4392 98.2107 47.5226 99.1204 46.6099C103.75 42.003 108.682 37.7098 113.883 33.7588C114.088 33.5971 114.296 33.443 114.5 33.289C115.479 32.5534 116.474 31.8256 117.468 31.1093C122.938 27.1887 128.656 23.6254 134.586 20.4417C134.995 20.2068 135.411 19.9873 135.831 19.7717C141.148 16.9616 146.616 14.4468 152.21 12.2389C155.258 11.0335 158.377 9.90131 161.514 8.86537C163.604 8.17987 165.701 7.52904 167.824 6.91672C171.145 5.96165 174.488 5.10542 177.854 4.34804C187.772 2.12475 197.861 0.751338 208.012 0.242775C211.096 0.0861636 214.214 0.00529172 217.367 0.000156933C232.581 -0.0199665 247.736 1.8953 262.466 5.69977C262.618 5.92971 262.827 6.11717 263.071 6.2445C263.316 6.37183 263.589 6.43485 263.865 6.42763H265.16C265.723 6.58167 266.282 6.73571 266.845 6.89746C269.987 7.80118 273.085 8.78835 276.138 9.85895L276.909 10.1362C284.444 12.8131 291.775 16.0307 298.845 19.764C305.219 23.1212 311.355 26.9092 317.212 31.1016C318.114 31.7486 319.004 32.4007 319.88 33.0579C320.944 32.3776 322.026 31.7254 323.125 31.1016C327.373 28.6848 331.884 26.7633 336.57 25.375C346.368 22.4783 356.734 22.0732 366.728 24.1966C379.545 26.9116 391.147 33.651 400.518 43.2364C404.333 47.1582 407.729 51.4665 410.651 56.0913C410.863 56.4225 411.075 56.7575 411.28 57.0964C413.791 61.1897 415.95 65.4889 417.732 69.9475C417.798 70.1131 417.863 70.2672 417.921 70.4289C419.567 74.6039 420.894 78.8973 421.891 83.2723C421.938 83.4957 421.992 83.7152 422.038 83.9385C422.971 88.1725 423.604 92.4668 423.934 96.7896C423.934 96.9437 423.934 97.1016 423.965 97.2633C424.127 99.4995 424.209 101.759 424.212 104.041C424.212 106.082 424.142 108.108 424.015 110.118C424.015 110.338 423.984 110.565 423.965 110.792C423.93 111.374 423.88 111.948 423.83 112.533C426.774 114.905 429.529 117.502 432.071 120.301C433.194 121.525 434.281 122.796 435.332 124.113C438.534 128.122 441.347 132.425 443.735 136.964C450.253 149.257 454 163.718 454 179.195Z" fill="#FF4F00"/>
<path opacity="0.1" d="M410.444 271.786C410.444 274.417 401.374 276.881 385.547 279H86.1846C72.8654 279.028 59.7762 275.532 48.2479 268.867L48.0706 268.767C52.619 267.111 60.8292 265.567 72.0036 264.173L72.5047 264.111C77.5157 263.499 83.1164 262.917 89.2375 262.367C89.3917 262.367 89.5497 262.344 89.7039 262.324C94.5607 261.893 99.7271 261.489 105.203 261.111C105.377 261.111 105.546 261.08 105.72 261.073C107.832 260.921 109.988 260.777 112.188 260.641L113.036 260.587C129.051 259.594 147.257 258.801 167 258.277H167.023C169.788 258.2 172.583 258.132 175.407 258.073C178.547 257.998 181.726 257.933 184.943 257.876C187.398 257.822 189.884 257.784 192.378 257.745H192.436C203.688 257.576 215.313 257.491 227.201 257.491C256.596 257.491 284.379 258.027 308.999 258.989H309.068C312.853 259.136 316.569 259.297 320.192 259.463L323.276 259.609C327.365 259.804 331.348 260.014 335.225 260.237C380.825 262.829 410.444 267.038 410.444 271.786Z" fill="#FF4F00"/>
<g opacity="0.2">
<path opacity="0.2" d="M262.219 255.724C262.207 256.14 262.159 256.553 262.076 256.961C259.394 256.534 256.695 256.149 253.982 255.805C253.982 255.697 253.982 255.586 253.982 255.474C254.007 254.319 254.339 253.192 254.945 252.208C255.739 250.953 256.946 250.167 258.276 250.21C259.606 250.252 260.758 251.111 261.471 252.409C262.011 253.428 262.269 254.572 262.219 255.724Z" fill="#3F3D56"/>
<path opacity="0.2" d="M262.441 249.143C262.535 246.165 260.766 243.692 258.489 243.62C256.213 243.548 254.291 245.904 254.196 248.883C254.102 251.861 255.871 254.334 258.148 254.406C260.425 254.477 262.347 252.121 262.441 249.143Z" fill="#3F3D56"/>
<path opacity="0.2" d="M262.651 242.55C262.745 239.572 260.976 237.099 258.699 237.027C256.422 236.956 254.5 239.312 254.406 242.29C254.312 245.268 256.081 247.741 258.358 247.813C260.634 247.885 262.556 245.529 262.651 242.55Z" fill="#3F3D56"/>
<path opacity="0.2" d="M262.858 235.956C262.952 232.978 261.183 230.506 258.906 230.434C256.63 230.362 254.708 232.718 254.613 235.696C254.519 238.674 256.288 241.147 258.565 241.219C260.842 241.291 262.764 238.935 262.858 235.956Z" fill="#3F3D56"/>
<path opacity="0.2" d="M263.064 229.364C263.158 226.385 261.389 223.913 259.113 223.841C256.836 223.769 254.914 226.125 254.82 229.103C254.726 232.082 256.495 234.554 258.771 234.626C261.048 234.698 262.97 232.342 263.064 229.364Z" fill="#3F3D56"/>
<path opacity="0.2" d="M244.912 183.616C244.37 182.882 243.88 182.11 243.448 181.306L254.341 179.869L242.615 179.588C241.569 177.108 241.04 174.441 241.06 171.75C241.081 169.059 241.65 166.401 242.735 163.937L258.199 172.583L244.034 161.476C245.463 159.167 247.353 157.177 249.586 155.631C251.819 154.084 254.348 153.014 257.014 152.488C259.68 151.962 262.425 151.99 265.08 152.572C267.734 153.153 270.24 154.275 272.441 155.868C274.641 157.46 276.49 159.489 277.87 161.827C279.251 164.166 280.134 166.763 280.465 169.458C280.796 172.153 280.567 174.887 279.793 177.489C279.018 180.091 277.715 182.506 275.965 184.583C276.809 185.725 277.526 186.956 278.104 188.253L263.808 195.108L278.968 190.552C279.922 193.699 280.076 197.035 279.415 200.257C278.754 203.478 277.299 206.484 275.182 209.003C277.383 211.986 278.7 215.528 278.98 219.224C279.261 222.92 278.496 226.62 276.771 229.901C275.046 233.183 272.432 235.913 269.227 237.78C266.022 239.647 262.356 240.575 258.648 240.458C254.94 240.341 251.34 239.184 248.259 237.119C245.178 235.055 242.741 232.165 241.227 228.782C239.712 225.398 239.181 221.657 239.695 217.987C240.208 214.316 241.745 210.864 244.13 208.024C241.5 204.459 240.147 200.114 240.287 195.687C240.426 191.26 242.051 187.009 244.901 183.616H244.912Z" fill="#FF4F00"/>
<path opacity="0.1" d="M279.808 196.934C279.673 201.363 278.043 205.616 275.182 209.003C277.383 211.987 278.7 215.529 278.98 219.225C279.261 222.92 278.496 226.62 276.771 229.902C275.046 233.183 272.432 235.913 269.227 237.78C266.022 239.647 262.356 240.575 258.648 240.458C254.94 240.342 251.34 239.185 248.259 237.12C245.178 235.055 242.741 232.166 241.227 228.782C239.712 225.399 239.181 221.658 239.695 217.987C240.208 214.316 241.745 210.864 244.13 208.025C241.597 204.586 279.877 194.719 279.808 196.934Z" fill="black"/>
</g>
<g opacity="0.2">
<path opacity="0.2" d="M203.63 255.724C203.617 256.14 203.57 256.553 203.487 256.961C200.804 256.534 198.106 256.149 195.392 255.805C195.392 255.697 195.392 255.586 195.392 255.474C195.417 254.319 195.75 253.192 196.356 252.208C197.15 250.953 198.357 250.167 199.686 250.21C201.016 250.252 202.169 251.111 202.882 252.409C203.421 253.428 203.679 254.572 203.63 255.724Z" fill="#3F3D56"/>
<path opacity="0.2" d="M203.847 249.145C203.941 246.167 202.172 243.694 199.895 243.622C197.619 243.55 195.697 245.906 195.602 248.885C195.508 251.863 197.277 254.336 199.554 254.407C201.831 254.479 203.753 252.123 203.847 249.145Z" fill="#3F3D56"/>
<path opacity="0.2" d="M204.058 242.551C204.152 239.573 202.383 237.1 200.106 237.028C197.829 236.957 195.907 239.313 195.813 242.291C195.719 245.269 197.488 247.742 199.765 247.814C202.041 247.886 203.963 245.53 204.058 242.551Z" fill="#3F3D56"/>
<path opacity="0.2" d="M204.264 235.958C204.358 232.98 202.589 230.507 200.312 230.436C198.036 230.364 196.114 232.72 196.02 235.698C195.925 238.676 197.695 241.149 199.971 241.221C202.248 241.293 204.17 238.937 204.264 235.958Z" fill="#3F3D56"/>
<path opacity="0.2" d="M204.47 229.366C204.565 226.387 202.795 223.915 200.519 223.843C198.242 223.771 196.32 226.127 196.226 229.105C196.131 232.084 197.901 234.556 200.177 234.628C202.454 234.7 204.376 232.344 204.47 229.366Z" fill="#3F3D56"/>
<path opacity="0.2" d="M186.323 183.616C185.78 182.882 185.291 182.11 184.858 181.306L195.751 179.869L184.026 179.588C182.979 177.108 182.45 174.441 182.471 171.75C182.491 169.059 183.061 166.401 184.145 163.937L199.61 172.583L185.444 161.476C186.873 159.167 188.763 157.177 190.997 155.631C193.23 154.084 195.759 153.014 198.425 152.488C201.09 151.962 203.836 151.99 206.49 152.572C209.145 153.153 211.651 154.275 213.851 155.868C216.052 157.46 217.9 159.489 219.281 161.827C220.662 164.166 221.545 166.763 221.876 169.458C222.207 172.153 221.978 174.887 221.203 177.489C220.429 180.091 219.126 182.506 217.376 184.583C218.22 185.725 218.937 186.956 219.515 188.253L205.218 195.108L220.378 190.552C221.333 193.699 221.487 197.035 220.826 200.257C220.165 203.478 218.71 206.484 216.593 209.003C218.794 211.986 220.11 215.528 220.391 219.224C220.672 222.92 219.906 226.62 218.181 229.901C216.457 233.183 213.842 235.913 210.637 237.78C207.433 239.647 203.767 240.575 200.059 240.458C196.351 240.341 192.751 239.184 189.67 237.119C186.589 235.055 184.152 232.165 182.638 228.782C181.123 225.398 180.592 221.657 181.105 217.987C181.619 214.316 183.156 210.864 185.541 208.024C182.911 204.459 181.557 200.114 181.697 195.687C181.837 191.26 183.462 187.009 186.311 183.616H186.323Z" fill="#FF4F00"/>
<path opacity="0.1" d="M221.219 196.934C221.084 201.363 219.454 205.616 216.593 209.003C218.794 211.987 220.11 215.529 220.391 219.225C220.672 222.92 219.906 226.62 218.181 229.902C216.457 233.183 213.842 235.913 210.637 237.78C207.433 239.647 203.767 240.575 200.059 240.458C196.351 240.342 192.751 239.185 189.67 237.12C186.589 235.055 184.152 232.166 182.638 228.782C181.123 225.399 180.592 221.658 181.105 217.987C181.619 214.316 183.156 210.864 185.541 208.025C183.008 204.586 221.288 194.719 221.219 196.934Z" fill="black"/>
</g>
<g opacity="0.2">
<path opacity="0.2" d="M363.671 259.937C363.642 260.724 363.548 261.507 363.39 262.279C358.225 261.455 353.022 260.718 347.783 260.068C347.783 259.86 347.783 259.648 347.783 259.433C347.832 257.209 348.473 255.038 349.64 253.144C351.182 250.729 353.495 249.216 356.051 249.293C358.606 249.37 360.83 251.03 362.218 253.529C363.264 255.498 363.766 257.71 363.671 259.937Z" fill="#3F3D56"/>
<path opacity="0.2" d="M364.091 247.258C364.272 241.522 360.864 236.761 356.479 236.622C352.094 236.484 348.391 241.021 348.21 246.757C348.029 252.492 351.437 257.254 355.822 257.392C360.207 257.531 363.909 252.993 364.091 247.258Z" fill="#3F3D56"/>
<path opacity="0.2" d="M364.491 234.565C364.672 228.829 361.264 224.067 356.879 223.929C352.494 223.79 348.792 228.328 348.61 234.063C348.429 239.799 351.837 244.56 356.222 244.699C360.607 244.837 364.309 240.3 364.491 234.565Z" fill="#3F3D56"/>
<path opacity="0.2" d="M364.896 221.871C365.077 216.136 361.669 211.374 357.284 211.235C352.898 211.097 349.196 215.634 349.015 221.37C348.833 227.105 352.241 231.867 356.627 232.006C361.012 232.144 364.714 227.607 364.896 221.871Z" fill="#3F3D56"/>
<path opacity="0.2" d="M364.845 208.6C365.017 202.861 361.6 198.103 357.213 197.971C352.825 197.84 349.129 202.385 348.957 208.123C348.784 213.862 352.201 218.62 356.589 218.752C360.976 218.883 364.673 214.338 364.845 208.6Z" fill="#3F3D56"/>
<path opacity="0.2" d="M330.348 121.121C329.308 119.707 328.367 118.223 327.531 116.68L348.5 113.915L325.931 113.372C323.915 108.599 322.895 103.464 322.934 98.2837C322.972 93.1028 324.068 87.9843 326.155 83.2412L355.931 99.8818L328.664 78.5005C331.421 74.0656 335.063 70.2455 339.362 67.2784C343.662 64.3113 348.527 62.2607 353.654 61.2544C358.782 60.2481 364.062 60.3077 369.165 61.4295C374.269 62.5513 379.086 64.7112 383.317 67.7746C387.549 70.838 391.103 74.7393 393.759 79.2354C396.415 83.7314 398.116 88.7258 398.755 93.9073C399.395 99.0888 398.959 104.346 397.476 109.352C395.992 114.358 393.493 119.005 390.133 123.004C391.757 125.204 393.138 127.574 394.254 130.071L366.728 143.276L395.911 134.495C397.75 140.547 398.05 146.962 396.782 153.158C395.515 159.355 392.721 165.137 388.653 169.983C392.889 175.727 395.422 182.546 395.963 189.661C396.503 196.775 395.028 203.898 391.707 210.214C388.387 216.531 383.354 221.787 377.184 225.38C371.015 228.974 363.958 230.76 356.82 230.535C349.682 230.311 342.752 228.083 336.821 224.109C330.89 220.134 326.199 214.572 323.283 208.059C320.367 201.546 319.345 194.345 320.332 187.278C321.32 180.212 324.278 173.566 328.868 168.1C323.809 161.236 321.204 152.873 321.473 144.353C321.741 135.832 324.867 127.649 330.348 121.117V121.121Z" fill="#FF4F00"/>
<path opacity="0.1" d="M397.534 146.754C397.281 155.276 394.157 163.463 388.668 169.991C392.905 175.735 395.438 182.554 395.978 189.669C396.518 196.783 395.043 203.906 391.723 210.222C388.402 216.539 383.369 221.795 377.2 225.388C371.03 228.982 363.973 230.768 356.835 230.543C349.698 230.319 342.767 228.091 336.837 224.117C330.906 220.142 326.214 214.58 323.299 208.067C320.383 201.554 319.36 194.353 320.348 187.286C321.336 180.22 324.294 173.574 328.884 168.108C323.973 161.48 397.669 142.491 397.534 146.754Z" fill="black"/>
</g>
<path d="M60.8333 260.615L64.8767 260.603H70.5776L77.7857 143.615L149.169 24.6046L146.066 21.2773V12.8511L68.8662 140.857L60.8333 260.615Z" fill="#F1C0C0"/>
<path opacity="0.1" d="M65.3076 260.603H70.5768L77.7849 143.615L149.168 24.6047L146.065 21.2773L72.4347 141.832L65.3076 260.603Z" fill="black"/>
<path d="M48.918 261.589L233.88 275.73L234.038 275.742L413.041 264.743L413.176 264.735V257.183L215.937 253.567L51.381 253.409H50.1784L50.0474 254.256L48.918 261.589Z" fill="#F1C0C0"/>
<path opacity="0.1" d="M48.918 261.589L233.88 275.73L234.038 275.742L413.041 264.743L413.176 264.597V257.341H413.018L233.88 263.318L51.381 253.409H51.3541L51.0303 253.621L50.0474 254.256L48.918 261.589Z" fill="black"/>
<path opacity="0.1" d="M48.918 261.589L233.88 275.73V263.318L51.0303 253.621L50.0474 254.257L48.918 261.589Z" fill="black"/>
<path d="M146.043 21.1197L227.586 108.563L225.065 262.375L231.992 263.211L232.108 263.226H239.034L239.863 115.167L392.554 166.125L395.129 256.856L400.703 257.48L402.592 257.692L398.221 159.832L238.603 103.845L151.081 12.9399H146.043V21.1197Z" fill="#F1C0C0"/>
<path opacity="0.1" d="M239.234 112.336L239.863 115.167L392.554 166.125L395.129 256.856L400.703 257.48L396.332 164.238L239.234 112.336Z" fill="black"/>
<path opacity="0.1" d="M146.043 21.1197L227.586 108.563L225.065 262.375L231.992 263.211L233.881 103.529L146.043 12.9399V21.1197Z" fill="black"/>
<path d="M239.531 174.065L295.535 185.083L295.554 185.087L393.641 204.392L398.132 202.594L398.116 202.278L397.823 196.02L239.589 164.075L239.531 174.065Z" fill="#F1C0C0"/>
<path opacity="0.1" d="M295.554 185.087L393.642 204.393L398.132 202.594L398.117 202.278L295.554 185.087Z" fill="black"/>
<path d="M299.304 135.004L300.819 218.318L301.601 261.062L308.497 260.831L312.837 260.684L311.488 136.209L308.497 135.216L307.842 135.004H299.304Z" fill="#F1C0C0"/>
<path opacity="0.1" d="M299.366 134.984V135.004L300.819 218.318L301.602 261.061L308.497 260.83V134.984H299.366Z" fill="black"/>
<path d="M191.288 156.281C191.692 156.501 192.079 156.752 192.444 157.032C192.876 157.41 193.264 157.835 193.6 158.299C195.254 160.437 196.78 162.921 196.618 165.617C196.622 166.009 196.548 166.398 196.4 166.761C196.253 167.125 196.035 167.456 195.759 167.735C195.077 168.316 194.098 168.343 193.203 168.343C192.232 168.343 191.21 168.343 190.37 167.843C189.53 167.342 188.828 166.368 187.834 166.391C187.693 166.414 187.55 166.414 187.41 166.391C187.067 166.279 186.997 165.828 186.774 165.543C186.388 165.031 185.575 165.158 184.97 165.382C184.365 165.605 183.694 165.94 183.097 165.682C182.75 165.499 182.466 165.216 182.283 164.869C180.853 162.559 180.549 159.782 180.279 157.098C180.113 155.465 178.849 149.896 182.337 151.163C183.879 151.718 185.321 152.827 186.724 153.64L191.288 156.281Z" fill="#3F3D56"/>
<path d="M187.841 156.832C188.153 157.056 188.53 157.169 188.914 157.154C189.297 157.138 189.665 156.995 189.957 156.747C190.531 156.229 190.897 155.52 190.987 154.752C191.372 154.633 191.569 155.137 191.815 155.445C192.247 155.969 193.126 155.962 193.519 156.52C193.793 156.905 193.731 157.44 193.924 157.876C194.174 158.438 194.795 158.73 195.219 159.185C195.619 159.681 195.908 160.258 196.067 160.876L196.699 162.77C197.002 163.558 197.196 164.383 197.277 165.223C197.317 165.643 197.273 166.067 197.147 166.47C197.021 166.872 196.817 167.246 196.545 167.569C195.697 168.481 194.305 168.578 193.076 168.551C192.665 168.56 192.255 168.512 191.858 168.408C190.767 168.069 190.069 166.972 189.78 165.867C189.491 164.761 189.522 163.602 189.352 162.47C189.169 161.358 188.845 160.273 188.389 159.243C188.049 158.442 187.117 157.248 187.132 156.397C187.41 156.397 187.61 156.651 187.841 156.832Z" fill="#3F3D56"/>
<path d="M189.225 152.931C189.045 152.384 188.94 151.815 188.913 151.24C188.913 150.085 189.441 148.999 189.973 147.967L185.567 148.564C185.035 148.637 184.442 148.745 184.141 149.188C184.027 149.407 183.967 149.651 183.967 149.898C183.967 150.145 184.027 150.389 184.141 150.609C184.362 151.048 184.537 151.509 184.665 151.983C184.675 152.399 184.723 152.813 184.808 153.22C184.945 153.519 185.137 153.789 185.374 154.017C186.635 155.411 187.579 157.055 188.52 158.684C188.493 158.638 191.176 156.562 191.068 155.885C191.006 155.499 190.231 155.037 189.985 154.668C189.644 154.131 189.388 153.545 189.225 152.931Z" fill="#BE6F72"/>
<path d="M227 137.884V141.678L161.985 154.348L158.613 156.389H146.976V154.251L210.854 138.832L227 137.884Z" fill="#F1C0C0"/>
<path opacity="0.1" d="M227 141.678L161.985 154.348L158.613 156.389H146.976L211.328 142.629L227 141.678Z" fill="black"/>
<path d="M174.801 245.569C174.077 244.692 173.077 244.087 171.964 243.85C170.851 243.614 169.691 243.761 168.672 244.267C168.454 244.37 168.262 244.52 168.109 244.706C167.724 245.245 167.971 245.989 168.005 246.655C168.094 248.28 166.799 249.601 165.635 250.737C165.01 251.346 164.374 251.996 164.093 252.824C163.812 253.652 164.02 254.704 164.775 255.135C165.105 255.3 165.464 255.4 165.831 255.428C167.063 255.668 168.327 255.703 169.57 255.532C170.8 255.297 172.006 254.6 172.538 253.467C172.641 253.16 172.811 252.88 173.036 252.647C173.714 252.112 174.755 252.74 175.526 252.358C176.162 252.043 176.189 251.546 176.196 250.891C176.219 249.081 175.95 247.032 174.801 245.569Z" fill="#FF4F00"/>
<path d="M184.052 245.499C184.526 246.747 184.592 248.106 184.654 249.439C184.688 250.209 184.711 251.033 184.295 251.684C183.879 252.335 183.065 252.678 182.287 252.839C180.679 253.17 178.818 252.859 177.781 251.584C176.987 250.609 176.821 249.273 176.967 248.01C177.091 246.974 177.353 245.761 176.609 245.025C176.416 244.829 176.166 244.69 175.988 244.479C175.603 244.009 175.665 243.3 175.873 242.722C176.144 242.17 176.347 241.587 176.478 240.986C176.509 240.701 181.697 241.186 182.175 241.421C182.826 241.74 182.726 242.276 182.923 242.923C183.196 243.824 183.721 244.636 184.052 245.499Z" fill="#FF4F00"/>
<path d="M185.004 190.175C186.022 190.833 186.415 192.127 186.573 193.329C187.009 196.622 186.245 199.949 186.188 203.272C186.134 207.928 187.483 212.669 186.33 217.179C185.64 219.874 186.226 222.955 185.578 225.678C185.386 226.487 185.031 227.249 184.846 228.058C184.461 229.81 184.865 231.643 185.409 233.357C185.582 233.819 185.693 234.302 185.737 234.794C185.71 235.55 185.518 236.292 185.174 236.966L182.861 242.43C182.603 243.043 181.585 243.143 180.934 243.224C179.708 243.37 178.34 243.474 177.364 242.715C176.389 241.957 176.154 240.686 176.004 239.5C175.715 237.223 175.587 234.928 175.618 232.633C175.661 232.034 175.607 231.432 175.46 230.85C175.248 230.192 174.782 229.622 174.655 228.925C174.493 228.023 174.951 227.138 175.121 226.229C175.237 225.399 175.224 224.556 175.082 223.729C174.932 222.497 174.759 221.265 174.562 220.04C174.285 218.326 174.682 216.636 174.948 214.918C175.198 213.304 174.878 211.66 174.562 210.058C174.589 211.358 174.427 212.656 174.08 213.909C173.876 214.521 173.583 215.107 173.406 215.731C172.616 218.53 174.3 221.469 174.061 224.369C173.949 225.724 173.417 227.064 173.568 228.401C173.672 229.379 174.127 230.276 174.439 231.208C174.751 232.14 174.913 233.207 174.439 234.077C173.186 236.442 174.123 239.658 175.244 242.084C175.472 242.514 175.67 242.959 175.838 243.416C176.169 244.51 175.892 245.685 175.981 246.824C175.658 246.877 175.327 246.856 175.014 246.762C174.701 246.668 174.413 246.503 174.173 246.281C174.003 246.104 173.864 245.896 173.699 245.711C173.236 245.27 172.687 244.928 172.087 244.706C171.735 244.509 171.334 244.417 170.931 244.441C170.507 244.559 170.126 244.795 169.833 245.122C169.451 245.457 169.047 245.765 168.622 246.043C168.441 246.182 168.23 246.275 168.005 246.316C167.893 246.334 167.777 246.315 167.675 246.263C167.574 246.211 167.491 246.129 167.439 246.027C167.415 245.963 167.4 245.896 167.396 245.827C167.253 244.664 167.177 243.494 167.169 242.322C167.169 240.308 164.756 238.922 164.452 236.931C164.209 235.325 164.66 233.688 164.509 232.071C164.436 231.239 164.205 230.423 164.22 229.591C164.22 229.052 164.344 228.524 164.386 227.989C164.421 227.395 164.412 226.799 164.359 226.206L164.24 224.346C164.124 222.509 163.997 220.633 163.272 218.954C162.413 216.993 161.904 214.898 161.769 212.761C161.692 211.414 161.742 210.066 161.588 208.714C161.449 207.493 161.14 206.28 161.229 205.055C161.302 204.108 161.615 203.191 161.688 202.244C161.838 200.423 161.144 198.651 160.601 196.907C160.057 195.162 159.656 193.229 160.37 191.546C160.471 191.27 160.641 191.023 160.863 190.829C161.136 190.649 161.447 190.533 161.773 190.491C168.386 189.103 175.165 188.671 181.901 189.208C182.999 189.27 184.065 189.602 185.004 190.175Z" fill="#3F3D56"/>
<path d="M163.122 149.272C166.532 149.272 169.297 146.51 169.297 143.103C169.297 139.695 166.532 136.933 163.122 136.933C159.712 136.933 156.947 139.695 156.947 143.103C156.947 146.51 159.712 149.272 163.122 149.272Z" fill="#BE6F72"/>
<path d="M161.927 150.809C162.016 151.162 162.016 151.531 161.927 151.883C161.83 152.13 161.693 152.359 161.522 152.561C160.924 153.332 160.263 154.05 159.545 154.71C159.911 155.527 160.569 156.176 161.391 156.532C162.207 156.879 163.063 157.123 163.939 157.259C164.376 157.374 164.831 157.406 165.28 157.352C165.694 157.248 166.086 157.071 166.437 156.828L169.867 154.776C170.385 154.495 170.864 154.15 171.293 153.747C171.923 153.101 172.279 152.238 172.288 151.337C172.304 151.175 172.26 151.013 172.165 150.882C172.033 150.768 171.868 150.699 171.694 150.686C170.488 150.42 169.536 149.442 168.996 148.333C168.508 147.196 168.193 145.993 168.059 144.763L164.401 146.688C163.858 146.977 163.318 147.266 162.756 147.516C162.397 147.678 161.672 147.813 161.418 148.14C160.932 148.745 161.8 150.081 161.927 150.809Z" fill="#BE6F72"/>
<path d="M159.568 153.589C159.047 154.015 158.641 154.565 158.385 155.187C158.146 155.957 158.385 156.77 158.601 157.532C159.612 160.782 160.385 164.102 160.913 167.464C161.237 169.775 161.357 172.12 161.515 174.458C161.838 179.226 162.309 186.828 162.937 191.564C165.25 191.668 167.505 190.995 169.798 190.748C174.084 190.294 178.498 191.333 182.696 190.363C181.678 186.346 180.66 179.487 179.643 175.475C179.192 173.894 178.88 172.276 178.71 170.641C178.621 169.467 178.675 168.288 178.691 167.106C178.725 164.796 178.598 162.485 178.471 160.174C178.324 157.478 178.178 154.783 177.538 152.145C177.494 151.809 177.336 151.498 177.091 151.263C176.706 150.982 176.204 151.082 175.746 151.143C174.341 151.322 172.92 150.985 171.745 150.196C171.236 149.849 170.554 149.426 170.08 149.811C169.877 150.043 169.744 150.327 169.694 150.631C169.484 151.176 169.16 151.67 168.744 152.08C168.328 152.489 167.829 152.806 167.281 153.007C166.183 153.405 165.032 153.641 163.866 153.708C163.509 153.785 163.137 153.743 162.806 153.589C162.259 153.254 162.22 152.048 161.53 151.968C160.925 151.898 159.977 153.2 159.568 153.589Z" fill="#3F3D56"/>
<path d="M168.687 162.994C167.265 161.634 166.641 159.663 165.604 157.987C164.898 156.861 163.996 155.87 162.94 155.06C162.41 154.71 161.923 154.298 161.491 153.832C161.125 153.381 160.847 152.781 160.292 152.607C160.063 152.557 159.825 152.564 159.598 152.626C159.372 152.689 159.164 152.805 158.993 152.965C158.653 153.289 158.332 153.631 158.029 153.99C156.395 155.68 153.523 155.915 152.228 157.872C151.879 158.287 151.641 158.784 151.538 159.316C151.165 162.163 151.902 165.045 153.597 167.365C153.925 167.902 154.428 168.31 155.023 168.52C154.942 169.238 155.037 169.965 155.3 170.638C156.014 173.075 156.891 175.462 157.925 177.782C157.678 178.689 157.505 179.615 157.409 180.551C157.139 182.904 157.39 185.292 157.135 187.648C156.927 189.574 156.364 191.449 156.345 193.379C156.345 193.687 156.372 194.053 156.638 194.211C156.779 194.283 156.938 194.317 157.097 194.307L161.838 194.449C164.59 194.53 167.369 194.611 170.079 194.103C170.44 194.049 170.79 193.939 171.116 193.775C172.033 193.263 172.338 192.108 172.484 191.08C172.675 189.746 172.751 188.398 172.712 187.051C173.286 188.865 173.968 190.741 175.703 191.526C176.62 191.942 177.669 191.912 178.675 191.885C180.843 191.788 183.004 191.566 185.146 191.218C185.278 191.235 185.412 191.22 185.538 191.175C185.663 191.131 185.776 191.057 185.868 190.961C185.96 190.865 186.028 190.748 186.066 190.621C186.105 190.494 186.113 190.36 186.091 190.229L186.114 188.126C186.16 183.855 185.1 179.773 184.688 175.521C184.557 174.181 184.568 172.826 184.241 171.512C184.106 170.962 183.909 170.422 183.79 169.868C183.687 169.325 183.622 168.775 183.597 168.224L183.296 163.987C183.154 162.027 182.949 160.136 182.799 158.18C182.716 156.275 182.44 154.383 181.974 152.534C181.639 151.379 180.941 150.069 179.735 149.927C179.091 149.854 178.466 150.135 177.854 150.331C176.347 150.805 174.73 150.798 173.228 150.312C172.764 150.129 172.28 150 171.786 149.927C171.538 149.893 171.285 149.926 171.053 150.022C170.822 150.118 170.62 150.274 170.468 150.474C170.319 150.775 170.248 151.109 170.264 151.444C170.083 155.292 169.747 159.254 168.687 162.994Z" fill="#FF4F00"/>
<path d="M162.486 163.11C160.709 161.238 158.886 159.332 156.596 158.142C155.694 157.672 154.669 157.318 153.671 157.495C152.672 157.672 151.743 158.538 151.79 159.551C151.821 160.179 152.202 160.733 152.322 161.35C152.46 162.043 152.26 162.782 152.476 163.452C152.651 163.894 152.913 164.296 153.247 164.635L155.976 167.866C157.132 169.214 158.289 170.581 159.776 171.513C161.264 172.445 163.192 172.88 164.826 172.217C165.989 171.677 166.956 170.791 167.594 169.68C168.272 168.601 168.75 167.423 169.386 166.31C170.376 164.531 171.682 162.948 173.24 161.638C172.439 161.43 171.433 161.138 170.928 160.483C170.784 160.275 170.661 160.053 170.562 159.821L169.937 158.473C169.725 158.462 169.512 158.495 169.313 158.57C169.114 158.645 168.933 158.76 168.781 158.908C168.513 159.217 168.226 159.509 167.921 159.782C167.378 160.19 166.641 160.302 166.148 160.768C165.957 160.968 165.784 161.185 165.632 161.415C165.258 161.905 164.785 162.31 164.242 162.602C163.7 162.894 163.101 163.067 162.486 163.11Z" fill="#3F3D56"/>
<path d="M173.383 155.056C174.72 152.618 174.658 149.695 175.04 146.942C175.081 146.213 175.338 145.512 175.776 144.928C176.547 144.057 177.908 144.046 179.072 144.158C179.415 144.196 179.843 144.358 179.824 144.701C179.797 144.823 179.737 144.937 179.65 145.028C178.522 146.483 177.858 148.244 177.746 150.081C178.351 150.5 179.288 149.638 179.87 150.081C180.255 150.404 180.078 151.043 179.847 151.506C179.31 152.576 178.756 153.639 178.185 154.694C177.73 155.624 177.136 156.48 176.424 157.232C175.934 157.702 175.36 158.072 174.863 158.534C173.706 159.616 173.009 161.145 171.814 162.2C171.713 162.309 171.576 162.379 171.428 162.396C171.276 162.386 171.133 162.321 171.024 162.215C170.427 161.73 169.931 161.132 169.567 160.455C169.112 159.616 169.181 159.369 169.898 158.776C171.239 157.717 172.546 156.581 173.383 155.056Z" fill="#BE6F72"/>
<path d="M160.25 161.453C160.481 161.595 160.767 161.757 161.021 161.638C161.125 161.575 161.213 161.489 161.279 161.387C161.72 160.8 162.088 160.161 162.374 159.485C162.423 159.39 162.451 159.284 162.455 159.177C162.455 158.93 162.235 158.749 162.031 158.607C160.936 157.91 159.759 157.351 158.527 156.943C157.51 156.558 156.446 156.223 155.366 156.319C154.961 156.347 154.565 156.456 154.203 156.639C153.84 156.823 153.519 157.079 153.258 157.39C152.487 158.38 153.778 158.68 154.588 159.038C156.461 159.889 158.489 160.382 160.25 161.453Z" fill="#FF4F00"/>
<path opacity="0.1" d="M159.036 168C159.023 168.088 159.031 168.177 159.059 168.262C159.087 168.346 159.135 168.423 159.198 168.485C159.31 167.938 159.163 167.361 159.279 166.81C159.449 165.982 160.255 165.358 160.324 164.526C158.847 164.237 159.048 167.106 159.036 168Z" fill="black"/>
<path opacity="0.2" d="M227 137.884V141.678L211.327 142.629L210.853 138.832L227 137.884Z" fill="black"/>
<path d="M157.564 144.019C158.543 143.222 157.976 141.551 158.639 140.48C159.025 139.895 159.676 139.587 160.316 139.325C161.088 138.964 161.915 138.735 162.764 138.647C163.188 138.606 163.617 138.662 164.017 138.809C164.418 138.956 164.78 139.192 165.076 139.498C165.327 139.783 165.496 140.13 165.732 140.426C166.023 140.772 166.402 141.033 166.83 141.181C167.257 141.329 167.717 141.358 168.16 141.266C168.673 141.15 169.205 140.761 169.17 140.238C169.112 139.919 168.949 139.629 168.707 139.413L167.605 138.193C166.352 136.806 164.961 135.335 163.122 134.989C161.842 134.746 160.532 135.089 159.298 135.501C158.801 135.666 158.242 135.913 158.103 136.417C158.011 136.764 158.15 137.141 158.069 137.492C157.911 138.189 157.016 138.424 156.6 139.009C156.184 139.594 156.311 140.288 156.191 140.935C156.072 141.582 155.725 142.213 155.683 142.883C155.656 143.288 155.86 144.039 156.315 144.185C156.77 144.331 157.282 143.538 157.564 144.019Z" fill="#3F3D56"/>
<path d="M168.796 139.683C168.471 137.988 167.77 136.388 166.745 135C165.834 133.703 164.566 132.697 163.095 132.104C162.359 131.817 161.568 131.7 160.781 131.762C159.994 131.824 159.231 132.063 158.55 132.462C157.539 133.183 156.752 134.175 156.28 135.323C155.281 137.472 154.911 140.099 156.072 142.163C156.534 141.601 157.328 141.855 158.03 141.651C158.909 141.4 159.653 140.815 160.489 140.449C163.014 139.336 166.097 140.237 168.796 139.683Z" fill="#FED253"/>
<path opacity="0.1" d="M156.662 139.564C156.573 138.87 156.515 138.066 157.009 137.573C157.033 137.542 157.065 137.518 157.1 137.502C157.136 137.486 157.174 137.479 157.213 137.48C157.248 137.491 157.279 137.509 157.307 137.533C157.334 137.557 157.356 137.586 157.371 137.619C157.656 138.068 157.899 138.542 158.096 139.036C157.809 138.97 157.508 138.991 157.233 139.098C156.958 139.204 156.721 139.391 156.554 139.633" fill="black"/>
<path opacity="0.1" d="M165.67 137.607L165.531 136.232C165.509 136.119 165.518 136.002 165.558 135.893C165.616 135.803 165.706 135.737 165.81 135.708C165.914 135.68 166.025 135.691 166.121 135.739C166.311 135.844 166.467 136 166.572 136.19C166.893 136.682 167.16 137.208 167.367 137.757C166.745 137.638 166.106 137.646 165.489 137.78" fill="black"/>
<path opacity="0.1" d="M169.119 193.405V196.548L166.463 196.725H152.494V193.405H169.119Z" fill="black"/>
<path d="M169.12 193.405V196.725H152.495L108.329 141.45V138.839H117.588L169.12 193.405Z" fill="#F1C0C0"/>
<path opacity="0.1" d="M169.12 193.405V196.725H152.495L108.329 141.45V138.839H117.588L169.12 193.405Z" fill="black"/>
<path opacity="0.1" d="M169.12 193.405V196.725H152.495L108.329 141.45V138.839L152.734 193.405H169.12Z" fill="black"/>
<path d="M114.119 248.807C114.148 248.963 114.145 249.124 114.109 249.279C114.073 249.434 114.006 249.579 113.911 249.707C113.816 249.834 113.696 249.941 113.558 250.02C113.42 250.099 113.267 250.149 113.109 250.167C112.038 250.529 110.901 250.887 110.141 251.707C109.382 252.527 109.232 254.049 110.141 254.715C110.606 254.995 111.14 255.14 111.683 255.135C113.429 255.254 115.249 255.231 116.833 254.491C117.966 253.968 119.034 253.074 120.279 253.155C120.922 253.194 121.609 253.494 122.183 253.201C122.757 252.909 122.919 252.092 122.923 251.411C122.938 249.988 122.723 248.571 122.287 247.217C122.229 247.032 119.778 246.889 119.485 246.832L116.513 246.446C115.95 246.373 114.736 245.95 114.293 246.42C113.849 246.889 114.119 248.249 114.119 248.807Z" fill="#FF4F00"/>
<path d="M131.853 239.195C131.979 239.889 132.183 240.566 132.462 241.213C132.875 242.261 133.403 243.374 134.413 243.882C135.33 244.34 136.456 244.175 137.388 243.74C137.778 243.579 138.119 243.32 138.379 242.989C138.68 242.465 138.814 241.862 138.765 241.26C138.765 239.769 138.676 238.229 137.994 236.904C137.408 235.749 136.386 234.755 136.371 233.477L132.859 234.154C132.671 234.172 132.492 234.243 132.343 234.358C132.232 234.476 132.154 234.621 132.119 234.778C131.744 236.219 131.654 237.72 131.853 239.195Z" fill="#FF4F00"/>
<path d="M89.9195 202.609C89.7731 203.849 89.8348 205.178 90.4823 206.249C91.1299 207.319 92.4944 208.028 93.6739 207.6C93.7343 207.585 93.7911 207.557 93.8407 207.52C93.8904 207.482 93.932 207.435 93.963 207.381C93.9944 207.251 93.9765 207.113 93.9129 206.996C93.3922 205.607 93.4351 204.07 94.0324 202.713C94.1095 202.536 94.2752 202.328 94.4564 202.397C94.5322 202.436 94.5931 202.498 94.6298 202.575C94.8164 202.897 94.9098 203.265 94.8997 203.637C94.8453 203.975 94.8349 204.318 94.8688 204.658C94.9421 204.989 95.2967 205.301 95.605 205.159C95.6942 205.104 95.7713 205.032 95.8316 204.946C95.8919 204.861 95.9341 204.764 95.9558 204.662C96.8154 202.178 96.4261 199.463 96.0329 196.863C96.0362 196.804 96.0263 196.744 96.004 196.689C95.9816 196.633 95.9474 196.583 95.9036 196.542C95.8599 196.502 95.8077 196.471 95.7508 196.453C95.6939 196.434 95.6336 196.429 95.5742 196.436C93.7549 196.255 92.7604 195.82 91.7196 197.51C90.8254 198.935 89.9195 200.895 89.9195 202.609Z" fill="#FF4F00"/>
<path d="M111.189 196.29C110.649 198.532 110.106 200.8 110.071 203.103C110.081 204.538 110.189 205.97 110.395 207.389L110.8 210.724C110.938 211.849 111.073 212.97 111.27 214.083C111.395 214.656 111.464 215.24 111.474 215.827C111.436 216.406 111.345 216.979 111.2 217.541C110.958 218.72 110.823 219.919 110.796 221.122C110.753 223.048 110.992 224.973 111.143 226.899C111.443 230.736 111.398 234.592 111.008 238.421C110.852 239.455 111.077 240.51 111.64 241.391C111.868 241.668 112.057 241.977 112.199 242.307C112.488 243.189 111.813 244.071 111.64 244.976C111.529 245.682 111.703 246.403 112.123 246.98C112.544 247.558 113.177 247.945 113.883 248.057C116.967 248.423 120.135 248.257 122.915 249.667C123.207 248.812 122.568 247.841 122.861 246.971C123.046 246.432 123.554 246.081 123.901 245.627C124.367 244.934 124.6 244.111 124.564 243.278C124.578 242.19 124.384 241.109 123.994 240.093C123.666 239.246 123.196 238.41 123.223 237.501C123.223 237.054 123.381 236.584 123.2 236.172C123.076 235.936 122.907 235.725 122.703 235.552C121.551 234.291 120.843 232.689 120.687 230.989C120.536 229.302 120.591 227.603 120.848 225.928C121.037 224.334 121.292 222.651 122.306 221.407C121.835 217.636 122.112 213.808 123.119 210.143C123.219 209.804 123.377 209.411 123.724 209.33C123.862 209.316 124.001 209.335 124.13 209.386C124.259 209.437 124.373 209.518 124.464 209.623C125.069 210.189 125.358 211.009 125.62 211.795C125.91 212.646 126.202 213.555 125.983 214.425C125.89 214.81 125.705 215.149 125.597 215.519C125.363 216.262 125.404 217.064 125.713 217.78C125.864 218.041 125.958 218.331 125.99 218.631C125.955 218.888 125.877 219.138 125.759 219.37C125.616 219.826 125.571 220.306 125.626 220.781C125.681 221.255 125.835 221.713 126.079 222.124C126.57 222.941 127.177 223.685 127.879 224.33C127.544 225.808 127.63 227.351 128.13 228.782C128.166 228.847 128.189 228.918 128.197 228.991C128.206 229.064 128.2 229.139 128.18 229.21C128.111 229.356 127.933 229.41 127.794 229.514C127.409 229.83 127.648 230.427 127.906 230.839C128.614 231.97 129.396 233.053 130.246 234.081C131.017 235.002 130.947 236.777 132.096 237.108C132.579 237.212 133.078 237.212 133.561 237.108C134.694 236.935 135.958 236.608 136.513 235.606C136.741 235.194 136.833 234.694 137.188 234.385C137.543 234.077 138.001 234.023 138.198 233.654C138.395 233.284 138.175 232.799 138.24 232.371C138.306 231.944 138.68 231.601 138.799 231.151C139.085 230.111 137.87 229.256 137.705 228.193C137.466 226.652 139.408 225.497 139.327 223.957C139.158 220.61 139.05 217.248 138.876 213.902C138.659 210.904 138.628 207.895 138.784 204.894C138.919 203.026 139.169 201.07 138.483 199.333C137.496 196.884 134.775 195.509 132.142 195.247C129.51 194.985 126.885 195.609 124.275 196.017C119.944 196.684 115.544 196.776 111.189 196.29Z" fill="#3F3D56"/>
<path d="M119.013 159.481C122.424 159.481 125.188 156.719 125.188 153.312C125.188 149.905 122.424 147.143 119.013 147.143C115.603 147.143 112.838 149.905 112.838 153.312C112.838 156.719 115.603 159.481 119.013 159.481Z" fill="#FBBEBE"/>
<path d="M116.501 160.633C116.291 161.121 115.938 161.534 115.489 161.818C115.04 162.102 114.515 162.243 113.984 162.223C113.76 163.148 114.296 164.08 114.909 164.807C116.181 166.287 117.826 167.401 119.673 168.034C121.52 168.667 123.503 168.796 125.416 168.408C126.161 168.275 126.868 167.981 127.486 167.546C128.32 166.85 128.88 165.881 129.067 164.811C129.244 163.749 129.295 162.67 129.217 161.596C129.239 161.384 129.178 161.171 129.047 161.003C128.893 160.883 128.703 160.821 128.508 160.825C127.205 160.71 125.844 160.66 124.699 160.021C123.555 159.381 122.741 157.937 123.292 156.751C123.204 156.936 120.953 157.024 120.656 157.063C119.727 157.194 118.798 157.34 117.873 157.51C117.428 157.534 116.989 157.617 116.566 157.756C116.007 158.045 116.215 157.902 116.347 158.426C116.543 159.227 116.832 159.801 116.501 160.633Z" fill="#FBBEBE"/>
<path d="M121.2 164.384C120.368 164.394 119.539 164.302 118.729 164.111C117.912 163.92 117.192 163.44 116.702 162.759C116.417 162.327 116.232 161.784 115.777 161.542C115.033 161.157 114.185 161.808 113.591 162.404C113.051 162.993 112.424 163.497 111.733 163.899C110.908 164.334 109.945 164.488 109.166 165C108.558 165.459 108.036 166.023 107.624 166.664L102.162 174.096C99.9691 177.085 98.0611 180.293 96.1068 183.447C94.4146 186.177 93.5281 189.32 92.2522 192.266C92.1511 192.446 92.1094 192.654 92.1327 192.859C92.179 193.059 92.4218 193.221 92.5914 193.105C92.0171 193.675 92.522 194.646 92.3871 195.447C92.2338 196.007 91.9139 196.508 91.4697 196.883C92.3181 196.773 93.1794 196.813 94.0137 197.003C94.876 197.247 95.6897 197.638 96.419 198.158C96.8854 198.085 96.843 197.257 97.1899 196.949C97.3981 196.768 97.7064 196.791 97.9801 196.737C99.0093 196.537 99.4179 195.301 100.208 194.603C100.867 194.022 101.8 193.833 102.498 193.286C103.631 192.397 103.874 190.814 104.467 189.501C104.972 188.388 105.766 187.417 106.21 186.277C106.499 185.538 106.637 184.737 107.05 184.055C107.709 182.954 108.95 182.369 110.134 181.841C110.881 181.506 111.675 181.159 112.481 181.213C112.439 183.004 112.211 184.768 112.601 186.516C112.735 187.132 112.924 187.733 113.086 188.345C113.822 191.103 113.996 193.976 114.031 196.818C115.802 196.413 117.61 196.196 119.427 196.171C120.857 196.129 122.283 196.313 123.713 196.286C125.409 196.256 127.086 195.928 128.782 195.813C130.478 195.697 132.251 195.813 133.751 196.583C133.629 194.142 133.697 191.696 133.955 189.266L134.363 185.438C134.456 184.326 134.627 183.221 134.876 182.134C135.1 181.256 135.423 180.408 135.67 179.534C136.537 176.453 136.379 173.164 136.214 169.956C136.129 168.308 135.493 166.687 134.745 165.22C134.474 164.675 134.165 164.15 133.82 163.648C132.916 162.404 131.712 161.41 130.32 160.756C128.927 160.103 127.392 159.813 125.856 159.913C125.66 159.919 125.467 159.961 125.286 160.036C124.961 160.244 124.706 160.546 124.557 160.903C123.76 162.335 122.603 163.534 121.2 164.384Z" fill="#3F3D56"/>
<path d="M113.583 155.357C113.757 154.972 114.223 154.829 114.508 154.521C115.055 153.936 114.809 153 114.894 152.21C115.032 151.055 115.992 150.088 117.091 149.676C118.211 149.317 119.403 149.242 120.56 149.457C121.117 149.497 121.654 149.676 122.125 149.977C122.325 150.123 122.51 150.312 122.699 150.447C123.043 150.654 123.455 150.72 123.847 150.628C124.239 150.537 124.579 150.296 124.796 149.957C123.431 148.317 121.92 146.584 119.847 146.079C119.135 145.934 118.41 145.866 117.684 145.875C116.725 145.856 115.734 145.841 114.847 146.207C113.641 146.703 112.793 147.847 112.357 149.079C111.976 150.329 111.773 151.625 111.752 152.931C111.673 153.802 111.673 154.678 111.752 155.549C111.901 156.739 112.344 157.873 113.04 158.85C113.134 159.001 113.267 159.125 113.425 159.208C115.183 159.978 113.44 155.676 113.583 155.357Z" fill="#3F3D56"/>
<path d="M124.595 149.007C124.383 147.193 123.088 145.695 121.712 144.489C120.603 143.444 119.282 142.649 117.838 142.159C116.385 141.732 114.712 141.824 113.467 142.691C112.465 143.388 111.829 144.497 111.339 145.614C110.696 146.932 110.378 148.384 110.41 149.85C110.507 151.306 111.216 152.781 112.48 153.516C112.935 152.846 113.725 152.499 114.485 152.226C117.794 150.971 121.169 149.897 124.595 149.007Z" fill="#FED253"/>
<path opacity="0.1" d="M112.905 148.251C113.028 148.251 113.109 148.378 113.171 148.482C113.485 148.971 113.755 149.486 113.977 150.023C113.526 150.119 112.751 150.227 112.527 149.83C112.407 149.63 112.55 148.232 112.905 148.251Z" fill="black"/>
<path opacity="0.1" d="M121.689 147.381C121.597 147.47 121.489 147.289 121.489 147.158V145.664C121.486 145.622 121.496 145.581 121.516 145.544C121.532 145.526 121.551 145.511 121.573 145.5C121.595 145.49 121.619 145.484 121.643 145.483C121.956 145.448 122.214 145.714 122.414 145.968C122.719 146.38 122.983 146.819 123.205 147.281L121.574 147.231" fill="black"/>
<path d="M142.038 172.125C142.392 171.789 142.771 171.478 143.171 171.197C144.239 170.484 145.53 170.203 146.729 169.749C147.927 169.294 149.145 168.559 149.612 167.365C149.845 166.618 149.921 165.832 149.835 165.054C149.847 164.729 149.789 164.405 149.666 164.103C149.519 163.837 149.31 163.609 149.057 163.441C147.43 162.239 145.249 162.143 143.229 162.266C138.776 162.542 134.411 163.631 130.351 165.478C130.136 165.549 129.948 165.683 129.811 165.863C129.732 166.03 129.696 166.214 129.707 166.398C129.635 167.534 129.783 168.673 130.142 169.753C130.674 171.124 131.769 172.229 132.228 173.627C132.436 174.255 132.505 174.921 132.686 175.552C132.835 176.205 133.221 176.778 133.77 177.162C135.292 178.071 136.73 176.85 137.786 175.903L142.038 172.125Z" fill="#3F3D56"/>
<path d="M122.098 177.458L120.143 173.199C119.857 172.609 119.61 172 119.403 171.377C119.18 170.634 119.072 169.864 118.864 169.117C118.178 166.629 116.447 164.557 115.603 162.119C115.549 161.899 115.441 161.697 115.287 161.53C115.163 161.443 115.023 161.384 114.874 161.358C114.725 161.331 114.573 161.337 114.427 161.376C113.248 161.58 112.326 162.478 111.247 162.986C110.746 163.217 110.206 163.371 109.705 163.637C109.455 163.755 109.233 163.926 109.055 164.138C108.876 164.35 108.746 164.598 108.672 164.865C108.553 165.454 108.846 166.021 109.092 166.594C110.141 168.959 110.38 171.601 110.426 174.189C110.461 175.929 110.372 177.797 109.343 179.195C107.365 181.891 108.63 185.85 109.37 189.112C109.459 189.497 109.563 189.913 109.624 190.321C109.689 190.832 109.719 191.346 109.713 191.861C109.713 193.591 109.617 195.374 108.892 196.941C109.607 197.321 110.396 197.544 111.205 197.596C113.443 197.881 115.69 198.081 117.946 198.196C118.653 198.263 119.366 198.227 120.062 198.089C120.89 197.865 121.619 197.373 122.134 196.69C122.65 196.006 122.924 195.17 122.911 194.315C123.034 195.381 123.262 196.54 124.037 197.28C124.811 198.019 125.941 198.131 126.993 198.189C129.963 198.346 132.941 198.262 135.897 197.938C136.086 197.93 136.271 197.887 136.444 197.811C137.015 197.526 137.046 196.741 137 196.109C136.915 194.927 136.826 193.745 136.683 192.57C136.563 191.821 136.501 191.064 136.498 190.306C136.557 189.525 136.686 188.752 136.884 187.995C137.4 185.592 137.809 183.139 137.636 180.678C137.567 180.078 137.542 179.475 137.562 178.872C137.662 177.512 138.379 176.218 138.245 174.867C137.859 170.892 137.547 166.814 136.437 162.978C136.236 162.293 135.982 161.557 135.384 161.164C134.614 160.648 133.53 160.918 132.648 160.591C132.234 160.398 131.84 160.164 131.472 159.894C130.673 159.394 129.758 159.113 128.816 159.077C128.107 159.05 127.317 159.208 126.889 159.778C126.691 160.099 126.56 160.457 126.503 160.829C125.945 163.178 125.289 165.501 124.634 167.823L124.006 170.049L122.321 176.026C122.156 176.661 122.267 176.858 122.098 177.458Z" fill="#FF4F00"/>
<path d="M131.953 154.14L169.239 193.286V196.606H152.614L124.595 160.07" fill="#F1C0C0"/>
<path opacity="0.1" d="M131.953 154.14L169.239 193.286V196.606H152.614L124.595 160.07" fill="black"/>
<path opacity="0.1" d="M125.189 159.555L125.308 159.597L152.853 193.286H169.239V196.606H152.614L124.595 160.071L125.189 159.555Z" fill="black"/>
<path d="M129.479 160.379C128.13 160.968 126.63 161.723 126.226 163.14C126.146 163.389 126.128 163.653 126.175 163.91C126.274 164.212 126.462 164.478 126.715 164.671C126.967 164.864 127.272 164.976 127.59 164.992C128.225 165.008 128.856 164.892 129.444 164.654L137.404 162.027C137.62 161.958 137.866 161.854 137.92 161.642C137.934 161.509 137.907 161.375 137.843 161.257C137.597 160.656 137.354 159.428 136.837 159.008C136.413 158.669 135.573 158.788 135.06 158.796C133.087 158.812 131.233 159.609 129.479 160.379Z" fill="#FF4F00"/>
<path d="M136.575 162.339C137.916 162.335 139.249 162.541 140.526 162.951C141.809 163.367 142.944 164.142 143.799 165.185C144.047 165.476 144.224 165.822 144.315 166.194C144.392 166.579 145.649 166.81 145.371 167.072C146.215 166.937 146.015 167.334 146.871 167.326C147.726 167.318 148.652 167.099 149.164 166.417C149.52 165.857 149.679 165.194 149.615 164.534C149.626 164.077 149.54 163.622 149.361 163.201C148.975 162.393 148.089 161.957 147.272 161.584L140.387 158.437C139.988 158.225 139.559 158.073 139.115 157.987C138.742 157.952 138.365 157.961 137.994 158.014L134.875 158.372C135.557 158.813 136.112 159.424 136.486 160.144C136.86 160.865 137.039 161.67 137.007 162.481" fill="#3F3D56"/>
</g>
<defs>
<clipPath id="clip0_1201_10663">
<rect width="454" height="279" fill="white"/>
</clipPath>
</defs>
</svg>
