<svg width="900" height="240" viewBox="0 0 900 240" fill="none" xmlns="http://www.w3.org/2000/svg">
<path d="M674.673 79.97C680.622 71.35 687.982 64.23 696.462 58.33C698.552 56.88 701.252 54.65 704.892 56.58C717.002 62.83 735.532 55.7001 735.062 37.08C734.802 24.27 724.532 16.62 714.172 16.48C700.992 16.35 691.712 28.42 694.662 41.8C695.342 45.12 695.172 47.13 691.922 48.62C684.342 52.07 679.172 58.54 673.693 64.53C662.393 76.86 653.883 90.9 651.393 107.9C651.223 109.39 650.923 110.62 650.493 111.58H638.513V236.88H687.642C694.962 236.88 700.782 236.27 705.102 234.96C709.382 233.69 713.442 231.42 717.212 228.18C724.962 221.36 728.812 212.27 728.812 200.81C728.812 185.9 722.262 175.5 709.122 169.68C718.192 162.73 722.692 153.94 722.692 143.45C722.692 122.2 709.462 111.58 683.062 111.58H661.113C661.113 111.1 661.243 110.53 661.413 109.87C664.193 99.07 668.433 89.06 674.673 79.97ZM674.972 145.2H681.732C687.772 145.2 690.812 147.34 690.812 151.71C690.812 156.39 687.432 158.75 680.752 158.75H674.972V145.2ZM674.972 191.8L680.752 192.2H687.732C693.842 192.2 696.932 194.21 696.932 198.23C696.932 200.64 696.162 202.3 694.662 203.26C693.162 204.18 690.592 204.66 686.912 204.66H680.752C678.052 204.66 676.212 204.48 674.972 204.22V191.8Z" fill="#FEAA00"/>
<path d="M808.962 160.33V188.24H785.152C781.922 188.24 779.622 188.73 778.272 189.71C776.922 190.69 776.252 192.34 776.252 194.67C776.252 197.3 776.942 199.03 778.322 199.86C779.692 200.69 782.512 201.1 786.762 201.1H811.292V236.91H782.632C769.152 236.91 758.852 233.62 751.722 227.04C744.592 220.46 741.032 210.96 741.032 198.54V149.42C741.032 137.42 744.402 128.12 751.142 121.51C757.882 114.9 767.362 111.59 779.582 111.59H811.302V147.58H788.032C781.742 147.58 778.592 149.66 778.592 153.82C778.592 156.27 779.342 157.97 780.842 158.92C782.342 159.87 785.002 160.34 788.842 160.34H808.972L808.962 160.33Z" fill="#FEAA00"/>
<path d="M897.661 160.33V188.24H873.851C870.621 188.24 868.321 188.73 866.971 189.71C865.621 190.69 864.951 192.34 864.951 194.67C864.951 197.3 865.641 199.03 867.021 199.86C868.391 200.69 871.211 201.1 875.461 201.1H899.991V236.91H871.331C857.851 236.91 847.551 233.62 840.421 227.04C833.291 220.46 829.731 210.96 829.731 198.54V149.42C829.731 137.42 833.101 128.12 839.841 121.51C846.581 114.9 856.061 111.59 868.281 111.59H900.001V147.58H876.731C870.441 147.58 867.291 149.66 867.291 153.82C867.291 156.27 868.041 157.97 869.541 158.92C871.041 159.87 873.701 160.34 877.541 160.34H897.671L897.661 160.33Z" fill="#FEAA00"/>
<path d="M584.864 153.82C584.864 156.26 585.613 157.98 587.113 158.93C588.573 159.87 591.273 160.33 595.113 160.33H615.213V188.22H591.403C588.173 188.22 585.873 188.72 584.554 189.71C583.184 190.71 582.524 192.33 582.524 194.68C582.524 197.3 583.184 199.01 584.593 199.87C585.963 200.68 588.753 201.09 593.033 201.09H617.553V236.89H588.883C575.404 236.89 565.114 233.59 557.994 227.04C550.844 220.45 547.304 210.93 547.304 198.51V149.4C547.304 137.39 550.664 128.09 557.384 121.5C564.144 114.87 573.594 111.57 585.834 111.57H596.873C596.843 111.18 596.763 110.73 596.643 110.22C590.473 82.7999 575.974 60.9999 554.124 44.1899C550.134 41.1299 545.694 38.5999 541.394 35.9799C539.724 34.9599 537.954 34.9299 536.254 36.4399C529.824 42.1799 519.244 43.7299 512.594 39.9799C504.974 35.6799 500.474 26.2599 501.734 17.2899C503.204 6.68994 510.664 0.379942 521.174 0.0199422C530.684 -0.310058 537.404 3.46994 541.454 12.1699C542.294 14.0099 543.034 15.9799 542.544 18.0499C541.484 22.5799 543.644 25.0399 547.334 27.1399C565.114 37.2899 579.484 51.1199 590.603 68.6199C598.793 81.5599 604.293 95.5099 607.183 110.52C607.253 110.91 607.333 111.26 607.423 111.57H617.553V147.55H594.273C588.004 147.55 584.864 149.63 584.864 153.82Z" fill="#201515"/>
<path d="M82.2691 195.94C77.6691 200.68 71.5292 203.03 63.7993 203.03C56.0694 203.03 49.8794 200.32 44.9295 194.99C39.9396 189.62 37.4596 182.85 37.4596 174.63C37.4596 166.41 39.9796 159.15 45.0595 153.64C50.0994 148.13 56.5494 145.38 64.3193 145.38C73.8192 145.38 80.9291 149.49 85.709 157.7L104.269 121.5C93.359 112.79 80.3191 108.45 65.2093 108.45C46.8295 108.45 31.3597 114.82 18.8198 127.55C6.26993 140.28 0 155.99 0 174.63C0 193.27 6.13993 208.71 18.4698 221.22C30.7497 233.77 46.0895 240 64.3293 240C82.5691 240 96.8889 234.49 108.069 223.48C108.509 223.07 108.909 222.62 109.219 222.22L86.199 190.62C85.0991 192.61 83.7691 194.41 82.2691 195.95V195.94Z" fill="#201515"/>
<path d="M219.418 127.82C206.998 114.91 192.108 108.45 174.748 108.45C156.408 108.45 140.898 114.82 128.219 127.55C115.539 140.28 109.219 155.81 109.219 174.18C109.219 192.55 115.489 207.9 128.089 220.72C140.678 233.59 155.878 240 173.638 240C191.398 240 206.778 233.64 219.278 220.81C231.827 208.03 238.057 192.51 238.057 174.18C238.057 155.85 231.867 140.73 219.408 127.82H219.418ZM192.818 194.63C187.608 200.23 181.198 203.03 173.638 203.03C166.078 203.03 159.848 200.19 154.548 194.59C149.248 188.95 146.598 182.13 146.598 174.19C146.598 166.25 149.248 159.43 154.508 153.83C159.768 148.19 166.168 145.39 173.638 145.39C181.108 145.39 187.598 148.19 192.818 153.79C198.078 159.39 200.678 166.2 200.678 174.19C200.678 182.18 198.068 189.04 192.818 194.64V194.63Z" fill="#201515"/>
<path d="M304.957 111.57V191.56C304.957 199.19 302.347 203.03 297.227 203.03C292.107 203.03 289.227 199.19 289.227 191.56V111.57H252.727V191.65C252.727 207.22 256.397 219.19 263.727 227.54C271.057 235.85 281.667 240 295.497 240C309.327 240 320.507 235.71 328.897 227.18C337.247 218.6 341.397 207.14 341.397 192.83V111.58H304.947L304.957 111.57Z" fill="#201515"/>
<path d="M525.175 145.38C526.635 145.38 528.665 145.83 531.315 146.73V111.02C526.455 109.3 521.505 108.45 516.465 108.45C505.025 108.45 495.165 112.74 486.945 121.27C478.685 129.8 474.575 139.96 474.575 151.79C474.575 161.59 477.315 171.38 482.745 181.18C486.195 187.36 487.875 191.34 487.875 193.19C487.875 196.03 486.815 198.34 484.695 200.23C482.575 202.08 479.925 203.03 476.745 203.03C474.045 203.03 470.955 201.9 467.515 199.6V235.89C473.255 238.64 479.045 240 484.925 240C497.165 240 507.505 235.8 515.985 227.36C524.465 218.92 528.715 208.58 528.715 196.39C528.715 188.08 526.195 179.46 521.155 170.52L518.375 165.55C516.215 161.71 515.145 158.51 515.145 155.98C515.145 153.05 516.115 150.56 518.105 148.49C520.045 146.41 522.435 145.38 525.175 145.38Z" fill="#201515"/>
<path d="M440.425 185.2C451.295 176.54 456.725 165.83 456.725 153.15C456.725 140.47 452.355 130.5 443.585 122.41C435.755 115.15 424.675 111.57 410.415 111.57H363.596V236.87H400.056V196.78L405.445 196.47L423.165 236.87H461.425L440.415 185.19L440.425 185.2ZM408.325 164.3H400.066V145.28H406.565C415.425 145.28 419.875 148.21 419.875 154.2C419.875 160.89 416.025 164.3 408.325 164.3Z" fill="#201515"/>
</svg>
