<svg width="18" height="30" viewBox="0 0 18 30" fill="none" xmlns="http://www.w3.org/2000/svg">
<path d="M10.0671 7.78V8.49H9.01711V14H8.24711C8.05378 13.6067 7.81378 13.2633 7.52711 12.97C7.24044 12.67 6.93378 12.4133 6.60711 12.2L6.85711 11.54C7.11044 11.6867 7.37378 11.8867 7.64711 12.14C7.92044 12.3933 8.13044 12.65 8.27711 12.91C8.27044 12.81 8.26378 12.7167 8.25711 12.63C8.25711 12.5433 8.25378 12.4533 8.24711 12.36C8.24711 12.2667 8.24711 12.1667 8.24711 12.06V8.49H0.937109V7.78H10.0671ZM4.79711 13.09C4.34378 13.09 3.91044 12.9833 3.49711 12.77C3.08378 12.5567 2.69378 12.1967 2.32711 11.69C1.96711 11.1767 1.63378 10.4733 1.32711 9.58L2.05711 9.34C2.29711 10.0333 2.54711 10.6033 2.80711 11.05C3.07378 11.49 3.37044 11.8133 3.69711 12.02C4.02378 12.2267 4.39711 12.33 4.81711 12.33C5.18378 12.33 5.47711 12.2733 5.69711 12.16C5.92378 12.04 6.08711 11.88 6.18711 11.68C6.28711 11.4733 6.33711 11.2467 6.33711 11C6.33711 10.6133 6.23044 10.3 6.01711 10.06C5.81044 9.82 5.55044 9.7 5.23711 9.7C5.01711 9.7 4.85044 9.75 4.73711 9.85C4.62378 9.94333 4.56711 10.0867 4.56711 10.28C4.56711 10.3267 4.57378 10.39 4.58711 10.47C4.60044 10.55 4.62044 10.6233 4.64711 10.69L3.88711 10.84C3.84044 10.7 3.80378 10.5733 3.77711 10.46C3.75711 10.34 3.74711 10.2267 3.74711 10.12C3.74711 9.87333 3.81378 9.66667 3.94711 9.5C4.08711 9.33333 4.26378 9.21 4.47711 9.13C4.69711 9.04333 4.92711 9 5.16711 9C5.56044 9 5.90044 9.09 6.18711 9.27C6.47378 9.44333 6.69711 9.68333 6.85711 9.99C7.01711 10.2967 7.09711 10.6533 7.09711 11.06C7.09711 11.42 7.01378 11.7567 6.84711 12.07C6.68044 12.3767 6.42711 12.6233 6.08711 12.81C5.74711 12.9967 5.31711 13.09 4.79711 13.09ZM4.47711 9.35C4.44378 9.13667 4.34378 8.95 4.17711 8.79C4.01711 8.62333 3.78044 8.50667 3.46711 8.44L3.70711 7.99L4.15711 8.11C4.53711 8.25667 4.81044 8.42333 4.97711 8.61C5.14378 8.79667 5.24044 9.03333 5.26711 9.32L4.47711 9.35Z" fill="#666666"/>
<path d="M11.3001 24H10.3768L13.0472 16.7273H13.9563L16.6268 24H15.7035L13.5302 17.8778H13.4734L11.3001 24ZM11.641 21.1591H15.3626V21.9403H11.641V21.1591Z" fill="#666666"/>
</svg>
