<svg width="491" height="182" viewBox="0 0 491 182" fill="none" xmlns="http://www.w3.org/2000/svg">
<path d="M70.6442 182C47.9462 182 30.5832 177.441 18.5552 168.323C6.72124 159.205 0.804239 147.177 0.804239 132.239C0.804239 121.375 4.68424 111.966 12.4442 104.012C20.3982 95.864 32.9112 88.88 49.9832 83.06L49.6922 92.372C39.2162 87.522 30.5832 82.963 23.7932 78.695C17.0032 74.427 11.9592 69.674 8.66124 64.436C5.55724 59.004 4.00524 52.602 4.00524 45.23C4.00524 37.276 6.52724 30.001 11.5712 23.405C16.8092 16.615 24.1812 11.183 33.6872 7.109C43.3872 3.03499 55.1242 0.997989 68.8982 0.997989C85.9702 0.997989 99.4532 3.13199 109.347 7.39999C119.435 11.474 126.613 16.809 130.881 23.405C135.343 29.807 137.574 36.5 137.574 43.484C137.574 51.826 135.634 58.81 131.754 64.436C127.874 70.062 122.539 74.815 115.749 78.695C109.153 82.575 101.781 86.067 93.6332 89.171L92.4692 82.187C107.601 87.425 119.435 93.73 127.971 101.102C136.507 108.28 140.775 118.562 140.775 131.948C140.775 148.632 134.761 161.145 122.733 169.487C110.705 177.829 93.3422 182 70.6442 182ZM70.6442 157.847C85.3882 157.847 96.0582 155.422 102.654 150.572C109.444 145.528 112.839 138.835 112.839 130.493C112.839 124.867 110.802 119.92 106.728 115.652C102.654 111.384 97.3192 107.795 90.7232 104.885C84.3212 101.975 77.6282 99.841 70.6442 98.483C56.8702 101.975 46.4912 106.437 39.5072 111.869C32.5232 117.107 29.0312 123.703 29.0312 131.657C29.0312 139.029 32.4262 145.237 39.2162 150.281C46.2002 155.325 56.6762 157.847 70.6442 157.847ZM70.9352 74.912C77.3372 73.36 83.4482 71.226 89.2682 68.51C95.0882 65.794 99.8412 62.593 103.527 58.907C107.407 55.027 109.347 50.759 109.347 46.103C109.347 39.895 105.952 34.851 99.1622 30.971C92.5662 27.091 82.6722 25.151 69.4802 25.151C62.8842 25.151 56.7732 25.927 51.1472 27.479C45.5212 29.031 40.9622 31.359 37.4702 34.463C33.9782 37.567 32.2322 41.447 32.2322 46.103C32.2322 52.699 35.2392 58.325 41.2532 62.981C47.2672 67.443 57.1612 71.42 70.9352 74.912ZM243.96 156.392C231.35 156.392 220.001 154.064 209.913 149.408C200.019 144.558 192.162 137.283 186.342 127.583C180.716 117.689 177.903 105.273 177.903 90.335C177.903 78.889 180.231 68.122 184.887 58.034C189.737 47.752 197.206 39.313 207.294 32.717C217.576 26.121 230.671 22.823 246.579 22.823C262.681 22.823 275.582 25.83 285.282 31.844C294.982 37.858 301.966 45.909 306.234 55.997C310.696 65.891 312.927 77.046 312.927 89.462C312.927 101.102 310.405 112.063 305.361 122.345C300.511 132.433 293.042 140.678 282.954 147.08C272.866 153.288 259.868 156.392 243.96 156.392ZM247.161 46.976C239.207 46.976 232.126 48.722 225.918 52.214C219.904 55.512 215.054 60.556 211.368 67.346C207.876 73.942 206.13 81.993 206.13 91.499C206.13 99.065 207.391 105.952 209.913 112.16C212.435 118.368 216.412 123.315 221.844 127.001C227.47 130.493 234.842 132.239 243.96 132.239C252.302 132.239 259.577 130.396 265.785 126.71C271.993 123.024 276.649 117.883 279.753 111.287C283.051 104.691 284.7 96.834 284.7 87.716C284.7 79.18 283.245 71.905 280.335 65.891C277.619 59.683 273.448 55.027 267.822 51.923C262.39 48.625 255.503 46.976 247.161 46.976ZM420.185 182C397.487 182 380.124 177.441 368.096 168.323C356.262 159.205 350.345 147.177 350.345 132.239C350.345 121.375 354.225 111.966 361.985 104.012C369.939 95.864 382.452 88.88 399.524 83.06L399.233 92.372C388.757 87.522 380.124 82.963 373.334 78.695C366.544 74.427 361.5 69.674 358.202 64.436C355.098 59.004 353.546 52.602 353.546 45.23C353.546 37.276 356.068 30.001 361.112 23.405C366.35 16.615 373.722 11.183 383.228 7.109C392.928 3.03499 404.665 0.997989 418.439 0.997989C435.511 0.997989 448.994 3.13199 458.888 7.39999C468.976 11.474 476.154 16.809 480.422 23.405C484.884 29.807 487.115 36.5 487.115 43.484C487.115 51.826 485.175 58.81 481.295 64.436C477.415 70.062 472.08 74.815 465.29 78.695C458.694 82.575 451.322 86.067 443.174 89.171L442.01 82.187C457.142 87.425 468.976 93.73 477.512 101.102C486.048 108.28 490.316 118.562 490.316 131.948C490.316 148.632 484.302 161.145 472.274 169.487C460.246 177.829 442.883 182 420.185 182ZM420.185 157.847C434.929 157.847 445.599 155.422 452.195 150.572C458.985 145.528 462.38 138.835 462.38 130.493C462.38 124.867 460.343 119.92 456.269 115.652C452.195 111.384 446.86 107.795 440.264 104.885C433.862 101.975 427.169 99.841 420.185 98.483C406.411 101.975 396.032 106.437 389.048 111.869C382.064 117.107 378.572 123.703 378.572 131.657C378.572 139.029 381.967 145.237 388.757 150.281C395.741 155.325 406.217 157.847 420.185 157.847ZM420.476 74.912C426.878 73.36 432.989 71.226 438.809 68.51C444.629 65.794 449.382 62.593 453.068 58.907C456.948 55.027 458.888 50.759 458.888 46.103C458.888 39.895 455.493 34.851 448.703 30.971C442.107 27.091 432.213 25.151 419.021 25.151C412.425 25.151 406.314 25.927 400.688 27.479C395.062 29.031 390.503 31.359 387.011 34.463C383.519 37.567 381.773 41.447 381.773 46.103C381.773 52.699 384.78 58.325 390.794 62.981C396.808 67.443 406.702 71.42 420.476 74.912Z" fill="#EBEEF3"/>
</svg>
