<svg width="32" height="32" viewBox="0 0 32 32" fill="none" xmlns="http://www.w3.org/2000/svg">
<rect width="32" height="32" rx="9.404" fill="#0966C2"/>
<path d="M8 10.1509C8 9.63786 8.18019 9.21458 8.54054 8.8811C8.9009 8.5476 9.36937 8.38086 9.94595 8.38086C10.5122 8.38086 10.9704 8.54503 11.3205 8.8734C11.6808 9.21203 11.861 9.65326 11.861 10.1971C11.861 10.6897 11.686 11.1001 11.3359 11.4285C10.9756 11.7671 10.5019 11.9364 9.91506 11.9364H9.89961C9.33333 11.9364 8.87517 11.7671 8.5251 11.4285C8.17503 11.0899 8 10.664 8 10.1509ZM8.20077 23.6189V13.3371H11.6293V23.6189H8.20077ZM13.529 23.6189H16.9575V17.8777C16.9575 17.5186 16.9987 17.2415 17.0811 17.0466C17.2252 16.6977 17.444 16.4027 17.7375 16.1615C18.0309 15.9204 18.399 15.7998 18.8417 15.7998C19.9949 15.7998 20.5714 16.5745 20.5714 18.124V23.6189H24V17.7238C24 16.2051 23.6396 15.0533 22.9189 14.2683C22.1982 13.4833 21.2458 13.0908 20.0618 13.0908C18.7336 13.0908 17.6988 13.6603 16.9575 14.7993V14.8301H16.9421L16.9575 14.7993V13.3371H13.529C13.5495 13.6654 13.5598 14.6864 13.5598 16.4001C13.5598 18.1137 13.5495 20.52 13.529 23.6189Z" fill="white"/>
</svg>
