<svg width="64" height="64" viewBox="0 0 64 64" fill="none" xmlns="http://www.w3.org/2000/svg">
<rect width="64" height="64" rx="12" fill="#FF4363"/>
<path opacity="0.35" d="M32 44C38.6274 44 44 38.6274 44 32C44 25.3726 38.6274 20 32 20C25.3726 20 20 25.3726 20 32C20 38.6274 25.3726 44 32 44Z" fill="white"/>
<path d="M32 19C24.8318 19 19 24.8318 19 32C19 39.1682 24.8318 45 32 45C39.1682 45 45 39.1682 45 32C45 24.8318 39.1682 19 32 19ZM42.3103 30.7H38.4701C38.3258 27.5254 37.6589 24.7499 36.6293 22.6998C39.6739 24.2221 41.8683 27.1887 42.3103 30.7ZM32 42.4C30.5219 42.4 28.4237 38.8939 28.1364 33.3H35.8649C35.5763 38.8939 33.4781 42.4 32 42.4ZM28.1364 30.7C28.4237 25.1061 30.5219 21.6 32 21.6C33.4781 21.6 35.5763 25.1061 35.8636 30.7H28.1364ZM27.372 22.6998C26.3424 24.7499 25.6742 27.5254 25.5312 30.7H21.6897C22.1317 27.1887 24.3261 24.2221 27.372 22.6998ZM21.6897 33.3H25.5299C25.6742 36.4746 26.3411 39.2501 27.3707 41.3002C24.3261 39.7779 22.1317 36.8113 21.6897 33.3ZM36.628 41.3002C37.6576 39.2501 38.3245 36.4759 38.4688 33.3H42.309C41.8683 36.8113 39.6739 39.7779 36.628 41.3002Z" fill="white"/>
</svg>
