<svg width="64" height="64" viewBox="0 0 64 64" fill="none" xmlns="http://www.w3.org/2000/svg">
<rect width="64" height="64" rx="12" fill="#FF4F00"/>
<path fill-rule="evenodd" clip-rule="evenodd" d="M47.5461 39.9061L42.7083 34.8379C42.9629 36.3541 42.477 38.1339 41.2567 39.4124C39.8923 40.8417 37.9272 41.3171 36.3869 40.8112C36.1178 41.3506 35.7192 41.8398 35.2349 42.2466L40.2734 47.5251C41.1229 48.415 42.576 47.9944 42.8683 46.7723L43.3309 44.8325C43.533 43.9838 44.1658 43.3209 44.976 43.1091L46.8276 42.6245C47.9941 42.3183 48.3956 40.796 47.5461 39.9061Z" fill="white"/>
<path fill-rule="evenodd" clip-rule="evenodd" d="M16.4538 39.9051L21.2916 34.8369C21.0371 36.3531 21.5229 38.1329 22.7433 39.4114C24.1076 40.8407 26.0727 41.3161 27.6131 40.8102C27.8822 41.3497 28.2807 41.8388 28.7651 42.2457L23.7265 47.5241C22.8771 48.414 21.424 47.9935 21.1316 46.7714L20.6691 44.8316C20.4669 43.9828 19.8342 43.3199 19.024 43.1081L17.1724 42.6236C16.0058 42.3173 15.6044 40.795 16.4538 39.9051Z" fill="white"/>
<path opacity="0.55" fill-rule="evenodd" clip-rule="evenodd" d="M27.6132 18.6179C28.3608 17.12 30.0714 16 32.0001 16C33.9288 16 35.6394 17.12 36.387 18.6179C37.9259 18.112 39.8924 18.5874 41.2568 20.0168C42.6212 21.4461 43.075 23.5047 42.5921 25.1185C44.0219 25.9017 45.091 27.6937 45.091 29.7143C45.091 31.7348 44.0219 33.5268 42.5921 34.31C43.075 35.9222 42.6212 37.9824 41.2568 39.4118C39.8924 40.8411 37.9274 41.3165 36.387 40.8106C35.6394 42.3085 33.9288 43.4285 32.0001 43.4285C30.0714 43.4285 28.3608 42.3085 27.6132 40.8106C26.0743 41.3165 24.1077 40.8411 22.7434 39.4118C21.379 37.9824 20.9252 35.9238 21.4081 34.31C19.9783 33.5268 18.9092 31.7348 18.9092 29.7143C18.9092 27.6937 19.9783 25.9017 21.4081 25.1185C20.9252 23.5063 21.379 21.4461 22.7434 20.0168C24.1077 18.5874 26.0728 18.112 27.6132 18.6179Z" fill="white"/>
</svg>
