<svg width="64" height="64" viewBox="0 0 64 64" fill="none" xmlns="http://www.w3.org/2000/svg">
<rect width="64" height="64" rx="12" fill="#FFBA07"/>
<path d="M47.0627 42.5383C46.6035 42.0791 43.9554 39.4311 42.581 38.0566C41.4306 39.8839 39.8834 41.4311 38.0562 42.5815C39.4306 43.9559 42.0786 46.604 42.5378 47.0632C43.7874 48.3128 45.8131 48.3128 47.0627 47.0632C48.3123 45.8135 48.3123 43.7879 47.0627 42.5383Z" fill="white"/>
<path opacity="0.55" d="M30.4002 44.8004C38.3532 44.8004 44.8004 38.3532 44.8004 30.4002C44.8004 22.4472 38.3532 16 30.4002 16C22.4472 16 16 22.4472 16 30.4002C16 38.3532 22.4472 44.8004 30.4002 44.8004Z" fill="white"/>
</svg>
