<svg width="64" height="64" viewBox="0 0 64 64" fill="none" xmlns="http://www.w3.org/2000/svg">
<rect width="64" height="64" rx="12" fill="#FF4F00"/>
<path opacity="0.45" d="M24.8 28.8889C27.8928 28.8889 30.4 26.4513 30.4 23.4444C30.4 20.4376 27.8928 18 24.8 18C21.7072 18 19.2 20.4376 19.2 23.4444C19.2 26.4513 21.7072 28.8889 24.8 28.8889Z" fill="white"/>
<path opacity="0.45" d="M39.1999 28.8889C42.2927 28.8889 44.7999 26.4513 44.7999 23.4444C44.7999 20.4376 42.2927 18 39.1999 18C36.1071 18 33.5999 20.4376 33.5999 23.4444C33.5999 26.4513 36.1071 28.8889 39.1999 28.8889Z" fill="white"/>
<path opacity="0.45" d="M29.6001 35.1113H42.4001C45.4881 35.1113 48.0001 37.5535 48.0001 40.5558C48.0001 43.558 45.4881 46.0002 42.4001 46.0002H29.6001V35.1113Z" fill="white"/>
<path d="M35.2 40.5558C35.2 43.558 32.688 46.0002 29.6 46.0002H21.6C20.064 46.0002 18.656 45.3935 17.648 44.398C16.624 43.418 16 42.0491 16 40.5558C16 37.5535 18.512 35.1113 21.6 35.1113H29.6C31.136 35.1113 32.544 35.718 33.552 36.7135C34.576 37.6935 35.2 39.0624 35.2 40.5558Z" fill="white"/>
</svg>
