<svg width="45" height="44" viewBox="0 0 45 44" fill="none" xmlns="http://www.w3.org/2000/svg">
<g clip-path="url(#clip0_16_813)">
<path d="M33.3701 0H11.3701C5.29498 0 0.370117 4.92487 0.370117 11V33C0.370117 39.0751 5.29498 44 11.3701 44H33.3701C39.4453 44 44.3701 39.0751 44.3701 33V11C44.3701 4.92487 39.4453 0 33.3701 0Z" fill="#FF4F00"/>
<path opacity="0.55" d="M31.6355 12.1555H13.105V30.9987C13.105 32.487 14.6708 33.454 16.0016 32.7893L22.3703 29.6043L28.739 32.7893C30.0697 33.454 31.6355 32.4858 31.6355 30.9987V12.1555Z" fill="white"/>
<path d="M31.0564 10.9973C30.6094 10.9973 14.1311 10.9973 13.684 10.9973C12.7251 10.9973 11.9468 11.7756 11.9468 12.7346C11.9468 13.6935 12.7251 14.4718 13.684 14.4718C14.1311 14.4718 30.6094 14.4718 31.0564 14.4718C32.0154 14.4718 32.7936 13.6935 32.7936 12.7346C32.7936 11.7756 32.0154 10.9973 31.0564 10.9973Z" fill="white"/>
</g>
<defs>
<clipPath id="clip0_16_813">
<rect width="44" height="44" fill="white" transform="translate(0.370117)"/>
</clipPath>
</defs>
</svg>
