<svg width="27" height="27" viewBox="0 0 27 27" fill="none" xmlns="http://www.w3.org/2000/svg">
<path d="M5.81875 16.75L0.25 21.125V1.75C0.25 1.41848 0.3817 1.10054 0.61612 0.86612C0.85054 0.6317 1.16848 0.5 1.5 0.5H20.25C20.5815 0.5 20.8995 0.6317 21.1339 0.86612C21.3683 1.10054 21.5 1.41848 21.5 1.75V16.75H5.81875ZM4.95375 14.25H19V3H2.75V15.9813L4.95375 14.25ZM9 19.25H21.7962L24 20.9813V8H25.25C25.5815 8 25.8995 8.1317 26.1339 8.3661C26.3683 8.6005 26.5 8.9185 26.5 9.25V26.125L20.9312 21.75H10.25C9.9185 21.75 9.6005 21.6183 9.3661 21.3839C9.1317 21.1495 9 20.8315 9 20.5V19.25Z" fill="#201515"/>
</svg>
