<svg width="24" height="26" viewBox="0 0 24 26" fill="none" xmlns="http://www.w3.org/2000/svg">
<g clip-path="url(#clip0_109_275)">
<path d="M12 9.27295C11.2044 9.27295 10.4413 9.58902 9.87868 10.1516C9.31607 10.7143 9 11.4773 9 12.273C9 13.0686 9.31607 13.8317 9.87868 14.3943C10.4413 14.9569 11.2044 15.273 12 15.273C12.7956 15.273 13.5587 14.9569 14.1213 14.3943C14.6839 13.8317 15 13.0686 15 12.273C15 11.4773 14.6839 10.7143 14.1213 10.1516C13.5587 9.58902 12.7956 9.27295 12 9.27295ZM12 7.27295C13.3261 7.27295 14.5979 7.79974 15.5355 8.73742C16.4732 9.6751 17 10.9469 17 12.273C17 13.599 16.4732 14.8708 15.5355 15.8085C14.5979 16.7462 13.3261 17.273 12 17.273C10.6739 17.273 9.40215 16.7462 8.46447 15.8085C7.52678 14.8708 7 13.599 7 12.273C7 10.9469 7.52678 9.6751 8.46447 8.73742C9.40215 7.79974 10.6739 7.27295 12 7.27295ZM18.5 7.02295C18.5 7.35448 18.3683 7.67242 18.1339 7.90684C17.8995 8.14126 17.5815 8.27295 17.25 8.27295C16.9185 8.27295 16.6005 8.14126 16.3661 7.90684C16.1317 7.67242 16 7.35448 16 7.02295C16 6.69143 16.1317 6.37349 16.3661 6.13907C16.6005 5.90465 16.9185 5.77295 17.25 5.77295C17.5815 5.77295 17.8995 5.90465 18.1339 6.13907C18.3683 6.37349 18.5 6.69143 18.5 7.02295ZM12 4.27295C9.526 4.27295 9.122 4.27995 7.971 4.33095C7.187 4.36795 6.661 4.47295 6.173 4.66295C5.739 4.83095 5.426 5.03195 5.093 5.36595C4.78001 5.66835 4.53935 6.03754 4.389 6.44595C4.199 6.93595 4.094 7.46096 4.058 8.24396C4.006 9.34796 4 9.73395 4 12.273C4 14.747 4.007 15.151 4.058 16.302C4.095 17.085 4.2 17.612 4.389 18.099C4.559 18.534 4.759 18.847 5.091 19.179C5.428 19.515 5.741 19.716 6.171 19.882C6.665 20.073 7.191 20.179 7.971 20.215C9.075 20.267 9.461 20.273 12 20.273C14.474 20.273 14.878 20.266 16.029 20.215C16.811 20.178 17.338 20.073 17.826 19.884C18.259 19.715 18.574 19.514 18.906 19.182C19.243 18.845 19.444 18.532 19.61 18.102C19.8 17.609 19.906 17.082 19.942 16.302C19.994 15.198 20 14.812 20 12.273C20 9.79895 19.993 9.39496 19.942 8.24396C19.905 7.46195 19.8 6.93395 19.61 6.44595C19.4593 6.03796 19.2191 5.66892 18.907 5.36595C18.6047 5.0528 18.2355 4.81212 17.827 4.66195C17.337 4.47195 16.811 4.36695 16.029 4.33095C14.925 4.27895 14.539 4.27295 12 4.27295ZM12 2.27295C14.717 2.27295 15.056 2.28295 16.122 2.33295C17.187 2.38295 17.912 2.54995 18.55 2.79795C19.21 3.05195 19.766 3.39595 20.322 3.95095C20.8305 4.45085 21.224 5.05554 21.475 5.72295C21.722 6.35995 21.89 7.08595 21.94 8.15095C21.987 9.21695 22 9.55595 22 12.273C22 14.99 21.99 15.329 21.94 16.395C21.89 17.46 21.722 18.185 21.475 18.823C21.2247 19.4907 20.8311 20.0956 20.322 20.595C19.822 21.1033 19.2173 21.4967 18.55 21.748C17.913 21.995 17.187 22.163 16.122 22.213C15.056 22.26 14.717 22.273 12 22.273C9.283 22.273 8.944 22.263 7.878 22.213C6.813 22.163 6.088 21.995 5.45 21.748C4.78233 21.4974 4.17753 21.1039 3.678 20.595C3.16941 20.0952 2.77593 19.4904 2.525 18.823C2.277 18.186 2.11 17.46 2.06 16.395C2.013 15.329 2 14.99 2 12.273C2 9.55595 2.01 9.21695 2.06 8.15095C2.11 7.08495 2.277 6.36095 2.525 5.72295C2.77524 5.05513 3.1688 4.45028 3.678 3.95095C4.17767 3.44219 4.78243 3.04868 5.45 2.79795C6.088 2.54995 6.812 2.38295 7.878 2.33295C8.944 2.28595 9.283 2.27295 12 2.27295Z" fill="#201515"/>
</g>
<defs>
<clipPath id="clip0_109_275">
<rect width="24" height="25" fill="white" transform="translate(0 0.271484)"/>
</clipPath>
</defs>
</svg>
