<svg width="24" height="26" viewBox="0 0 24 26" fill="none" xmlns="http://www.w3.org/2000/svg">
<g clip-path="url(#clip0_109_266)">
<path d="M7.764 19.498C8.354 19.238 9.014 19.189 9.632 19.359C10.402 19.569 11.197 19.675 12 19.673C16.585 19.673 20 16.386 20 11.973C20 7.55995 16.585 4.27295 12 4.27295C7.415 4.27295 4 7.55995 4 11.973C4 14.243 4.896 16.245 6.466 17.649C6.75126 17.9016 6.98194 18.2099 7.14391 18.5548C7.30589 18.8997 7.39575 19.2741 7.408 19.655L7.764 19.498ZM12 2.27295C17.634 2.27295 22 6.39995 22 11.973C22 17.546 17.634 21.673 12 21.673C11.0221 21.6755 10.0484 21.5463 9.105 21.289C8.9278 21.2402 8.73924 21.254 8.571 21.328L6.587 22.204C6.46713 22.2569 6.33608 22.2797 6.20537 22.2701C6.07467 22.2606 5.94831 22.2191 5.8374 22.1492C5.72649 22.0794 5.63444 21.9834 5.56933 21.8697C5.50422 21.7559 5.46805 21.628 5.464 21.497L5.409 19.717C5.4054 19.6087 5.37977 19.5024 5.3337 19.4044C5.28762 19.3064 5.22205 19.2188 5.141 19.147C3.195 17.408 2 14.89 2 11.973C2 6.39995 6.367 2.27295 12 2.27295ZM5.995 14.81L8.932 10.1499C9.0425 9.97451 9.18818 9.82388 9.35984 9.70757C9.53149 9.59127 9.7254 9.51181 9.92931 9.47422C10.1332 9.43664 10.3427 9.44173 10.5445 9.48919C10.7464 9.53665 10.9362 9.62544 11.102 9.74996L13.438 11.5C13.5421 11.5786 13.669 11.6211 13.7995 11.6211C13.93 11.6211 14.0569 11.5786 14.161 11.5L17.316 9.10396C17.737 8.78495 18.287 9.28895 18.005 9.73695L15.068 14.397C14.9575 14.5724 14.8118 14.723 14.6402 14.8393C14.4685 14.9557 14.2746 15.0351 14.0707 15.0727C13.8668 15.1103 13.6573 15.1052 13.4555 15.0577C13.2536 15.0103 13.0638 14.9215 12.898 14.797L10.562 13.047C10.4579 12.9684 10.331 12.9258 10.2005 12.9258C10.07 12.9258 9.94313 12.9684 9.839 13.047L6.684 15.442C6.263 15.761 5.713 15.258 5.995 14.81Z" fill="#201515"/>
</g>
<defs>
<clipPath id="clip0_109_266">
<rect width="24" height="25" fill="white" transform="translate(0 0.271484)"/>
</clipPath>
</defs>
</svg>
