<svg width="27" height="27" viewBox="0 0 27 27" fill="none" xmlns="http://www.w3.org/2000/svg">
<path d="M0.5 26.5C0.5 23.8478 1.55357 21.3043 3.42893 19.4289C5.3043 17.5536 7.84784 16.5 10.5 16.5C13.1522 16.5 15.6957 17.5536 17.5711 19.4289C19.4464 21.3043 20.5 23.8478 20.5 26.5H18C18 24.5109 17.2098 22.6032 15.8033 21.1967C14.3968 19.7902 12.4891 19 10.5 19C8.5109 19 6.60322 19.7902 5.1967 21.1967C3.79018 22.6032 3 24.5109 3 26.5H0.5ZM10.5 15.25C6.35625 15.25 3 11.8938 3 7.75C3 3.60625 6.35625 0.25 10.5 0.25C14.6438 0.25 18 3.60625 18 7.75C18 11.8938 14.6438 15.25 10.5 15.25ZM10.5 12.75C13.2625 12.75 15.5 10.5125 15.5 7.75C15.5 4.9875 13.2625 2.75 10.5 2.75C7.7375 2.75 5.5 4.9875 5.5 7.75C5.5 10.5125 7.7375 12.75 10.5 12.75ZM20.855 17.3787C22.6117 18.1699 24.1025 19.4516 25.1482 21.0696C26.194 22.6877 26.7502 24.5734 26.75 26.5H24.25C24.2503 25.055 23.8332 23.6406 23.0489 22.427C22.2645 21.2133 21.1463 20.2521 19.8287 19.6588L20.8538 17.3787H20.855ZM19.995 3.26625C21.2544 3.78537 22.3312 4.66692 23.0888 5.79904C23.8463 6.93115 24.2505 8.2628 24.25 9.625C24.2505 11.3404 23.6096 12.994 22.4532 14.261C21.2967 15.528 19.7083 16.3168 18 16.4725V13.9563C18.9262 13.8236 19.7854 13.3975 20.4516 12.7406C21.1178 12.0836 21.5559 11.2304 21.7014 10.3062C21.847 9.3819 21.6925 8.43537 21.2605 7.60544C20.8285 6.77551 20.1418 6.10593 19.3013 5.695L19.995 3.26625Z" fill="#201515"/>
</svg>
