<svg width="24" height="26" viewBox="0 0 24 26" fill="none" xmlns="http://www.w3.org/2000/svg">
<g clip-path="url(#clip0_109_272)">
<path d="M7.25301 18.767L7.97701 19.19C9.19795 19.902 10.5866 20.2759 12 20.273C13.5823 20.273 15.129 19.8038 16.4446 18.9247C17.7602 18.0457 18.7855 16.7962 19.3911 15.3344C19.9966 13.8726 20.155 12.2641 19.8463 10.7122C19.5376 9.16038 18.7757 7.73492 17.6569 6.6161C16.538 5.49728 15.1126 4.73535 13.5607 4.42667C12.0089 4.11799 10.4004 4.27642 8.93855 4.88192C7.47674 5.48742 6.22731 6.5128 5.34826 7.82839C4.46921 9.14399 4.00001 10.6907 4.00001 12.273C4.00001 13.709 4.37701 15.086 5.08401 16.297L5.50601 17.021L4.85301 19.422L7.25301 18.767ZM2.00401 22.273L3.35601 17.305C2.46515 15.7778 1.99711 14.041 2.00001 12.273C2.00001 6.74996 6.47701 2.27295 12 2.27295C17.523 2.27295 22 6.74996 22 12.273C22 17.796 17.523 22.273 12 22.273C10.2328 22.2758 8.49667 21.8081 6.97001 20.918L2.00401 22.273ZM8.39101 7.58095C8.52501 7.57095 8.66001 7.57095 8.79401 7.57695C8.84801 7.58095 8.90201 7.58695 8.95601 7.59296C9.11501 7.61096 9.29001 7.70795 9.34901 7.84195C9.64701 8.51795 9.93701 9.19895 10.217 9.88196C10.279 10.034 10.242 10.2289 10.124 10.419C10.0429 10.5474 9.95507 10.6716 9.86101 10.791C9.74801 10.936 9.50501 11.202 9.50501 11.202C9.50501 11.202 9.40601 11.32 9.44401 11.467C9.45801 11.523 9.50401 11.604 9.54601 11.672L9.60501 11.767C9.86101 12.194 10.205 12.627 10.625 13.035C10.745 13.151 10.862 13.27 10.988 13.381C11.456 13.794 11.986 14.131 12.558 14.381L12.563 14.383C12.648 14.42 12.691 14.44 12.815 14.493C12.877 14.519 12.941 14.542 13.006 14.559C13.0732 14.5761 13.1439 14.5728 13.2093 14.5497C13.2746 14.5266 13.3316 14.4845 13.373 14.429C14.097 13.552 14.163 13.495 14.169 13.495V13.497C14.2193 13.4501 14.2791 13.4144 14.3443 13.3925C14.4095 13.3706 14.4786 13.3629 14.547 13.37C14.607 13.374 14.668 13.385 14.724 13.41C15.255 13.653 16.124 14.032 16.124 14.032L16.706 14.293C16.804 14.34 16.893 14.451 16.896 14.558C16.9 14.625 16.906 14.733 16.883 14.931C16.851 15.19 16.773 15.501 16.695 15.664C16.6416 15.7752 16.5707 15.8772 16.485 15.966C16.3841 16.0719 16.2736 16.1683 16.155 16.254C16.114 16.2848 16.0723 16.3148 16.03 16.344C15.9056 16.4229 15.7778 16.4963 15.647 16.564C15.3895 16.7007 15.1052 16.7792 14.814 16.794C14.629 16.804 14.444 16.818 14.258 16.808C14.25 16.808 13.69 16.721 13.69 16.721C12.2683 16.347 10.9534 15.6464 9.85001 14.675C9.62401 14.476 9.41501 14.262 9.20101 14.049C8.31101 13.164 7.63901 12.209 7.23101 11.307C7.02218 10.8643 6.90938 10.3824 6.90001 9.89295C6.89589 9.28581 7.09436 8.69462 7.46401 8.21295C7.53701 8.11896 7.60601 8.02095 7.72501 7.90796C7.85201 7.78796 7.93201 7.72396 8.01901 7.67995C8.13469 7.62199 8.26088 7.58797 8.39001 7.57996L8.39101 7.58095Z" fill="#201515"/>
</g>
<defs>
<clipPath id="clip0_109_272">
<rect width="24" height="25" fill="white" transform="translate(0 0.271484)"/>
</clipPath>
</defs>
</svg>
