<svg width="454" height="316" viewBox="0 0 454 316" fill="none" xmlns="http://www.w3.org/2000/svg">
<path d="M389.232 140.485C384.784 192.931 393.158 232.703 276.85 226.881" stroke="#1F2F54" stroke-width="4.5" stroke-linecap="round" stroke-dasharray="14 14"/>
<circle opacity="0.05" cx="225.696" cy="173.98" r="141.805" fill="#FF4F00"/>
<path d="M101.889 69.7055C103.432 68.9881 113.313 66.7068 115.014 66.6754C116.474 66.6755 118.146 67.0776 118.523 68.7112C118.802 70.2849 118.208 71.8743 117.149 73.0409C115.809 74.6924 114.077 75.9423 112.139 76.696C111.063 77.0958 109.974 77.3506 108.87 77.4507C106.794 77.6237 104.689 77.2596 102.763 76.3587C101.298 75.7782 100.067 74.6101 99.6277 73.0736C99.2505 71.44 100.577 70.3457 101.889 69.7055ZM95.7411 12.2611C102.489 10.7032 110.121 12.3137 115.442 16.6807C118.888 19.488 120.896 22.6241 122.122 27.9364L122.441 29.3184C123.382 33.3925 125.013 35.5452 128.021 37.7654C130.288 39.3895 131.466 41.8739 132.121 44.7131C132.776 47.5489 132.466 50.4561 131.104 53.0728C129.265 56.2572 126.205 58.7256 122.754 59.8284C117.758 61.4397 112.742 62.9831 107.574 64.1762C102.403 65.3701 97.255 66.328 92.0237 66.9232C88.436 67.4452 84.6034 66.5681 81.5579 64.5113C79.1866 62.7566 77.6301 60.2803 76.9754 57.4445C76.32 54.6054 76.2929 51.8552 77.6148 49.4027C79.4196 46.0712 79.8711 43.4377 78.9306 39.3636L78.6115 37.9816C77.3519 32.5256 77.8887 28.6438 79.884 24.5044C82.8735 18.4494 88.8451 13.8531 95.451 12.3281L95.7411 12.2611Z" fill="#1F2F54"/>
<path d="M106.147 64.7763C107.69 64.0589 117.571 61.7776 119.272 61.7462C120.732 61.7464 122.404 62.1484 122.781 63.782C123.06 65.3557 122.465 66.9451 121.407 68.1117C120.067 69.7632 118.335 71.0131 116.397 71.7668C115.321 72.1666 114.232 72.4214 113.127 72.5215C111.052 72.6945 108.947 72.3304 107.021 71.4295C105.556 70.849 104.325 69.6809 103.885 68.1444C103.508 66.5108 104.835 65.4165 106.147 64.7763ZM99.9989 7.33186C106.747 5.77402 114.379 7.38445 119.7 11.7515C123.146 14.5588 125.153 17.6949 126.38 23.0072L126.699 24.3892C127.64 28.4633 129.271 30.616 132.279 32.8362C134.546 34.4603 135.724 36.9447 136.379 39.7839C137.034 42.6197 136.724 45.5269 135.362 48.1436C133.523 51.328 130.462 53.7964 127.012 54.8992C122.016 56.5105 117 58.0539 111.832 59.247C106.66 60.4409 101.513 61.3988 96.2815 61.994C92.6938 62.516 88.8612 61.6389 85.8157 59.5821C83.4444 57.8274 81.888 55.3511 81.2333 52.5153C80.5778 49.6762 80.5507 46.926 81.8726 44.4735C83.6775 41.142 84.1289 38.5085 83.1884 34.4344L82.8693 33.0524C81.6097 27.5964 82.1465 23.7146 84.1418 19.5752C87.1313 13.5202 93.1029 8.92394 99.7088 7.39885L99.9989 7.33186Z" fill="#FFBA07"/>
<path d="M75.0775 77.8994C46.3689 113.076 32.5708 206.687 144.669 245.327" stroke="#1F2F54" stroke-width="4.5" stroke-linecap="round" stroke-dasharray="14 14"/>
<rect x="122.209" y="154.371" width="202.11" height="114.536" rx="12" fill="#1F2F54"/>
<path d="M131.912 145.034V251.89C131.912 254.07 132.778 256.161 134.319 257.703C135.861 259.244 137.951 260.11 140.131 260.11H320.966C323.146 260.11 325.236 259.244 326.778 257.703C328.319 256.161 329.185 254.07 329.185 251.89V145.034L230.548 79.2759L131.912 145.034Z" fill="#FF4F00"/>
<rect x="148.287" y="65.6123" width="147.955" height="139.173" rx="15" fill="#1F2F54"/>
<rect x="156.23" y="64.9761" width="147.955" height="139.173" rx="15" fill="white"/>
<line x1="191.587" y1="89.7495" x2="269.51" y2="89.7495" stroke="#FF4F00" stroke-width="4.5" stroke-linecap="round"/>
<line x1="184.156" y1="106.64" x2="276.266" y2="106.64" stroke="#1F2F54" stroke-width="4.5" stroke-linecap="round"/>
<line x1="202.396" y1="123.529" x2="258.7" y2="123.529" stroke="#1F2F54" stroke-width="4.5" stroke-linecap="round"/>
<line x1="180.777" y1="140.419" x2="280.318" y2="140.419" stroke="#1F2F54" stroke-width="4.5" stroke-linecap="round"/>
<line x1="184.83" y1="157.309" x2="276.264" y2="157.309" stroke="#1F2F54" stroke-width="4.5" stroke-linecap="round"/>
<path d="M211.63 202.122L145.335 155.402V209.496L160.285 238.604L211.63 202.122Z" fill="#FF4F00"/>
<path d="M248.79 202.798L310.607 158.546L317.363 214.283L300.136 239.28L248.79 202.798Z" fill="#FF4F00"/>
<path d="M326.613 257.748L248.526 202.573M212.566 202.573L134.479 257.748M328.212 146.048L248.529 202.572H212.567L133.222 145.765" stroke="#1F2F54" stroke-width="4.5" stroke-linecap="round" stroke-linejoin="round"/>
<path d="M433.756 87.6257L362.835 107.601C362.231 107.766 361.693 108.113 361.294 108.595C360.894 109.077 360.653 109.67 360.603 110.294C360.554 110.918 360.697 111.542 361.015 112.082C361.332 112.621 361.808 113.049 362.378 113.308L394.947 128.718C395.585 129.013 396.098 129.525 396.393 130.163L411.803 162.733C412.062 163.302 412.49 163.778 413.029 164.096C413.569 164.414 414.193 164.557 414.817 164.507C415.44 164.457 416.034 164.216 416.516 163.817C416.998 163.418 417.345 162.88 417.51 162.276L437.485 91.3544C437.636 90.8369 437.646 90.2882 437.512 89.7658C437.379 89.2434 437.107 88.7665 436.726 88.3853C436.344 88.004 435.867 87.7323 435.345 87.5986C434.823 87.465 434.274 87.4744 433.756 87.6257Z" fill="#1F2F54"/>
<path d="M439.094 79.3972L368.173 99.3724C367.569 99.5375 367.031 99.8847 366.632 100.367C366.232 100.849 365.991 101.442 365.941 102.066C365.891 102.69 366.035 103.314 366.353 103.853C366.67 104.392 367.146 104.821 367.716 105.08L400.285 120.489C400.923 120.785 401.436 121.297 401.731 121.935L417.141 154.504C417.4 155.074 417.828 155.55 418.367 155.868C418.906 156.185 419.531 156.329 420.154 156.279C420.778 156.229 421.372 155.988 421.854 155.589C422.336 155.189 422.683 154.651 422.848 154.047L442.823 83.1259C442.974 82.6084 442.984 82.0597 442.85 81.5373C442.716 81.0149 442.445 80.538 442.063 80.1567C441.682 79.7755 441.205 79.5038 440.683 79.3701C440.161 79.2365 439.612 79.2459 439.094 79.3972Z" fill="#2D68FF"/>
<path d="M401.273 120.946L418.471 103.748" stroke="#1F2F54" stroke-width="4.5" stroke-linecap="round" stroke-linejoin="round"/>
</svg>
