<svg width="578" height="452" viewBox="0 0 578 452" fill="none" xmlns="http://www.w3.org/2000/svg">
<mask id="mask0_132_387" style="mask-type:luminance" maskUnits="userSpaceOnUse" x="0" y="0" width="578" height="452">
<path d="M578 0.679688H0V451.271H578V0.679688Z" fill="white"/>
</mask>
<g mask="url(#mask0_132_387)">
<path d="M284.519 424.37C394.637 424.37 483.907 335.043 483.907 224.854C483.907 114.665 394.637 25.3389 284.519 25.3389C174.4 25.3389 85.1313 114.665 85.1313 224.854C85.1313 335.043 174.4 424.37 284.519 424.37Z" fill="#F1F1FF" fill-opacity="0.6"/>
<path d="M441.341 85.8662H100.814C79.78 85.8662 62.7285 102.929 62.7285 123.976V321.25C62.7285 342.298 79.78 359.36 100.814 359.36H441.341C462.375 359.36 479.426 342.298 479.426 321.25V123.976C479.426 102.929 462.375 85.8662 441.341 85.8662Z" fill="white" stroke="#FF4F00" stroke-width="2"/>
<path d="M271.077 135.185H103.054C93.1555 135.185 85.1313 143.214 85.1313 153.119V312.283C85.1313 322.187 93.1555 330.217 103.054 330.217H271.077C280.975 330.217 289 322.187 289 312.283V153.119C289 143.214 280.975 135.185 271.077 135.185Z" fill="#F0F0FF"/>
<g filter="url(#filter0_d_132_387)">
<path d="M188.185 182.261C159.771 182.261 136.658 205.389 136.658 233.821C136.658 262.254 159.771 285.382 188.185 285.382C216.599 285.382 239.712 262.254 239.712 233.821C239.712 205.389 216.599 182.261 188.185 182.261ZM181.496 252.264C178.509 254.022 174.743 251.868 174.743 248.4V219.243C174.743 215.775 178.509 213.62 181.496 215.379L206.263 229.957C209.208 231.69 209.208 235.953 206.263 237.686L181.496 252.264Z" fill="#FF4F00"/>
</g>
<path d="M188.186 265.423C205.627 265.423 219.767 251.273 219.767 233.821C219.767 216.368 205.627 202.22 188.186 202.22C170.744 202.22 156.604 216.368 156.604 233.821C156.604 251.273 170.744 265.423 188.186 265.423Z" fill="white"/>
<path d="M188.185 182.261C159.771 182.261 136.658 205.389 136.658 233.821C136.658 262.254 159.771 285.382 188.185 285.382C216.599 285.382 239.712 262.254 239.712 233.821C239.712 205.389 216.599 182.261 188.185 182.261ZM181.496 252.264C178.509 254.022 174.743 251.868 174.743 248.4V219.243C174.743 215.775 178.509 213.62 181.496 215.379L206.263 229.957C209.208 231.69 209.208 235.953 206.263 237.686L181.496 252.264Z" fill="#FF4F00"/>
<path d="M98.5735 121.734C103.523 121.734 107.535 117.719 107.535 112.767C107.535 107.815 103.523 103.8 98.5735 103.8C93.6245 103.8 89.6123 107.815 89.6123 112.767C89.6123 117.719 93.6245 121.734 98.5735 121.734Z" fill="#FF4F00"/>
<path d="M125.457 121.734C130.406 121.734 134.418 117.719 134.418 112.767C134.418 107.815 130.406 103.8 125.457 103.8C120.508 103.8 116.496 107.815 116.496 112.767C116.496 117.719 120.508 121.734 125.457 121.734Z" fill="#ECECF4"/>
<path d="M448.062 135.185H315.884C310.935 135.185 306.922 139.199 306.922 144.152V197.954C306.922 202.906 310.935 206.921 315.884 206.921H448.062C453.011 206.921 457.023 202.906 457.023 197.954V144.152C457.023 139.199 453.011 135.185 448.062 135.185Z" fill="#F6F6FA"/>
<path d="M448.062 220.371H315.884C310.935 220.371 306.922 224.386 306.922 229.338V283.14C306.922 288.092 310.935 292.107 315.884 292.107H448.062C453.011 292.107 457.023 288.092 457.023 283.14V229.338C457.023 224.386 453.011 220.371 448.062 220.371Z" fill="#F6F6FA"/>
<g filter="url(#filter1_d_132_387)">
<path d="M448.062 310.041H315.884C310.935 310.041 306.922 314.056 306.922 319.008V379.535C306.922 384.487 310.935 388.502 315.884 388.502H448.062C453.011 388.502 457.023 384.487 457.023 379.535V319.008C457.023 314.056 453.011 310.041 448.062 310.041Z" fill="#FF4F00"/>
</g>
<path d="M448.062 310.041H315.884C310.935 310.041 306.922 314.056 306.922 319.008V379.535C306.922 384.487 310.935 388.502 315.884 388.502H448.062C453.011 388.502 457.023 384.487 457.023 379.535V319.008C457.023 314.056 453.011 310.041 448.062 310.041Z" fill="#FF4F00"/>
<path d="M152.341 121.734C157.29 121.734 161.302 117.719 161.302 112.767C161.302 107.815 157.29 103.8 152.341 103.8C147.392 103.8 143.379 107.815 143.379 112.767C143.379 117.719 147.392 121.734 152.341 121.734Z" fill="#ECECF4"/>
<g filter="url(#filter2_d_132_387)">
<path d="M537.675 45.5146H376.372C363.999 45.5146 353.969 55.5514 353.969 67.9321V148.635C353.969 161.016 363.999 171.053 376.372 171.053H537.675C550.048 171.053 560.078 161.016 560.078 148.635V67.9321C560.078 55.5514 550.048 45.5146 537.675 45.5146Z" fill="white" fill-opacity="0.01"/>
</g>
<path d="M537.675 45.5146H376.372C363.999 45.5146 353.969 55.5514 353.969 67.9321V148.635C353.969 161.016 363.999 171.053 376.372 171.053H537.675C550.048 171.053 560.078 161.016 560.078 148.635V67.9321C560.078 55.5514 550.048 45.5146 537.675 45.5146Z" fill="white"/>
<path d="M537.675 47.7566H376.372C365.236 47.7566 356.209 56.7895 356.209 67.9323V148.635C356.209 159.778 365.236 168.811 376.372 168.811H537.675C548.811 168.811 557.837 159.778 557.837 148.635V67.9323C557.837 56.7895 548.811 47.7566 537.675 47.7566Z" stroke="#FF4F00" stroke-width="2"/>
<g filter="url(#filter3_d_132_387)">
<path d="M392.054 67.9319C382.172 67.9319 374.131 75.9764 374.131 85.8659C374.131 95.7553 382.172 103.8 392.054 103.8C401.936 103.8 409.976 95.7553 409.976 85.8659C409.976 75.9764 401.936 67.9319 392.054 67.9319ZM390.38 91.8968C389.052 92.6781 387.378 91.7204 387.378 90.1792V81.5525C387.378 80.0113 389.052 79.0536 390.38 79.8349L397.708 84.1482C399.017 84.9187 399.017 86.813 397.708 87.5835L390.38 91.8968Z" fill="#FF4F00"/>
</g>
<path d="M392.054 96.8577C398.12 96.8577 403.038 91.9367 403.038 85.866C403.038 79.7954 398.12 74.8743 392.054 74.8743C385.987 74.8743 381.069 79.7954 381.069 85.866C381.069 91.9367 385.987 96.8577 392.054 96.8577Z" fill="white"/>
<path d="M392.054 67.9319C382.172 67.9319 374.131 75.9764 374.131 85.8659C374.131 95.7553 382.172 103.8 392.054 103.8C401.936 103.8 409.976 95.7553 409.976 85.8659C409.976 75.9764 401.936 67.9319 392.054 67.9319ZM390.38 91.8968C389.052 92.6781 387.378 91.7204 387.378 90.1792V81.5525C387.378 80.0113 389.052 79.0536 390.38 79.8349L397.708 84.1482C399.017 84.9187 399.017 86.813 397.708 87.5835L390.38 91.8968Z" fill="#FF4F00"/>
<path d="M464.864 74.6572H420.058C418.203 74.6572 416.698 76.1628 416.698 78.0198C416.698 79.8769 418.203 81.3825 420.058 81.3825H464.864C466.719 81.3825 468.225 79.8769 468.225 78.0198C468.225 76.1628 466.719 74.6572 464.864 74.6572Z" fill="#FF4F00"/>
<path d="M487.268 90.3496H420.058C418.203 90.3496 416.698 91.8552 416.698 93.7122C416.698 95.5693 418.203 97.0749 420.058 97.0749H487.268C489.122 97.0749 490.628 95.5693 490.628 93.7122C490.628 91.8552 489.122 90.3496 487.268 90.3496Z" fill="#ECECF4"/>
<path d="M426.779 112.767H377.492C375.637 112.767 374.131 114.272 374.131 116.129C374.131 117.987 375.637 119.492 377.492 119.492H426.779C428.634 119.492 430.139 117.987 430.139 116.129C430.139 114.272 428.634 112.767 426.779 112.767Z" fill="#ECECF4"/>
<path d="M473.825 128.459H377.492C375.637 128.459 374.131 129.965 374.131 131.822C374.131 133.679 375.637 135.184 377.492 135.184H473.825C475.68 135.184 477.186 133.679 477.186 131.822C477.186 129.965 475.68 128.459 473.825 128.459Z" fill="#ECECF4"/>
<path d="M397.655 144.152H377.492C375.637 144.152 374.131 145.657 374.131 147.514C374.131 149.372 375.637 150.877 377.492 150.877H397.655C399.51 150.877 401.015 149.372 401.015 147.514C401.015 145.657 399.51 144.152 397.655 144.152Z" fill="#ECECF4"/>
<path d="M444.701 144.152H413.337C411.482 144.152 409.977 145.657 409.977 147.514C409.977 149.372 411.482 150.877 413.337 150.877H444.701C446.556 150.877 448.062 149.372 448.062 147.514C448.062 145.657 446.556 144.152 444.701 144.152Z" fill="#ECECF4"/>
<path d="M536.554 112.767H442.461C440.606 112.767 439.101 114.272 439.101 116.129C439.101 117.987 440.606 119.492 442.461 119.492H536.554C538.409 119.492 539.915 117.987 539.915 116.129C539.915 114.272 538.409 112.767 536.554 112.767Z" fill="#ECECF4"/>
<path d="M505.19 128.459H489.508C487.653 128.459 486.147 129.965 486.147 131.822C486.147 133.679 487.653 135.184 489.508 135.184H505.19C507.045 135.184 508.551 133.679 508.551 131.822C508.551 129.965 507.045 128.459 505.19 128.459Z" fill="#FF4F00"/>
<path d="M518.632 90.3496H502.949C501.094 90.3496 499.589 91.8552 499.589 93.7122C499.589 95.5693 501.094 97.0749 502.949 97.0749H518.632C520.486 97.0749 521.992 95.5693 521.992 93.7122C521.992 91.8552 520.486 90.3496 518.632 90.3496Z" fill="#ECECF4"/>
<path d="M404.376 330.217H325.965C324.11 330.217 322.604 331.723 322.604 333.579C322.604 335.436 324.11 336.942 325.965 336.942H404.376C406.231 336.942 407.736 335.436 407.736 333.579C407.736 331.723 406.231 330.217 404.376 330.217Z" fill="white"/>
<path d="M440.221 345.909H325.965C324.11 345.909 322.604 347.415 322.604 349.271C322.604 351.127 324.11 352.634 325.965 352.634H440.221C442.076 352.634 443.581 351.127 443.581 349.271C443.581 347.415 442.076 345.909 440.221 345.909Z" fill="white"/>
<path d="M368.531 361.601H325.965C324.11 361.601 322.604 363.108 322.604 364.964C322.604 366.82 324.11 368.326 325.965 368.326H368.531C370.386 368.326 371.891 366.82 371.891 364.964C371.891 363.108 370.386 361.601 368.531 361.601Z" fill="white"/>
<g filter="url(#filter4_d_132_387)">
<path d="M140.039 289.865H39.8144C28.961 289.865 20.1626 298.669 20.1626 309.53V382.288C20.1626 393.149 28.961 401.953 39.8144 401.953H140.039C150.892 401.953 159.691 393.149 159.691 382.288V309.53C159.691 298.669 150.892 289.865 140.039 289.865Z" fill="white" fill-opacity="0.01"/>
</g>
<path d="M140.039 289.865H39.8144C28.961 289.865 20.1626 298.669 20.1626 309.53V382.288C20.1626 393.149 28.961 401.953 39.8144 401.953H140.039C150.892 401.953 159.691 393.149 159.691 382.288V309.53C159.691 298.669 150.892 289.865 140.039 289.865Z" fill="white"/>
<path d="M140.039 292.107H39.8143C30.1982 292.107 22.4028 299.908 22.4028 309.53V382.288C22.4028 391.91 30.1982 399.711 39.8143 399.711H140.039C149.655 399.711 157.45 391.91 157.45 382.288V309.53C157.45 299.908 149.655 292.107 140.039 292.107Z" stroke="#FF4F00" stroke-width="2"/>
<path d="M134.846 310.041H45.1217C41.2352 310.041 38.0845 313.193 38.0845 317.082V366.374C38.0845 370.263 41.2352 373.417 45.1217 373.417H134.846C138.733 373.417 141.884 370.263 141.884 366.374V317.082C141.884 313.193 138.733 310.041 134.846 310.041Z" fill="#F6F6FA"/>
<g filter="url(#filter5_d_132_387)">
<path d="M90.8646 325.883C82.1332 325.883 75.0308 332.992 75.0308 341.728C75.0308 350.464 82.1332 357.573 90.8646 357.573C99.5958 357.573 106.698 350.464 106.698 341.728C106.698 332.992 99.5958 325.883 90.8646 325.883ZM89.0907 347.229C88.0483 347.843 86.7339 347.09 86.7339 345.88V337.576C86.7339 336.366 88.0483 335.612 89.0907 336.227L96.1457 340.378C97.1738 340.984 97.1738 342.472 96.1457 343.078L89.0907 347.229Z" fill="#FF4F00"/>
</g>
<path d="M90.8652 351.439C96.2249 351.439 100.57 347.09 100.57 341.728C100.57 336.366 96.2249 332.017 90.8652 332.017C85.5055 332.017 81.1606 336.366 81.1606 341.728C81.1606 347.09 85.5055 351.439 90.8652 351.439Z" fill="white"/>
<path d="M90.8646 325.883C82.1332 325.883 75.0308 332.992 75.0308 341.728C75.0308 350.464 82.1332 357.573 90.8646 357.573C99.5958 357.573 106.698 350.464 106.698 341.728C106.698 332.992 99.5958 325.883 90.8646 325.883ZM89.0907 347.229C88.0483 347.843 86.7339 347.09 86.7339 345.88V337.576C86.7339 336.366 88.0483 335.612 89.0907 336.227L96.1457 340.378C97.1738 340.984 97.1738 342.472 96.1457 343.078L89.0907 347.229Z" fill="#FF4F00"/>
<path d="M139.245 378.699H40.7233C39.266 378.699 38.0845 379.88 38.0845 381.339C38.0845 382.799 39.266 383.98 40.7233 383.98H139.245C140.702 383.98 141.884 382.799 141.884 381.339C141.884 379.88 140.702 378.699 139.245 378.699Z" fill="#ECECF4"/>
<path d="M98.7805 378.699H40.7233C39.266 378.699 38.0845 379.88 38.0845 381.339C38.0845 382.799 39.266 383.98 40.7233 383.98H98.7805C100.238 383.98 101.419 382.799 101.419 381.339C101.419 379.88 100.238 378.699 98.7805 378.699Z" fill="#FF4F00"/>
</g>
<defs>
<filter id="filter0_d_132_387" x="128.658" y="177.261" width="119.054" height="119.121" filterUnits="userSpaceOnUse" color-interpolation-filters="sRGB">
<feFlood flood-opacity="0" result="BackgroundImageFix"/>
<feColorMatrix in="SourceAlpha" type="matrix" values="0 0 0 0 0 0 0 0 0 0 0 0 0 0 0 0 0 0 127 0" result="hardAlpha"/>
<feOffset dy="3"/>
<feGaussianBlur stdDeviation="4"/>
<feColorMatrix type="matrix" values="0 0 0 0 0.203922 0 0 0 0 0.203922 0 0 0 0 1 0 0 0 0.32 0"/>
<feBlend mode="normal" in2="BackgroundImageFix" result="effect1_dropShadow_132_387"/>
<feBlend mode="normal" in="SourceGraphic" in2="effect1_dropShadow_132_387" result="shape"/>
</filter>
<filter id="filter1_d_132_387" x="296.922" y="305.041" width="170.101" height="98.4614" filterUnits="userSpaceOnUse" color-interpolation-filters="sRGB">
<feFlood flood-opacity="0" result="BackgroundImageFix"/>
<feColorMatrix in="SourceAlpha" type="matrix" values="0 0 0 0 0 0 0 0 0 0 0 0 0 0 0 0 0 0 127 0" result="hardAlpha"/>
<feOffset dy="5"/>
<feGaussianBlur stdDeviation="5"/>
<feColorMatrix type="matrix" values="0 0 0 0 0.203922 0 0 0 0 0.203922 0 0 0 0 1 0 0 0 0.19 0"/>
<feBlend mode="normal" in2="BackgroundImageFix" result="effect1_dropShadow_132_387"/>
<feBlend mode="normal" in="SourceGraphic" in2="effect1_dropShadow_132_387" result="shape"/>
</filter>
<filter id="filter2_d_132_387" x="342.969" y="40.5146" width="228.108" height="147.538" filterUnits="userSpaceOnUse" color-interpolation-filters="sRGB">
<feFlood flood-opacity="0" result="BackgroundImageFix"/>
<feColorMatrix in="SourceAlpha" type="matrix" values="0 0 0 0 0 0 0 0 0 0 0 0 0 0 0 0 0 0 127 0" result="hardAlpha"/>
<feOffset dy="6"/>
<feGaussianBlur stdDeviation="5.5"/>
<feColorMatrix type="matrix" values="0 0 0 0 0.203922 0 0 0 0 0.203922 0 0 0 0 1 0 0 0 0.12 0"/>
<feBlend mode="normal" in2="BackgroundImageFix" result="effect1_dropShadow_132_387"/>
<feBlend mode="normal" in="SourceGraphic" in2="effect1_dropShadow_132_387" result="shape"/>
</filter>
<filter id="filter3_d_132_387" x="369.687" y="64.8208" width="44.7336" height="44.7568" filterUnits="userSpaceOnUse" color-interpolation-filters="sRGB">
<feFlood flood-opacity="0" result="BackgroundImageFix"/>
<feColorMatrix in="SourceAlpha" type="matrix" values="0 0 0 0 0 0 0 0 0 0 0 0 0 0 0 0 0 0 127 0" result="hardAlpha"/>
<feOffset dy="1.33333"/>
<feGaussianBlur stdDeviation="2.22222"/>
<feColorMatrix type="matrix" values="0 0 0 0 0.203922 0 0 0 0 0.203922 0 0 0 0 1 0 0 0 0.25 0"/>
<feBlend mode="normal" in2="BackgroundImageFix" result="effect1_dropShadow_132_387"/>
<feBlend mode="normal" in="SourceGraphic" in2="effect1_dropShadow_132_387" result="shape"/>
</filter>
<filter id="filter4_d_132_387" x="10.5135" y="285.479" width="158.826" height="131.386" filterUnits="userSpaceOnUse" color-interpolation-filters="sRGB">
<feFlood flood-opacity="0" result="BackgroundImageFix"/>
<feColorMatrix in="SourceAlpha" type="matrix" values="0 0 0 0 0 0 0 0 0 0 0 0 0 0 0 0 0 0 127 0" result="hardAlpha"/>
<feOffset dy="5.26316"/>
<feGaussianBlur stdDeviation="4.82456"/>
<feColorMatrix type="matrix" values="0 0 0 0 0.203922 0 0 0 0 0.203922 0 0 0 0 1 0 0 0 0.12 0"/>
<feBlend mode="normal" in2="BackgroundImageFix" result="effect1_dropShadow_132_387"/>
<feBlend mode="normal" in="SourceGraphic" in2="effect1_dropShadow_132_387" result="shape"/>
</filter>
<filter id="filter5_d_132_387" x="71.5406" y="323.44" width="38.6479" height="38.6699" filterUnits="userSpaceOnUse" color-interpolation-filters="sRGB">
<feFlood flood-opacity="0" result="BackgroundImageFix"/>
<feColorMatrix in="SourceAlpha" type="matrix" values="0 0 0 0 0 0 0 0 0 0 0 0 0 0 0 0 0 0 127 0" result="hardAlpha"/>
<feOffset dy="1.04706"/>
<feGaussianBlur stdDeviation="1.7451"/>
<feColorMatrix type="matrix" values="0 0 0 0 0.203922 0 0 0 0 0.203922 0 0 0 0 1 0 0 0 0.25 0"/>
<feBlend mode="normal" in2="BackgroundImageFix" result="effect1_dropShadow_132_387"/>
<feBlend mode="normal" in="SourceGraphic" in2="effect1_dropShadow_132_387" result="shape"/>
</filter>
</defs>
</svg>
