<svg width="668" height="487" viewBox="0 0 668 487" fill="none" xmlns="http://www.w3.org/2000/svg">
<g clip-path="url(#clip0_132_322)">
<path d="M513.687 30.9229H77.4765C64.774 30.9229 54.4766 41.2203 54.4766 53.9229V315.638C54.4766 328.34 64.774 338.638 77.4765 338.638H513.687C526.39 338.638 536.687 328.34 536.687 315.638V53.9229C536.687 41.2203 526.39 30.9229 513.687 30.9229Z" fill="white"/>
<path d="M382.497 67.3623C373.261 67.3623 365.748 74.8757 365.748 84.112C365.748 93.3484 373.261 100.862 382.497 100.862C391.734 100.862 399.247 93.3484 399.247 84.112C399.247 74.8757 391.734 67.3623 382.497 67.3623ZM381.142 89.6215C379.809 90.4058 378.128 89.4445 378.128 87.8977V80.3264C378.128 78.7795 379.809 77.8182 381.142 78.6025L387.578 82.3882C388.892 83.1615 388.892 85.0626 387.578 85.8359L381.142 89.6215Z" fill="#B5B5E2"/>
<path d="M468.942 70.3452H410.93C408.708 70.3452 406.907 72.1462 406.907 74.3679C406.907 76.5896 408.708 78.3907 410.93 78.3907H468.942C471.163 78.3907 472.964 76.5896 472.964 74.3679C472.964 72.1462 471.163 70.3452 468.942 70.3452Z" fill="#BBBBD5"/>
<path d="M498.533 83.5957H409.547C408.089 83.5957 406.907 84.7778 406.907 86.2361C406.907 87.6943 408.089 88.8764 409.547 88.8764H498.533C499.992 88.8764 501.174 87.6943 501.174 86.2361C501.174 84.7778 499.992 83.5957 498.533 83.5957Z" fill="#666666"/>
<path d="M462.063 92.5967H409.547C408.089 92.5967 406.907 93.7788 406.907 95.2371C406.907 96.6953 408.089 97.8774 409.547 97.8774H462.063C463.521 97.8774 464.703 96.6953 464.703 95.2371C464.703 93.7788 463.521 92.5967 462.063 92.5967Z" fill="#666666"/>
<path d="M382.497 117.697C373.261 117.697 365.748 125.21 365.748 134.446C365.748 143.683 373.261 151.196 382.497 151.196C391.734 151.196 399.247 143.683 399.247 134.446C399.247 125.21 391.734 117.697 382.497 117.697ZM381.142 139.956C379.809 140.74 378.128 139.779 378.128 138.232V130.661C378.128 129.114 379.809 128.153 381.142 128.937L387.578 132.723C388.892 133.496 388.892 135.397 387.578 136.17L381.142 139.956Z" fill="#B5B5E2"/>
<path d="M440.042 120.68H410.931C408.709 120.68 406.908 122.481 406.908 124.702C406.908 126.924 408.709 128.725 410.931 128.725H440.042C442.264 128.725 444.065 126.924 444.065 124.702C444.065 122.481 442.264 120.68 440.042 120.68Z" fill="#BBBBD5"/>
<path d="M462.064 133.93H409.548C408.09 133.93 406.908 135.112 406.908 136.57C406.908 138.029 408.09 139.211 409.548 139.211H462.064C463.522 139.211 464.704 138.029 464.704 136.57C464.704 135.112 463.522 133.93 462.064 133.93Z" fill="#666666"/>
<path d="M498.534 142.932H409.548C408.09 142.932 406.908 144.114 406.908 145.572C406.908 147.031 408.09 148.213 409.548 148.213H498.534C499.993 148.213 501.175 147.031 501.175 145.572C501.175 144.114 499.993 142.932 498.534 142.932Z" fill="#666666"/>
<path d="M382.497 168.03C373.261 168.03 365.748 175.544 365.748 184.78C365.748 194.016 373.261 201.53 382.497 201.53C391.734 201.53 399.247 194.016 399.247 184.78C399.247 175.544 391.734 168.03 382.497 168.03ZM381.142 190.289C379.809 191.074 378.128 190.112 378.128 188.566V180.994C378.128 179.447 379.809 178.486 381.142 179.27L387.578 183.056C388.892 183.829 388.892 185.73 387.578 186.504L381.142 190.289Z" fill="#B5B5E2"/>
<path d="M487.936 171.014H410.931C408.709 171.014 406.908 172.815 406.908 175.037C406.908 177.258 408.709 179.059 410.931 179.059H487.936C490.157 179.059 491.959 177.258 491.959 175.037C491.959 172.815 490.157 171.014 487.936 171.014Z" fill="#BBBBD5"/>
<path d="M476.004 184.263H409.548C408.09 184.263 406.908 185.445 406.908 186.903C406.908 188.362 408.09 189.544 409.548 189.544H476.004C477.462 189.544 478.645 188.362 478.645 186.903C478.645 185.445 477.462 184.263 476.004 184.263Z" fill="#666666"/>
<path d="M498.534 193.267H409.548C408.09 193.267 406.908 194.449 406.908 195.907C406.908 197.366 408.09 198.548 409.548 198.548H498.534C499.993 198.548 501.175 197.366 501.175 195.907C501.175 194.449 499.993 193.267 498.534 193.267Z" fill="#666666"/>
<path d="M382.497 218.365C373.261 218.365 365.748 225.878 365.748 235.115C365.748 244.351 373.261 251.865 382.497 251.865C391.734 251.865 399.247 244.351 399.247 235.115C399.247 225.878 391.734 218.365 382.497 218.365ZM381.142 240.624C379.809 241.409 378.128 240.447 378.128 238.9V231.329C378.128 229.782 379.809 228.821 381.142 229.605L387.578 233.391C388.892 234.164 388.892 236.065 387.578 236.839L381.142 240.624Z" fill="#B5B5E2"/>
<path d="M440.042 221.349H410.931C408.709 221.349 406.908 223.15 406.908 225.372C406.908 227.593 408.709 229.394 410.931 229.394H440.042C442.264 229.394 444.065 227.593 444.065 225.372C444.065 223.15 442.264 221.349 440.042 221.349Z" fill="#BBBBD5"/>
<path d="M487.528 234.598H409.548C408.09 234.598 406.908 235.78 406.908 237.238C406.908 238.697 408.09 239.879 409.548 239.879H487.528C488.986 239.879 490.168 238.697 490.168 237.238C490.168 235.78 488.986 234.598 487.528 234.598Z" fill="#666666"/>
<path d="M457.516 243.6H409.548C408.09 243.6 406.908 244.782 406.908 246.24C406.908 247.699 408.09 248.881 409.548 248.881H457.516C458.974 248.881 460.156 247.699 460.156 246.24C460.156 244.782 458.974 243.6 457.516 243.6Z" fill="#666666"/>
<path d="M382.497 268.7C373.261 268.7 365.748 276.213 365.748 285.449C365.748 294.686 373.261 302.199 382.497 302.199C391.734 302.199 399.247 294.686 399.247 285.449C399.247 276.213 391.734 268.7 382.497 268.7ZM381.142 290.959C379.809 291.743 378.128 290.782 378.128 289.235V281.664C378.128 280.117 379.809 279.156 381.142 279.94L387.578 283.725C388.892 284.499 388.892 286.4 387.578 287.173L381.142 290.959Z" fill="#6B6B89"/>
<path d="M440.042 271.683H410.931C408.709 271.683 406.908 273.484 406.908 275.706C406.908 277.927 408.709 279.728 410.931 279.728H440.042C442.264 279.728 444.065 277.927 444.065 275.706C444.065 273.484 442.264 271.683 440.042 271.683Z" fill="#BBBBD5"/>
<path d="M487.528 284.932H409.548C408.09 284.932 406.908 286.114 406.908 287.572C406.908 289.031 408.09 290.213 409.548 290.213H487.528C488.986 290.213 490.168 289.031 490.168 287.572C490.168 286.114 488.986 284.932 487.528 284.932Z" fill="#666666"/>
<path d="M457.516 293.934H409.548C408.09 293.934 406.908 295.116 406.908 296.574C406.908 298.033 408.09 299.215 409.548 299.215H457.516C458.974 299.215 460.156 298.033 460.156 296.574C460.156 295.116 458.974 293.934 457.516 293.934Z" fill="#666666"/>
<path d="M322.55 67.3628H96.9893C93.1233 67.3628 89.9893 70.4968 89.9893 74.3628V194.716C89.9893 198.582 93.1233 201.716 96.9893 201.716H322.55C326.416 201.716 329.55 198.582 329.55 194.716V74.3628C329.55 70.4968 326.416 67.3628 322.55 67.3628Z" fill="#EDEDFF"/>
<g filter="url(#filter0_d_132_322)">
<path d="M209.769 97.6035C190.169 97.6035 174.225 113.547 174.225 133.147C174.225 152.748 190.169 168.691 209.769 168.691C229.369 168.691 245.313 152.748 245.313 133.147C245.313 113.547 229.369 97.6035 209.769 97.6035ZM203.511 146.828C202.178 147.613 200.497 146.651 200.497 145.104V121.19C200.497 119.644 202.178 118.682 203.511 119.467L223.838 131.424C225.153 132.197 225.153 134.098 223.838 134.871L203.511 146.828Z" fill="#FF4F00"/>
</g>
<path d="M210.186 154.29C221.912 154.29 231.418 144.784 231.418 133.058C231.418 121.332 221.912 111.826 210.186 111.826C198.46 111.826 188.954 121.332 188.954 133.058C188.954 144.784 198.46 154.29 210.186 154.29Z" fill="white"/>
<path d="M209.769 97.6035C190.169 97.6035 174.225 113.547 174.225 133.147C174.225 152.748 190.169 168.691 209.769 168.691C229.369 168.691 245.313 152.748 245.313 133.147C245.313 113.547 229.369 97.6035 209.769 97.6035ZM203.511 146.828C202.178 147.613 200.497 146.651 200.497 145.104V121.19C200.497 119.644 202.178 118.682 203.511 119.467L223.838 131.424C225.153 132.197 225.153 134.098 223.838 134.871L203.511 146.828Z" fill="#FF4F00"/>
<path d="M225.747 213.428H95.6411C92.5192 213.428 89.9883 215.959 89.9883 219.081C89.9883 222.203 92.5192 224.734 95.6411 224.734H225.747C228.869 224.734 231.4 222.203 231.4 219.081C231.4 215.959 228.869 213.428 225.747 213.428Z" fill="#BBBBD4"/>
<path d="M325.027 273.936H94.5106C92.013 273.936 89.9883 275.961 89.9883 278.458C89.9883 280.956 92.013 282.98 94.5106 282.98H325.027C327.524 282.98 329.549 280.956 329.549 278.458C329.549 275.961 327.524 273.936 325.027 273.936Z" fill="#E7E7F4"/>
<path d="M178.519 231.517H94.5106C92.013 231.517 89.9883 233.542 89.9883 236.039C89.9883 238.537 92.013 240.561 94.5106 240.561H178.519C181.016 240.561 183.041 238.537 183.041 236.039C183.041 233.542 181.016 231.517 178.519 231.517Z" fill="#E7E7F4"/>
<path d="M243.103 293.155H94.5106C92.013 293.155 89.9883 295.18 89.9883 297.677C89.9883 300.175 92.013 302.199 94.5106 302.199H243.103C245.6 302.199 247.625 300.175 247.625 297.677C247.625 295.18 245.6 293.155 243.103 293.155Z" fill="#E7E7F4"/>
<path d="M300.343 229.2C304.698 229.2 308.229 225.669 308.229 221.314C308.229 216.959 304.698 213.428 300.343 213.428C295.988 213.428 292.457 216.959 292.457 221.314C292.457 225.669 295.988 229.2 300.343 229.2Z" fill="#E7E7F4"/>
<path d="M321.663 229.2C326.018 229.2 329.549 225.669 329.549 221.314C329.549 216.959 326.018 213.428 321.663 213.428C317.308 213.428 313.777 216.959 313.777 221.314C313.777 225.669 317.308 229.2 321.663 229.2Z" fill="#E7E7F4"/>
<path d="M89.9883 257.864H329.549" stroke="#E7E7F4"/>
</g>
<g clip-path="url(#clip1_132_322)">
<mask id="mask0_132_322" style="mask-type:luminance" maskUnits="userSpaceOnUse" x="395" y="280" width="231" height="156">
<path d="M625.272 280.495H395.561V435.855H625.272V280.495Z" fill="white"/>
</mask>
<g mask="url(#mask0_132_322)">
<path d="M604.487 280.495H415.535C404.504 280.495 395.561 289.438 395.561 300.47V414.945C395.561 425.976 404.504 434.92 415.535 434.92H604.487C615.519 434.92 624.462 425.976 624.462 414.945V300.47C624.462 289.438 615.519 280.495 604.487 280.495Z" fill="white"/>
<path d="M604.806 293.022H415.217C411.54 293.022 408.559 296.003 408.559 299.681V415.734C408.559 419.411 411.54 422.392 415.217 422.392H604.806C608.484 422.392 611.465 419.411 611.465 415.734V299.681C611.465 296.003 608.484 293.022 604.806 293.022Z" fill="#F8F8FF"/>
<path d="M457.009 355.087C457.009 352.209 454.676 349.875 451.797 349.875C448.919 349.875 446.586 352.209 446.586 355.087V402.549C446.586 405.428 448.919 407.761 451.797 407.761C454.676 407.761 457.009 405.428 457.009 402.549V355.087Z" fill="#E0E0F2"/>
<path d="M495.819 355.087C495.819 352.209 493.485 349.875 490.607 349.875C487.729 349.875 485.396 352.209 485.396 355.087V402.549C485.396 405.428 487.729 407.761 490.607 407.761C493.485 407.761 495.819 405.428 495.819 402.549V355.087Z" fill="#E0E0F2"/>
<path d="M534.627 363.436C534.627 360.558 532.294 358.225 529.416 358.225C526.538 358.225 524.205 360.558 524.205 363.436V402.55C524.205 405.428 526.538 407.762 529.416 407.762C532.294 407.762 534.627 405.428 534.627 402.55V363.436Z" fill="#E0E0F2"/>
<path d="M573.436 363.436C573.436 360.558 571.103 358.224 568.224 358.224C565.347 358.224 563.013 360.558 563.013 363.436V402.549C563.013 405.428 565.347 407.761 568.224 407.761C571.103 407.761 573.436 405.428 573.436 402.549V363.436Z" fill="#E0E0F2"/>
<g filter="url(#filter1_d_132_322)">
<path d="M437.604 374.291C437.604 371.413 435.271 369.079 432.393 369.079C429.514 369.079 427.181 371.413 427.181 374.291V402.551C427.181 405.429 429.514 407.763 432.393 407.763C435.271 407.763 437.604 405.429 437.604 402.551V374.291Z" fill="#FF4F00"/>
<path d="M476.414 344.449C476.414 341.571 474.08 339.237 471.202 339.237C468.324 339.237 465.991 341.571 465.991 344.449V402.549C465.991 405.428 468.324 407.761 471.202 407.761C474.08 407.761 476.414 405.428 476.414 402.549V344.449Z" fill="#FF4F00"/>
<path d="M515.223 332.824C515.223 329.946 512.889 327.612 510.012 327.612C507.133 327.612 504.8 329.946 504.8 332.824V402.55C504.8 405.428 507.133 407.762 510.012 407.762C512.889 407.762 515.223 405.428 515.223 402.55V332.824Z" fill="#FF4F00"/>
<path d="M554.033 320.716C554.033 317.837 551.699 315.504 548.821 315.504C545.943 315.504 543.609 317.837 543.609 320.716V402.55C543.609 405.429 545.943 407.762 548.821 407.762C551.699 407.762 554.033 405.429 554.033 402.55V320.716Z" fill="#FF4F00"/>
<path d="M592.843 312.863C592.843 309.985 590.509 307.652 587.631 307.652C584.753 307.652 582.419 309.985 582.419 312.863V402.55C582.419 405.429 584.753 407.762 587.631 407.762C590.509 407.762 592.843 405.429 592.843 402.55V312.863Z" fill="#FF4F00"/>
</g>
<path d="M437.604 374.291C437.604 371.413 435.271 369.079 432.393 369.079C429.514 369.079 427.181 371.413 427.181 374.291V402.551C427.181 405.429 429.514 407.763 432.393 407.763C435.271 407.763 437.604 405.429 437.604 402.551V374.291Z" fill="#FF4F00"/>
<path d="M476.414 344.449C476.414 341.571 474.08 339.237 471.202 339.237C468.324 339.237 465.991 341.571 465.991 344.449V402.549C465.991 405.428 468.324 407.761 471.202 407.761C474.08 407.761 476.414 405.428 476.414 402.549V344.449Z" fill="#FF4F00"/>
<path d="M515.222 332.824C515.222 329.946 512.889 327.612 510.011 327.612C507.132 327.612 504.799 329.946 504.799 332.824V402.55C504.799 405.428 507.132 407.762 510.011 407.762C512.889 407.762 515.222 405.428 515.222 402.55V332.824Z" fill="#FF4F00"/>
<path d="M554.032 320.716C554.032 317.837 551.699 315.504 548.82 315.504C545.943 315.504 543.609 317.837 543.609 320.716V402.55C543.609 405.429 545.943 407.762 548.82 407.762C551.699 407.762 554.032 405.429 554.032 402.55V320.716Z" fill="#FF4F00"/>
<path d="M592.842 312.863C592.842 309.985 590.509 307.652 587.63 307.652C584.753 307.652 582.419 309.985 582.419 312.863V402.55C582.419 405.429 584.753 407.762 587.63 407.762C590.509 407.762 592.842 405.429 592.842 402.55V312.863Z" fill="#FF4F00"/>
</g>
</g>
<g clip-path="url(#clip2_132_322)">
<path d="M647.209 0H479.618C468.602 0 459.672 8.93026 459.672 19.9463V204.957C459.672 215.973 468.602 224.903 479.618 224.903H647.209C658.225 224.903 667.156 215.973 667.156 204.957V19.9463C667.156 8.93026 658.225 0 647.209 0Z" fill="white"/>
<path d="M643.357 13.895H483.469C477.349 13.895 472.388 18.8563 472.388 24.9763V199.927C472.388 206.048 477.349 211.009 483.469 211.009H643.357C649.476 211.009 654.439 206.048 654.439 199.927V24.9763C654.439 18.8563 649.476 13.895 643.357 13.895Z" fill="#F3F3FD"/>
<path d="M571.399 35.3184H556.564C553.146 35.3184 550.376 38.0887 550.376 41.506C550.376 44.9233 553.146 47.6936 556.564 47.6936H571.399C574.816 47.6936 577.587 44.9233 577.587 41.506C577.587 38.0887 574.816 35.3184 571.399 35.3184Z" fill="#FFFDF9"/>
<path d="M591.936 129.664H556.564C553.146 129.664 550.376 132.435 550.376 135.852C550.376 139.27 553.146 142.04 556.564 142.04H591.936C595.353 142.04 598.124 139.27 598.124 135.852C598.124 132.435 595.353 129.664 591.936 129.664Z" fill="#FFFDF9"/>
<path d="M589.941 58.905H496.396C492.978 58.905 490.208 61.6753 490.208 65.0927C490.208 68.51 492.978 71.2803 496.396 71.2803H589.941C593.359 71.2803 596.129 68.51 596.129 65.0927C596.129 61.6753 593.359 58.905 589.941 58.905Z" fill="#FFFDF9"/>
<path d="M589.941 177.208H496.396C492.978 177.208 490.208 179.979 490.208 183.396C490.208 186.814 492.978 189.584 496.396 189.584H589.941C593.359 189.584 596.129 186.814 596.129 183.396C596.129 179.979 593.359 177.208 589.941 177.208Z" fill="#FFFDF9"/>
<path d="M571.399 153.251H496.396C492.978 153.251 490.208 156.021 490.208 159.439C490.208 162.856 492.978 165.626 496.396 165.626H571.399C574.816 165.626 577.587 162.856 577.587 159.439C577.587 156.021 574.816 153.251 571.399 153.251Z" fill="#FFFDF9"/>
<path d="M518.73 82.4917H496.396C492.978 82.4917 490.208 85.262 490.208 88.6794C490.208 92.0966 492.978 94.8669 496.396 94.8669H518.73C522.147 94.8669 524.918 92.0966 524.918 88.6794C524.918 85.262 522.147 82.4917 518.73 82.4917Z" fill="#FFFDF9"/>
<path d="M611.375 82.4917H537.832C534.414 82.4917 531.644 85.262 531.644 88.6794C531.644 92.0966 534.414 94.8669 537.832 94.8669H611.375C614.792 94.8669 617.563 92.0966 617.563 88.6794C617.563 85.262 614.792 82.4917 611.375 82.4917Z" fill="#FFFDF9"/>
<path d="M630.43 106.078H496.396C492.978 106.078 490.208 108.848 490.208 112.266C490.208 115.683 492.978 118.453 496.396 118.453H630.43C633.847 118.453 636.618 115.683 636.618 112.266C636.618 108.848 633.847 106.078 630.43 106.078Z" fill="#FFFDF9"/>
<g filter="url(#filter2_d_132_322)">
<path d="M537.462 35.3184H496.396C492.978 35.3184 490.208 38.0887 490.208 41.506C490.208 44.9233 492.978 47.6936 496.396 47.6936H537.462C540.879 47.6936 543.649 44.9233 543.649 41.506C543.649 38.0887 540.879 35.3184 537.462 35.3184Z" fill="#FF4F00"/>
</g>
<path d="M537.462 35.3184H496.396C492.978 35.3184 490.208 38.0887 490.208 41.506C490.208 44.9233 492.978 47.6936 496.396 47.6936H537.462C540.879 47.6936 543.649 44.9233 543.649 41.506C543.649 38.0887 540.879 35.3184 537.462 35.3184Z" fill="#FF4F00"/>
<g filter="url(#filter3_d_132_322)">
<path d="M537.462 129.664H496.396C492.978 129.664 490.208 132.435 490.208 135.852C490.208 139.27 492.978 142.04 496.396 142.04H537.462C540.879 142.04 543.649 139.27 543.649 135.852C543.649 132.435 540.879 129.664 537.462 129.664Z" fill="#FF4F00"/>
</g>
<path d="M537.462 129.664H496.396C492.978 129.664 490.208 132.435 490.208 135.852C490.208 139.27 492.978 142.04 496.396 142.04H537.462C540.879 142.04 543.649 139.27 543.649 135.852C543.649 132.435 540.879 129.664 537.462 129.664Z" fill="#FF4F00"/>
<g filter="url(#filter4_d_132_322)">
<path d="M630.246 58.9045H609.043C605.626 58.9045 602.855 61.6749 602.855 65.0922C602.855 68.5095 605.626 71.2798 609.043 71.2798H630.246C633.664 71.2798 636.434 68.5095 636.434 65.0922C636.434 61.6749 633.664 58.9045 630.246 58.9045Z" fill="#FF4F00"/>
</g>
<path d="M630.246 58.9045H609.043C605.626 58.9045 602.855 61.6749 602.855 65.0922C602.855 68.5095 605.626 71.2798 609.043 71.2798H630.246C633.664 71.2798 636.434 68.5095 636.434 65.0922C636.434 61.6749 633.664 58.9045 630.246 58.9045Z" fill="#FF4F00"/>
<g filter="url(#filter5_d_132_322)">
<path d="M630.246 177.208H609.043C605.626 177.208 602.855 179.979 602.855 183.396C602.855 186.814 605.626 189.584 609.043 189.584H630.246C633.664 189.584 636.434 186.814 636.434 183.396C636.434 179.979 633.664 177.208 630.246 177.208Z" fill="#FF4F00"/>
</g>
<path d="M630.246 177.208H609.043C605.626 177.208 602.855 179.979 602.855 183.396C602.855 186.814 605.626 189.584 609.043 189.584H630.246C633.664 189.584 636.434 186.814 636.434 183.396C636.434 179.979 633.664 177.208 630.246 177.208Z" fill="#FF4F00"/>
</g>
<g clip-path="url(#clip3_132_322)">
<path d="M120.417 229.64H24.2646C10.9888 229.64 0.226562 240.402 0.226562 253.678V461.526C0.226562 474.802 10.9888 485.564 24.2646 485.564H120.417C133.692 485.564 144.455 474.802 144.455 461.526V253.678C144.455 240.402 133.692 229.64 120.417 229.64Z" fill="white"/>
<g filter="url(#filter6_d_132_322)">
<path d="M93.1976 450.908H51.4846C46.5091 450.908 42.4756 454.941 42.4756 459.917C42.4756 464.893 46.5091 468.926 51.4846 468.926H93.1976C98.1731 468.926 102.207 464.893 102.207 459.917C102.207 454.941 98.1731 450.908 93.1976 450.908Z" fill="#FF4F00"/>
</g>
<path d="M93.1976 450.908H51.4846C46.5091 450.908 42.4756 454.941 42.4756 459.917C42.4756 464.893 46.5091 468.926 51.4846 468.926H93.1976C98.1731 468.926 102.207 464.893 102.207 459.917C102.207 454.941 98.1731 450.908 93.1976 450.908Z" fill="#FF4F00"/>
<g filter="url(#filter7_d_132_322)">
<path d="M122.175 246.278H22.5049C18.2808 246.278 14.8564 249.703 14.8564 253.927V283.617C14.8564 287.842 18.2808 291.266 22.5049 291.266H122.175C126.399 291.266 129.823 287.842 129.823 283.617V253.927C129.823 249.703 126.399 246.278 122.175 246.278Z" fill="#FF4F00"/>
</g>
<path d="M122.175 246.278H22.5049C18.2808 246.278 14.8564 249.703 14.8564 253.927V283.617C14.8564 287.842 18.2808 291.266 22.5049 291.266H122.175C126.399 291.266 129.823 287.842 129.823 283.617V253.927C129.823 249.703 126.399 246.278 122.175 246.278Z" fill="#FF4F00"/>
<path d="M99.3058 271.153H45.3746C43.6314 271.153 42.2183 272.566 42.2183 274.309C42.2183 276.053 43.6314 277.466 45.3746 277.466H99.3058C101.049 277.466 102.462 276.053 102.462 274.309C102.462 272.566 101.049 271.153 99.3058 271.153Z" fill="#D6D6FF"/>
<path d="M88.5036 260.077H56.1773C54.4341 260.077 53.021 261.49 53.021 263.233C53.021 264.977 54.4341 266.39 56.1773 266.39H88.5036C90.2467 266.39 91.6598 264.977 91.6598 263.233C91.6598 261.49 90.2467 260.077 88.5036 260.077Z" fill="white"/>
<path d="M123.267 362.694H21.4123C17.7916 362.694 14.8564 365.629 14.8564 369.25V432.172C14.8564 435.792 17.7916 438.728 21.4123 438.728H123.267C126.887 438.728 129.823 435.792 129.823 432.172V369.25C129.823 365.629 126.887 362.694 123.267 362.694Z" fill="#F8F8FF"/>
<path d="M89.1514 378.658H56.8983C55.5891 378.658 54.5278 379.719 54.5278 381.028C54.5278 382.338 55.5891 383.399 56.8983 383.399H89.1514C90.4604 383.399 91.5217 382.338 91.5217 381.028C91.5217 379.719 90.4604 378.658 89.1514 378.658Z" fill="#666666"/>
<path d="M111.046 387.027H56.8983C55.5891 387.027 54.5278 388.088 54.5278 389.397C54.5278 390.707 55.5891 391.768 56.8983 391.768H111.046C112.355 391.768 113.417 390.707 113.417 389.397C113.417 388.088 112.355 387.027 111.046 387.027Z" fill="#E0E0EF"/>
<path d="M114.709 409.655H56.8983C55.5891 409.655 54.5278 410.715 54.5278 412.024C54.5278 413.335 55.5891 414.396 56.8983 414.396H114.709C116.018 414.396 117.08 413.335 117.08 412.024C117.08 410.715 116.018 409.655 114.709 409.655Z" fill="#666666"/>
<path d="M95.8693 418.024H56.8983C55.5891 418.024 54.5278 419.085 54.5278 420.394C54.5278 421.704 55.5891 422.765 56.8983 422.765H95.8693C97.1784 422.765 98.2397 421.704 98.2397 420.394C98.2397 419.085 97.1784 418.024 95.8693 418.024Z" fill="#E0E0EF"/>
<path d="M43.9483 373.344H26.6964C24.886 373.344 23.4185 374.811 23.4185 376.622V393.806C23.4185 395.616 24.886 397.084 26.6964 397.084H43.9483C45.7585 397.084 47.2262 395.616 47.2262 393.806V376.622C47.2262 374.811 45.7585 373.344 43.9483 373.344Z" fill="#DFDFF4"/>
<path d="M43.9483 404.34H26.6964C24.886 404.34 23.4185 405.807 23.4185 407.618V424.802C23.4185 426.612 24.886 428.08 26.6964 428.08H43.9483C45.7585 428.08 47.2262 426.612 47.2262 424.802V407.618C47.2262 405.807 45.7585 404.34 43.9483 404.34Z" fill="#DFDFF4"/>
<path d="M22.1327 323.109C26.1512 323.109 29.4089 319.86 29.4089 315.852C29.4089 311.845 26.1512 308.596 22.1327 308.596C18.1141 308.596 14.8564 311.845 14.8564 315.852C14.8564 319.86 18.1141 323.109 22.1327 323.109Z" fill="#FF4F00"/>
<path d="M87.2386 323.109C91.2571 323.109 94.5148 319.86 94.5148 315.852C94.5148 311.845 91.2571 308.596 87.2386 308.596C83.2201 308.596 79.9624 311.845 79.9624 315.852C79.9624 319.86 83.2201 323.109 87.2386 323.109Z" fill="#FF4F00"/>
<path d="M22.1327 347.149C26.1512 347.149 29.4089 343.901 29.4089 339.893C29.4089 335.885 26.1512 332.636 22.1327 332.636C18.1141 332.636 14.8564 335.885 14.8564 339.893C14.8564 343.901 18.1141 347.149 22.1327 347.149Z" fill="#DFDFF4"/>
<path d="M87.2386 347.149C91.2571 347.149 94.5148 343.901 94.5148 339.893C94.5148 335.885 91.2571 332.636 87.2386 332.636C83.2201 332.636 79.9624 335.885 79.9624 339.893C79.9624 343.901 83.2201 347.149 87.2386 347.149Z" fill="#DFDFF4"/>
<path d="M54.1532 310.214H35.8403C34.8652 310.214 34.0747 311.004 34.0747 311.979C34.0747 312.954 34.8652 313.745 35.8403 313.745H54.1532C55.1283 313.745 55.9187 312.954 55.9187 311.979C55.9187 311.004 55.1283 310.214 54.1532 310.214Z" fill="#666666"/>
<path d="M119.259 310.214H100.945C99.9701 310.214 99.1797 311.004 99.1797 311.979C99.1797 312.954 99.9701 313.745 100.945 313.745H119.259C120.233 313.745 121.023 312.954 121.023 311.979C121.023 311.004 120.233 310.214 119.259 310.214Z" fill="#666666"/>
<path d="M54.1532 334.255H35.8403C34.8652 334.255 34.0747 335.045 34.0747 336.02C34.0747 336.996 34.8652 337.786 35.8403 337.786H54.1532C55.1283 337.786 55.9187 336.996 55.9187 336.02C55.9187 335.045 55.1283 334.255 54.1532 334.255Z" fill="#666666"/>
<path d="M119.259 334.255H100.945C99.9701 334.255 99.1797 335.045 99.1797 336.02C99.1797 336.996 99.9701 337.786 100.945 337.786H119.259C120.233 337.786 121.023 336.996 121.023 336.02C121.023 335.045 120.233 334.255 119.259 334.255Z" fill="#666666"/>
<path d="M62.9523 317.023H35.8403C34.8652 317.023 34.0747 317.814 34.0747 318.789C34.0747 319.764 34.8652 320.555 35.8403 320.555H62.9523C63.9273 320.555 64.7177 319.764 64.7177 318.789C64.7177 317.814 63.9273 317.023 62.9523 317.023Z" fill="#E0E0EF"/>
<path d="M128.058 317.023H100.945C99.9701 317.023 99.1797 317.814 99.1797 318.789C99.1797 319.764 99.9701 320.555 100.945 320.555H128.058C129.032 320.555 129.822 319.764 129.822 318.789C129.822 317.814 129.032 317.023 128.058 317.023Z" fill="#E0E0EF"/>
<path d="M62.9523 341.064H35.8403C34.8652 341.064 34.0747 341.854 34.0747 342.83C34.0747 343.805 34.8652 344.596 35.8403 344.596H62.9523C63.9273 344.596 64.7177 343.805 64.7177 342.83C64.7177 341.854 63.9273 341.064 62.9523 341.064Z" fill="#E0E0EF"/>
<path d="M128.058 341.064H100.945C99.9701 341.064 99.1797 341.854 99.1797 342.83C99.1797 343.805 99.9701 344.596 100.945 344.596H128.058C129.032 344.596 129.822 343.805 129.822 342.83C129.822 341.854 129.032 341.064 128.058 341.064Z" fill="#E0E0EF"/>
</g>
<defs>
<filter id="filter0_d_132_322" x="150.225" y="77.6035" width="119.088" height="119.088" filterUnits="userSpaceOnUse" color-interpolation-filters="sRGB">
<feFlood flood-opacity="0" result="BackgroundImageFix"/>
<feColorMatrix in="SourceAlpha" type="matrix" values="0 0 0 0 0 0 0 0 0 0 0 0 0 0 0 0 0 0 127 0" result="hardAlpha"/>
<feOffset dy="4"/>
<feGaussianBlur stdDeviation="12"/>
<feColorMatrix type="matrix" values="0 0 0 0 0.203922 0 0 0 0 0.203922 0 0 0 0 1 0 0 0 0.54 0"/>
<feBlend mode="normal" in2="BackgroundImageFix" result="effect1_dropShadow_132_322"/>
<feBlend mode="normal" in="SourceGraphic" in2="effect1_dropShadow_132_322" result="shape"/>
</filter>
<filter id="filter1_d_132_322" x="422.742" y="305.432" width="174.539" height="108.989" filterUnits="userSpaceOnUse" color-interpolation-filters="sRGB">
<feFlood flood-opacity="0" result="BackgroundImageFix"/>
<feColorMatrix in="SourceAlpha" type="matrix" values="0 0 0 0 0 0 0 0 0 0 0 0 0 0 0 0 0 0 127 0" result="hardAlpha"/>
<feOffset dy="2.21943"/>
<feGaussianBlur stdDeviation="2.21943"/>
<feColorMatrix type="matrix" values="0 0 0 0 0.203922 0 0 0 0 0.203922 0 0 0 0 1 0 0 0 0.35 0"/>
<feBlend mode="normal" in2="BackgroundImageFix" result="effect1_dropShadow_132_322"/>
<feBlend mode="normal" in="SourceGraphic" in2="effect1_dropShadow_132_322" result="shape"/>
</filter>
<filter id="filter2_d_132_322" x="483.559" y="31.994" width="66.7385" height="25.6728" filterUnits="userSpaceOnUse" color-interpolation-filters="sRGB">
<feFlood flood-opacity="0" result="BackgroundImageFix"/>
<feColorMatrix in="SourceAlpha" type="matrix" values="0 0 0 0 0 0 0 0 0 0 0 0 0 0 0 0 0 0 127 0" result="hardAlpha"/>
<feOffset dy="3.32438"/>
<feGaussianBlur stdDeviation="3.32438"/>
<feColorMatrix type="matrix" values="0 0 0 0 0.203922 0 0 0 0 0.203922 0 0 0 0 1 0 0 0 0.32 0"/>
<feBlend mode="normal" in2="BackgroundImageFix" result="effect1_dropShadow_132_322"/>
<feBlend mode="normal" in="SourceGraphic" in2="effect1_dropShadow_132_322" result="shape"/>
</filter>
<filter id="filter3_d_132_322" x="483.559" y="126.34" width="66.7385" height="25.673" filterUnits="userSpaceOnUse" color-interpolation-filters="sRGB">
<feFlood flood-opacity="0" result="BackgroundImageFix"/>
<feColorMatrix in="SourceAlpha" type="matrix" values="0 0 0 0 0 0 0 0 0 0 0 0 0 0 0 0 0 0 127 0" result="hardAlpha"/>
<feOffset dy="3.32438"/>
<feGaussianBlur stdDeviation="3.32438"/>
<feColorMatrix type="matrix" values="0 0 0 0 0.203922 0 0 0 0 0.203922 0 0 0 0 1 0 0 0 0.32 0"/>
<feBlend mode="normal" in2="BackgroundImageFix" result="effect1_dropShadow_132_322"/>
<feBlend mode="normal" in="SourceGraphic" in2="effect1_dropShadow_132_322" result="shape"/>
</filter>
<filter id="filter4_d_132_322" x="596.207" y="55.5802" width="46.8762" height="25.6728" filterUnits="userSpaceOnUse" color-interpolation-filters="sRGB">
<feFlood flood-opacity="0" result="BackgroundImageFix"/>
<feColorMatrix in="SourceAlpha" type="matrix" values="0 0 0 0 0 0 0 0 0 0 0 0 0 0 0 0 0 0 127 0" result="hardAlpha"/>
<feOffset dy="3.32438"/>
<feGaussianBlur stdDeviation="3.32438"/>
<feColorMatrix type="matrix" values="0 0 0 0 0.203922 0 0 0 0 0.203922 0 0 0 0 1 0 0 0 0.32 0"/>
<feBlend mode="normal" in2="BackgroundImageFix" result="effect1_dropShadow_132_322"/>
<feBlend mode="normal" in="SourceGraphic" in2="effect1_dropShadow_132_322" result="shape"/>
</filter>
<filter id="filter5_d_132_322" x="596.207" y="173.884" width="46.8762" height="25.673" filterUnits="userSpaceOnUse" color-interpolation-filters="sRGB">
<feFlood flood-opacity="0" result="BackgroundImageFix"/>
<feColorMatrix in="SourceAlpha" type="matrix" values="0 0 0 0 0 0 0 0 0 0 0 0 0 0 0 0 0 0 127 0" result="hardAlpha"/>
<feOffset dy="3.32438"/>
<feGaussianBlur stdDeviation="3.32438"/>
<feColorMatrix type="matrix" values="0 0 0 0 0.203922 0 0 0 0 0.203922 0 0 0 0 1 0 0 0 0.32 0"/>
<feBlend mode="normal" in2="BackgroundImageFix" result="effect1_dropShadow_132_322"/>
<feBlend mode="normal" in="SourceGraphic" in2="effect1_dropShadow_132_322" result="shape"/>
</filter>
<filter id="filter6_d_132_322" x="35.9198" y="447.63" width="72.8426" height="31.1292" filterUnits="userSpaceOnUse" color-interpolation-filters="sRGB">
<feFlood flood-opacity="0" result="BackgroundImageFix"/>
<feColorMatrix in="SourceAlpha" type="matrix" values="0 0 0 0 0 0 0 0 0 0 0 0 0 0 0 0 0 0 127 0" result="hardAlpha"/>
<feOffset dy="3.27792"/>
<feGaussianBlur stdDeviation="3.27792"/>
<feColorMatrix type="matrix" values="0 0 0 0 0.203922 0 0 0 0 0.203922 0 0 0 0 1 0 0 0 0.32 0"/>
<feBlend mode="normal" in2="BackgroundImageFix" result="effect1_dropShadow_132_322"/>
<feBlend mode="normal" in="SourceGraphic" in2="effect1_dropShadow_132_322" result="shape"/>
</filter>
<filter id="filter7_d_132_322" x="6.11534" y="244.093" width="132.449" height="62.4698" filterUnits="userSpaceOnUse" color-interpolation-filters="sRGB">
<feFlood flood-opacity="0" result="BackgroundImageFix"/>
<feColorMatrix in="SourceAlpha" type="matrix" values="0 0 0 0 0 0 0 0 0 0 0 0 0 0 0 0 0 0 127 0" result="hardAlpha"/>
<feOffset dy="6.55583"/>
<feGaussianBlur stdDeviation="4.37055"/>
<feColorMatrix type="matrix" values="0 0 0 0 0.203922 0 0 0 0 0.203922 0 0 0 0 1 0 0 0 0.1 0"/>
<feBlend mode="normal" in2="BackgroundImageFix" result="effect1_dropShadow_132_322"/>
<feBlend mode="normal" in="SourceGraphic" in2="effect1_dropShadow_132_322" result="shape"/>
</filter>
<clipPath id="clip0_132_322">
<rect width="484" height="309" fill="white" transform="translate(53.6562 30.3301)"/>
</clipPath>
<clipPath id="clip1_132_322">
<rect width="229.711" height="156.47" fill="white" transform="translate(395.561 279.94)"/>
</clipPath>
<clipPath id="clip2_132_322">
<rect width="208.328" height="224.95" fill="white" transform="translate(459.672)"/>
</clipPath>
<clipPath id="clip3_132_322">
<rect width="144.228" height="256.77" fill="white" transform="translate(0.226562 229.64)"/>
</clipPath>
</defs>
</svg>
