<svg width="134" height="28" viewBox="0 0 134 28" fill="none" xmlns="http://www.w3.org/2000/svg">
<mask id="mask0_132_352" style="mask-type:luminance" maskUnits="userSpaceOnUse" x="0" y="0" width="134" height="28">
<path d="M133.233 0.585449H0.530273V27.1262H133.233V0.585449Z" fill="white"/>
</mask>
<g mask="url(#mask0_132_352)">
<path d="M9.16823 25.9093H4.16856V13.1553H0.762695V9.00296H4.16843V6.0482C4.16843 2.54682 5.67479 0.0356445 10.6609 0.0356445C11.7155 0.0356445 13.3711 0.253158 13.3711 0.253158V4.10892H11.6322C9.86031 4.10892 9.1685 4.66044 9.1685 6.1852V9.00296H13.3048L12.9365 13.1553H9.16837L9.16823 25.9093ZM20.6401 8.67112C20.5673 8.67112 20.4923 8.67384 20.4181 8.67574C15.7821 8.67574 13.6611 12.2441 13.6611 17.3097C13.6611 23.6909 16.4124 26.2449 20.4543 26.2449C22.7669 26.2449 24.2863 25.2487 25.2097 23.39V25.9111H29.9651V9.00472H25.2097V11.6046C24.4557 9.93193 22.8939 8.69094 20.6401 8.67112ZM21.8493 12.666C23.7964 12.666 24.9651 14.0558 24.9651 16.4198L24.9696 18.8343C24.9696 20.4276 24.0043 22.2917 21.8493 22.2917C18.5361 22.2917 18.6246 18.6309 18.6246 17.4116C18.6246 13.3103 20.3899 12.666 21.8493 12.666ZM31.8856 17.4587C31.8856 15.4043 31.7895 8.68212 40.3482 8.68212C43.7838 8.68212 45.2184 9.79996 45.2184 9.79996L44.0654 13.4595C44.0654 13.4595 42.6326 12.6522 40.7658 12.6522C38.3747 12.6522 36.8489 14.0706 36.8489 16.5663L36.8516 18.3558C36.8516 20.7539 38.3237 22.3547 40.7707 22.3547C42.4714 22.3547 44.0389 21.5398 44.0389 21.5398L45.1891 25.1229C45.1891 25.1229 43.8773 26.2478 40.3722 26.2478C32.223 26.2478 31.8856 20.2166 31.8856 17.4587ZM73.101 8.67574C77.7371 8.67574 79.8916 12.2441 79.8916 17.3097C79.8916 23.6909 77.1402 26.2449 73.0982 26.2449C70.7857 26.2449 69.0762 25.2489 68.1527 23.39V25.9111L63.4571 25.9092V0.549692L68.4426 0.104755V11.3756C69.1622 9.40377 71.5267 8.67574 73.101 8.67574ZM71.7033 12.666C69.7562 12.666 68.4426 14.0558 68.4426 16.4198L68.438 18.8343C68.435 20.4276 69.3476 22.2917 71.7033 22.2917C75.0164 22.2917 74.9279 18.6309 74.9279 17.4116C74.9279 13.3103 73.1628 12.666 71.7033 12.666ZM53.8686 8.68972C48.6103 8.68972 45.8343 11.6234 45.8343 16.8369V17.8055C45.8343 24.5722 49.7327 26.3144 54.3803 26.3144C58.8978 26.3144 60.9426 25.0213 60.9426 25.0213L60.0097 21.5781C60.0097 21.5781 57.6044 22.6253 54.9781 22.6253C52.2554 22.6253 51.0845 21.9152 50.7843 19.2377H61.3412V16.4753C61.3412 10.82 58.2258 8.68972 53.8686 8.68972ZM53.9953 12.1376C55.8155 12.1376 56.9949 13.2797 56.9301 15.9286H50.7935C50.8999 13.1407 52.1718 12.1376 53.9953 12.1376ZM89.8325 8.6665C84.4326 8.6665 81.5899 11.7803 81.5899 17.3606C81.5899 25.017 86.4902 26.2494 89.8415 26.2494C94.7476 26.2494 98.0117 23.5465 98.0117 17.4301C98.0117 11.064 94.3416 8.6665 89.8325 8.6665ZM89.7645 12.6799C92.1389 12.6799 93.0798 14.4983 93.0798 16.5682V18.3478C93.0798 20.8553 91.7633 22.3057 89.7555 22.3057C87.8778 22.3057 86.5581 20.949 86.5581 18.3478V16.5682C86.5581 13.794 88.1284 12.6799 89.7645 12.6799ZM107.944 8.6665C102.544 8.6665 99.701 11.7803 99.701 17.3606C99.701 25.017 104.601 26.2494 107.953 26.2494C112.859 26.2494 116.123 23.5465 116.123 17.4301C116.123 11.064 112.453 8.6665 107.944 8.6665ZM107.876 12.6799C110.25 12.6799 111.191 14.4983 111.191 16.5682V18.3478C111.191 20.8553 109.874 22.3057 107.867 22.3057C105.989 22.3057 104.669 20.949 104.669 18.3478V16.5682C104.669 13.794 106.24 12.6799 107.876 12.6799ZM118.007 25.9093V0.549692L123.007 0.104891V17.1025L127.967 9.00309H133.248L128.073 17.3917L133.447 25.9093H128.152L123.007 17.6388V25.9093H118.007Z" fill="#3D60DE"/>
</g>
</svg>
