<svg width="23" height="22" viewBox="0 0 23 22" fill="none" xmlns="http://www.w3.org/2000/svg">
<g id="&#240;&#159;&#166;&#134; icon &#34;write book&#34;">
<path id="Vector" d="M0.5 16.7983H7.7649C10.2316 16.8011 12.2306 18.8 12.2333 21.2664V22H0.5V16.7983ZM10.6757 20.5334C10.3351 19.2207 9.16164 18.2668 7.76509 18.2649H1.96667V20.5334H10.6757ZM15.2351 16.7983H22.5V22.0001H10.7667V21.2667C10.7695 18.8 12.7684 16.8011 15.2348 16.7983H15.2351ZM21.0333 18.2649H15.2351C13.8384 18.2668 12.6649 19.2207 12.3289 20.5125L12.3242 20.5334H21.0333V18.2649ZM0.5 4.66402H7.7649C10.2316 4.66681 12.2306 6.66572 12.2333 9.13221V22H0.5V4.66402ZM10.7667 20.5334V9.13247C10.765 7.47532 9.42205 6.13239 7.76505 6.13067H1.96667V20.5334H10.7667ZM22.5 22.0001H10.7667V9.13249C10.7667 6.66465 12.7673 4.66404 15.2351 4.66404V6.13074C13.5773 6.13074 12.2333 7.47467 12.2333 9.13254V20.5334H21.0333V6.13074H18.9702V4.66402H22.5V22.0001ZM17.1027 14.8828L14.5018 12.2819V2.60092V2.59688C14.5018 1.87952 14.7916 1.22989 15.2606 0.758678L15.2605 0.758785C15.7269 0.290061 16.3724 0 17.0857 0H17.1066C18.5409 0.00335156 19.7025 1.1663 19.7036 2.60081V12.2809L17.1027 14.8828ZM15.9684 11.6747L17.1027 12.8089L18.2369 11.6747V2.60094C18.2363 1.97476 17.7288 1.46728 17.1027 1.46672H17.09C16.7804 1.46672 16.5002 1.5927 16.298 1.79618L16.2979 1.79624C16.0943 2.00078 15.9684 2.28287 15.9684 2.59435V2.59718V2.59703L15.9684 11.6747Z" fill="#1F293D"/>
</g>
</svg>
