<svg width="27" height="26" viewBox="0 0 27 26" fill="none" xmlns="http://www.w3.org/2000/svg">
<g id="People" clip-path="url(#clip0_1380_16521)">
<path id="Vector" d="M24.875 22.75C24.875 22.75 26.5 22.75 26.5 21.125C26.5 19.5 24.875 14.625 18.375 14.625C11.875 14.625 10.25 19.5 10.25 21.125C10.25 22.75 11.875 22.75 11.875 22.75H24.875ZM11.9107 21.125C11.8987 21.1233 11.8868 21.1212 11.875 21.1185C11.8766 20.6895 12.1464 19.4447 13.11 18.3235C14.007 17.2721 15.5833 16.25 18.375 16.25C21.1651 16.25 22.7414 17.2738 23.64 18.3235C24.6036 19.4447 24.8717 20.6911 24.875 21.1185L24.862 21.1217C24.8544 21.123 24.8469 21.1241 24.8392 21.125H11.9107ZM18.375 11.375C19.237 11.375 20.0636 11.0326 20.6731 10.4231C21.2826 9.8136 21.625 8.98695 21.625 8.125C21.625 7.26305 21.2826 6.4364 20.6731 5.8269C20.0636 5.21741 19.237 4.875 18.375 4.875C17.513 4.875 16.6864 5.21741 16.0769 5.8269C15.4674 6.4364 15.125 7.26305 15.125 8.125C15.125 8.98695 15.4674 9.8136 16.0769 10.4231C16.6864 11.0326 17.513 11.375 18.375 11.375ZM23.25 8.125C23.25 8.76519 23.1239 9.39912 22.8789 9.99058C22.6339 10.582 22.2748 11.1195 21.8221 11.5721C21.3695 12.0248 20.832 12.3839 20.2406 12.6289C19.6491 12.8739 19.0152 13 18.375 13C17.7348 13 17.1009 12.8739 16.5094 12.6289C15.918 12.3839 15.3805 12.0248 14.9279 11.5721C14.4752 11.1195 14.1161 10.582 13.8711 9.99058C13.6261 9.39912 13.5 8.76519 13.5 8.125C13.5 6.83207 14.0136 5.59209 14.9279 4.67785C15.8421 3.76361 17.0821 3.25 18.375 3.25C19.6679 3.25 20.9079 3.76361 21.8221 4.67785C22.7364 5.59209 23.25 6.83207 23.25 8.125ZM11.771 15.08C11.121 14.8753 10.4509 14.7408 9.77225 14.6786C9.39091 14.6424 9.00806 14.6245 8.625 14.625C2.125 14.625 0.5 19.5 0.5 21.125C0.5 22.2089 1.04112 22.75 2.125 22.75H8.976C8.7351 22.2427 8.61496 21.6865 8.625 21.125C8.625 19.4837 9.23763 17.8067 10.3962 16.406C10.7911 15.9282 11.251 15.4814 11.771 15.08ZM8.495 16.25C7.53325 17.6951 7.01372 19.3892 7 21.125H2.125C2.125 20.7025 2.3915 19.4513 3.36 18.3235C4.24563 17.29 5.7845 16.2825 8.495 16.2516V16.25ZM2.9375 8.9375C2.9375 7.64457 3.45111 6.40459 4.36535 5.49035C5.27959 4.57611 6.51957 4.0625 7.8125 4.0625C9.10543 4.0625 10.3454 4.57611 11.2596 5.49035C12.1739 6.40459 12.6875 7.64457 12.6875 8.9375C12.6875 10.2304 12.1739 11.4704 11.2596 12.3846C10.3454 13.2989 9.10543 13.8125 7.8125 13.8125C6.51957 13.8125 5.27959 13.2989 4.36535 12.3846C3.45111 11.4704 2.9375 10.2304 2.9375 8.9375ZM7.8125 5.6875C6.95055 5.6875 6.1239 6.02991 5.5144 6.6394C4.90491 7.2489 4.5625 8.07555 4.5625 8.9375C4.5625 9.79945 4.90491 10.6261 5.5144 11.2356C6.1239 11.8451 6.95055 12.1875 7.8125 12.1875C8.67445 12.1875 9.5011 11.8451 10.1106 11.2356C10.7201 10.6261 11.0625 9.79945 11.0625 8.9375C11.0625 8.07555 10.7201 7.2489 10.1106 6.6394C9.5011 6.02991 8.67445 5.6875 7.8125 5.6875Z" fill="black"/>
</g>
<defs>
<clipPath id="clip0_1380_16521">
<rect width="26" height="26" fill="white" transform="translate(0.5)"/>
</clipPath>
</defs>
</svg>
