<svg width="56" height="56" viewBox="0 0 56 56" fill="none" xmlns="http://www.w3.org/2000/svg">
<path d="M21 12.25H16.3333C13.6733 12.25 12.25 13.65 12.25 16.3333V21C12.25 23.6833 13.6733 25.0833 16.3333 25.0833H21C23.66 25.0833 25.0833 23.6833 25.0833 21V16.3333C25.0833 13.65 23.66 12.25 21 12.25Z" fill="#FF4F00"/>
<path d="M39.6667 12.25H35.0001C32.3401 12.25 30.9167 13.65 30.9167 16.3333V21C30.9167 23.6833 32.3401 25.0833 35.0001 25.0833H39.6667C42.3267 25.0833 43.7501 23.6833 43.7501 21V16.3333C43.7501 13.65 42.3267 12.25 39.6667 12.25Z" fill="#FF4F00"/>
<path d="M21 30.9167H16.3333C13.6733 30.9167 12.25 32.3167 12.25 35.0001V39.6667C12.25 42.3501 13.6733 43.7501 16.3333 43.7501H21C23.66 43.7501 25.0833 42.3501 25.0833 39.6667V35.0001C25.0833 32.3167 23.66 30.9167 21 30.9167Z" fill="#FF4F00"/>
<path d="M39.6667 30.9167H35.0001C32.3401 30.9167 30.9167 32.3167 30.9167 35.0001V39.6667C30.9167 42.3501 32.3401 43.7501 35.0001 43.7501H39.6667C42.3267 43.7501 43.7501 42.3501 43.7501 39.6667V35.0001C43.7501 32.3167 42.3267 30.9167 39.6667 30.9167Z" fill="#FF4F00"/>
</svg>
