<svg width="19" height="19" viewBox="0 0 19 19" fill="none" xmlns="http://www.w3.org/2000/svg">
<path d="M15.8101 9.48635C15.8127 10.4762 15.5814 11.4527 15.1351 12.3363C14.6059 13.3951 13.7924 14.2857 12.7857 14.9083C11.779 15.5309 10.6188 15.8609 9.43506 15.8613C8.44516 15.8639 7.46865 15.6326 6.58506 15.1863L2.31006 16.6113L3.73506 12.3363C3.28876 11.4527 3.05748 10.4762 3.06006 9.48635C3.06052 8.30267 3.39052 7.14249 4.0131 6.13576C4.63568 5.12904 5.52625 4.31553 6.58506 3.78635C7.46865 3.34005 8.44516 3.10877 9.43506 3.11135H9.81006C11.3734 3.1976 12.8499 3.85742 13.957 4.9645C15.064 6.07157 15.7239 7.54809 15.8101 9.11135V9.48635Z" stroke="#666666" stroke-width="1.7" stroke-linecap="round" stroke-linejoin="round"/>
</svg>
