<svg width="24" height="24" viewBox="0 0 24 24" fill="none" xmlns="http://www.w3.org/2000/svg">
<path d="M15.5 6L18 8.5" stroke="#FF4F00" stroke-width="1.5" stroke-linecap="round"/>
<path d="M19.2929 7.20711C19.6834 6.81658 19.6834 6.18342 19.2929 5.79289L18.2071 4.70711C17.8166 4.31658 17.1834 4.31658 16.7929 4.70711L11.0879 10.4121C11.0316 10.4684 11 10.5447 11 10.6243L11 12.7C11 12.8657 11.1343 13 11.3 13H13.3757C13.4553 13 13.5316 12.9684 13.5879 12.9121L19.2929 7.20711Z" stroke="#FF4F00" stroke-width="1.5" stroke-linecap="round"/>
<path d="M12 5H8C6.34315 5 5 6.34315 5 8V16C5 17.6569 6.34315 19 8 19H16C17.6569 19 19 17.6569 19 16V12" stroke="#FF4F00" stroke-width="1.5" stroke-linecap="round"/>
</svg>
