<svg width="24" height="26" viewBox="0 0 24 26" fill="none" xmlns="http://www.w3.org/2000/svg">
<g clip-path="url(#clip0_109_269)">
<path d="M14 19.273H19V5.27295H5V19.273H12V14.273H10V12.273H12V10.619C12 9.28195 12.14 8.79695 12.4 8.30795C12.6561 7.82414 13.052 7.42864 13.536 7.17295C13.918 6.96796 14.393 6.84495 15.223 6.79195C15.552 6.77095 15.978 6.79695 16.501 6.87195V8.77195H16C15.083 8.77195 14.704 8.81496 14.478 8.93595C14.3431 9.00531 14.2334 9.1151 14.164 9.24996C14.044 9.47595 14 9.69995 14 10.618V12.273H16.5L16 14.273H14V19.273ZM4 3.27295H20C20.2652 3.27295 20.5196 3.37831 20.7071 3.56585C20.8946 3.75338 21 4.00774 21 4.27295V20.273C21 20.5382 20.8946 20.7925 20.7071 20.9801C20.5196 21.1676 20.2652 21.273 20 21.273H4C3.73478 21.273 3.48043 21.1676 3.29289 20.9801C3.10536 20.7925 3 20.5382 3 20.273V4.27295C3 4.00774 3.10536 3.75338 3.29289 3.56585C3.48043 3.37831 3.73478 3.27295 4 3.27295Z" fill="#201515"/>
</g>
<defs>
<clipPath id="clip0_109_269">
<rect width="24" height="25" fill="white" transform="translate(0 0.271484)"/>
</clipPath>
</defs>
</svg>
