<svg width="40" height="40" viewBox="0 0 40 40" fill="none" xmlns="http://www.w3.org/2000/svg">
<path d="M2.66718 16.0078C7.13877 25.7469 15.0955 33.4901 24.9877 37.6878L26.5735 38.3943C30.2013 40.0107 34.4661 38.7826 36.6789 35.4845L38.7511 32.3958C39.4248 31.3916 39.2197 30.0391 38.2785 29.2798L31.2509 23.6103C30.2186 22.7775 28.7008 22.9715 27.9111 24.037L25.7371 26.9707C20.1585 24.2189 15.6294 19.6897 12.8776 14.1112L15.8112 11.9372C16.8767 11.1475 17.0707 9.62964 16.238 8.59742L10.5683 1.56955C9.80913 0.628557 8.45695 0.4233 7.45276 1.09663L4.3428 3.18192C1.024 5.40724 -0.197224 9.70722 1.45648 13.3448L2.66536 16.0039L2.66718 16.0078Z" fill="#FF4F00"/>
</svg>
