<svg width="19" height="19" viewBox="0 0 19 19" fill="none" xmlns="http://www.w3.org/2000/svg">
<g clip-path="url(#clip0_109_311)">
<mask id="mask0_109_311" style="mask-type:luminance" maskUnits="userSpaceOnUse" x="0" y="0" width="19" height="19">
<path d="M18.0601 0.861328H0.0600586V18.8613H18.0601V0.861328Z" fill="white"/>
</mask>
<g mask="url(#mask0_109_311)">
<path d="M16.5602 13.5514V15.8014C16.561 16.0102 16.5182 16.217 16.4346 16.4084C16.3509 16.5998 16.2281 16.7716 16.0742 16.9128C15.9203 17.054 15.7386 17.1615 15.5407 17.2284C15.3429 17.2953 15.1332 17.3202 14.9252 17.3014C12.6173 17.0506 10.4004 16.262 8.45263 14.9989C6.6405 13.8474 5.10413 12.311 3.95263 10.4989C2.68512 8.54231 1.89631 6.31465 1.65013 3.9964C1.63139 3.789 1.65604 3.57997 1.72251 3.38262C1.78898 3.18527 1.89581 3.00392 2.03621 2.85012C2.1766 2.69632 2.34749 2.57343 2.53798 2.48929C2.72846 2.40515 2.93439 2.3616 3.14263 2.3614H5.39263C5.75661 2.35782 6.10948 2.48671 6.38545 2.72405C6.66143 2.96139 6.84169 3.29099 6.89263 3.6514C6.9876 4.37145 7.16372 5.07845 7.41763 5.7589C7.51854 6.02735 7.54038 6.31909 7.48056 6.59956C7.42075 6.88004 7.28178 7.13749 7.08013 7.3414L6.12763 8.2939C7.1953 10.1716 8.74997 11.7262 10.6277 12.7939L11.5802 11.8414C11.7841 11.6397 12.0415 11.5008 12.322 11.4409C12.6025 11.3811 12.8942 11.403 13.1627 11.5039C13.8431 11.7578 14.5501 11.9339 15.2702 12.0289C15.6345 12.0803 15.9672 12.2638 16.2051 12.5445C16.4429 12.8252 16.5693 13.1836 16.5602 13.5514Z" stroke="#666666" stroke-width="1.7" stroke-linecap="round" stroke-linejoin="round"/>
</g>
</g>
<defs>
<clipPath id="clip0_109_311">
<rect width="18" height="18" fill="white" transform="translate(0.0600586 0.861328)"/>
</clipPath>
</defs>
</svg>
