<svg width="24" height="24" viewBox="0 0 24 24" fill="none" xmlns="http://www.w3.org/2000/svg">
<path d="M19.9261 6.69329C19.9372 6.68925 19.9925 6.72745 19.9909 6.73921C19.8895 7.48146 19.1914 8.70701 18.3708 9.35943C18.3685 9.36124 18.3671 9.36405 18.367 9.36696C17.9265 19.7991 7.87186 20.2434 4.02694 17.7137C4.01868 17.7082 4.02358 17.6958 4.03347 17.6958C6.3187 17.6906 7.45812 17.1487 8.79377 16.281C8.80212 16.2756 8.79805 16.2625 8.7881 16.2624C6.94379 16.2436 5.92119 14.701 5.68807 14.0341C5.68555 14.0269 5.69204 14.0203 5.69957 14.0217C6.30815 14.1319 6.86258 14.0244 7.11509 13.8944C7.12328 13.8902 7.12101 13.8781 7.11201 13.8762C4.87342 13.3849 4.59788 11.5615 4.48046 10.7843C4.4733 10.7368 4.46674 10.6932 4.46031 10.654C4.45899 10.646 4.46768 10.6399 4.47501 10.6435C5.50891 11.1511 5.85133 11.1305 5.9709 11.0274C5.97561 11.0233 5.9748 11.0159 5.96974 11.0123C4.01169 9.61354 4.52198 7.26197 4.98502 6.74263C4.98896 6.73821 4.99553 6.73876 4.99946 6.74318C7.13047 9.1385 10.0142 9.84526 11.7003 9.95612C11.7069 9.95656 11.7118 9.95062 11.7105 9.94417C11.6702 9.73907 11.6491 9.52722 11.6491 9.31051C11.6491 7.48216 13.1524 6 15.0069 6C16.0277 6 16.9421 6.44915 17.558 7.15794C17.56 7.16023 17.5625 7.16152 17.5656 7.16139C17.9884 7.14317 19.5646 6.82419 19.9261 6.69329Z" stroke="#121926" stroke-width="1.5"/>
</svg>
