<svg width="27" height="26" viewBox="0 0 27 26" fill="none" xmlns="http://www.w3.org/2000/svg">
<g id="PersonPlus" clip-path="url(#clip0_1380_16525)">
<path id="Vector" d="M10.25 13C11.5429 13 12.7829 12.4864 13.6971 11.5721C14.6114 10.6579 15.125 9.41793 15.125 8.125C15.125 6.83207 14.6114 5.59209 13.6971 4.67785C12.7829 3.76361 11.5429 3.25 10.25 3.25C8.95707 3.25 7.71709 3.76361 6.80285 4.67785C5.88861 5.59209 5.375 6.83207 5.375 8.125C5.375 9.41793 5.88861 10.6579 6.80285 11.5721C7.71709 12.4864 8.95707 13 10.25 13ZM13.5 8.125C13.5 8.98695 13.1576 9.8136 12.5481 10.4231C11.9386 11.0326 11.112 11.375 10.25 11.375C9.38805 11.375 8.5614 11.0326 7.9519 10.4231C7.34241 9.8136 7 8.98695 7 8.125C7 7.26305 7.34241 6.4364 7.9519 5.8269C8.5614 5.21741 9.38805 4.875 10.25 4.875C11.112 4.875 11.9386 5.21741 12.5481 5.8269C13.1576 6.4364 13.5 7.26305 13.5 8.125ZM20 21.125C20 22.75 18.375 22.75 18.375 22.75H2.125C2.125 22.75 0.5 22.75 0.5 21.125C0.5 19.5 2.125 14.625 10.25 14.625C18.375 14.625 20 19.5 20 21.125ZM18.375 21.1185C18.3734 20.7188 18.1248 19.5162 17.023 18.4145C15.9635 17.355 13.9696 16.25 10.25 16.25C6.52875 16.25 4.5365 17.355 3.477 18.4145C2.37525 19.5162 2.12825 20.7188 2.125 21.1185H18.375Z" fill="black"/>
<path id="Vector_2" fill-rule="evenodd" clip-rule="evenodd" d="M22.4375 8.125C22.653 8.125 22.8597 8.2106 23.012 8.36298C23.1644 8.51535 23.25 8.72201 23.25 8.9375V11.375H25.6875C25.903 11.375 26.1097 11.4606 26.262 11.613C26.4144 11.7653 26.5 11.972 26.5 12.1875C26.5 12.403 26.4144 12.6097 26.262 12.762C26.1097 12.9144 25.903 13 25.6875 13H23.25V15.4375C23.25 15.653 23.1644 15.8597 23.012 16.012C22.8597 16.1644 22.653 16.25 22.4375 16.25C22.222 16.25 22.0153 16.1644 21.863 16.012C21.7106 15.8597 21.625 15.653 21.625 15.4375V13H19.1875C18.972 13 18.7653 12.9144 18.613 12.762C18.4606 12.6097 18.375 12.403 18.375 12.1875C18.375 11.972 18.4606 11.7653 18.613 11.613C18.7653 11.4606 18.972 11.375 19.1875 11.375H21.625V8.9375C21.625 8.72201 21.7106 8.51535 21.863 8.36298C22.0153 8.2106 22.222 8.125 22.4375 8.125Z" fill="black"/>
</g>
<defs>
<clipPath id="clip0_1380_16525">
<rect width="26" height="26" fill="white" transform="translate(0.5)"/>
</clipPath>
</defs>
</svg>
