<svg width="19" height="20" viewBox="0 0 19 20" fill="none" xmlns="http://www.w3.org/2000/svg">
<path id="Vector" d="M0.5 19.2857C0.5 19.4752 0.579018 19.6568 0.71967 19.7908C0.860322 19.9247 1.05109 20 1.25 20H17.75C17.9489 20 18.1397 19.9247 18.2803 19.7908C18.421 19.6568 18.5 19.4752 18.5 19.2857C18.5 19.0963 18.421 18.9146 18.2803 18.7806C18.1397 18.6467 17.9489 18.5714 17.75 18.5714H16.25V17.1429C16.2503 15.93 15.8903 14.7417 15.2116 13.7154C14.5329 12.6891 13.5632 11.8666 12.4145 11.3429C11.9795 11.1443 11.75 10.8043 11.75 10.5V9.5C11.75 9.19571 11.981 8.85571 12.4145 8.65714C13.5632 8.13344 14.5329 7.31092 15.2116 6.2846C15.8903 5.25829 16.2503 4.07004 16.25 2.85714V1.42857H17.75C17.9489 1.42857 18.1397 1.35332 18.2803 1.21936C18.421 1.08541 18.5 0.903726 18.5 0.714286C18.5 0.524845 18.421 0.343164 18.2803 0.209209C18.1397 0.0752549 17.9489 0 17.75 0H1.25C1.05109 0 0.860322 0.0752549 0.71967 0.209209C0.579018 0.343164 0.5 0.524845 0.5 0.714286C0.5 0.903726 0.579018 1.08541 0.71967 1.21936C0.860322 1.35332 1.05109 1.42857 1.25 1.42857H2.75V2.85714C2.74969 4.07004 3.10968 5.25829 3.78837 6.2846C4.46707 7.31092 5.43679 8.13344 6.5855 8.65714C7.0205 8.85571 7.25 9.19571 7.25 9.5V10.5C7.25 10.8043 7.019 11.1443 6.5855 11.3429C5.43679 11.8666 4.46707 12.6891 3.78837 13.7154C3.10968 14.7417 2.74969 15.93 2.75 17.1429V18.5714H1.25C1.05109 18.5714 0.860322 18.6467 0.71967 18.7806C0.579018 18.9146 0.5 19.0963 0.5 19.2857ZM4.25 18.5714V17.1429C4.24973 16.1994 4.52974 15.2751 5.05768 14.4768C5.58562 13.6785 6.33994 13.0387 7.2335 12.6314C8.033 12.2657 8.75 11.5029 8.75 10.5014V9.49857C8.75 9.49857 9.02 9.64286 9.5 9.64286C9.98 9.64286 10.25 9.5 10.25 9.5V10.5C10.25 11.5014 10.967 12.2657 11.7665 12.6314C12.6601 13.0387 13.4144 13.6785 13.9423 14.4768C14.4703 15.2751 14.7503 16.1994 14.75 17.1429V18.5714H4.25Z" fill="black"/>
</svg>
