<svg width="111" height="30" viewBox="0 0 111 30" fill="none" xmlns="http://www.w3.org/2000/svg">
<path d="M83.5843 9.90733C84.3214 8.83941 85.2332 7.95732 86.2838 7.22638C86.5427 7.04674 86.8772 6.77047 87.3281 7.00957C88.8284 7.78388 91.124 6.90055 91.0658 4.59374C91.0336 3.00673 89.7613 2.05898 88.4778 2.04163C86.845 2.02553 85.6953 3.52086 86.0608 5.1785C86.145 5.58981 86.1239 5.83882 85.7213 6.02342C84.7822 6.45083 84.1418 7.25239 83.4629 7.99449C82.0629 9.52204 81.0086 11.2614 80.7002 13.3675C80.6791 13.5521 80.6419 13.7045 80.5887 13.8235H79.1045V29.3467H85.1911C86.0979 29.3467 86.819 29.2711 87.3541 29.1089C87.8844 28.9515 88.3874 28.6703 88.8544 28.2689C89.8146 27.424 90.2915 26.2978 90.2915 24.878C90.2915 23.0309 89.4801 21.7424 87.8522 21.0214C88.9758 20.1604 89.5333 19.0714 89.5333 17.7718C89.5333 15.1392 87.8943 13.8235 84.6237 13.8235H81.9043C81.9043 13.764 81.9204 13.6934 81.9415 13.6116C82.2859 12.2736 82.8112 11.0335 83.5843 9.90733ZM83.6214 17.9886H84.4589C85.2072 17.9886 85.5838 18.2537 85.5838 18.7951C85.5838 19.3749 85.1651 19.6673 84.3375 19.6673H83.6214V17.9886ZM83.6214 23.7618L84.3375 23.8114H85.2022C85.9592 23.8114 86.342 24.0604 86.342 24.5584C86.342 24.857 86.2466 25.0626 86.0608 25.1816C85.8749 25.2956 85.5565 25.355 85.1006 25.355H84.3375C84.003 25.355 83.775 25.3327 83.6214 25.3005V23.7618Z" fill="#FF4F00"/>
<path d="M100.221 19.863V23.3208H97.2711C96.871 23.3208 96.5861 23.3815 96.4188 23.5029C96.2516 23.6243 96.1685 23.8287 96.1685 24.1174C96.1685 24.4432 96.254 24.6575 96.425 24.7604C96.5947 24.8632 96.9441 24.914 97.4706 24.914H100.51V29.3504H96.959C95.2889 29.3504 94.0129 28.9429 93.1295 28.1277C92.2462 27.3125 91.8052 26.1355 91.8052 24.5968V18.5114C91.8052 17.0248 92.2227 15.8726 93.0577 15.0537C93.8927 14.2348 95.0672 13.8247 96.5811 13.8247H100.511V18.2835H97.6279C96.8487 18.2835 96.4584 18.5412 96.4584 19.0565C96.4584 19.3601 96.5514 19.5707 96.7372 19.6884C96.923 19.8061 97.2526 19.8643 97.7283 19.8643H100.222L100.221 19.863Z" fill="#FF4F00"/>
<path d="M111.21 19.863V23.3208H108.26C107.86 23.3208 107.575 23.3815 107.408 23.5029C107.241 23.6243 107.158 23.8287 107.158 24.1174C107.158 24.4432 107.243 24.6575 107.414 24.7604C107.584 24.8632 107.933 24.914 108.46 24.914H111.499V29.3504H107.948C106.278 29.3504 105.002 28.9429 104.119 28.1277C103.235 27.3125 102.794 26.1355 102.794 24.5968V18.5114C102.794 17.0248 103.212 15.8726 104.047 15.0537C104.882 14.2348 106.056 13.8247 107.57 13.8247H111.5V18.2835H108.617C107.838 18.2835 107.448 18.5412 107.448 19.0565C107.448 19.3601 107.541 19.5707 107.726 19.6884C107.912 19.8061 108.242 19.8643 108.718 19.8643H111.211L111.21 19.863Z" fill="#FF4F00"/>
<path d="M72.4581 19.0565C72.4581 19.3588 72.551 19.5719 72.7369 19.6896C72.9177 19.8061 73.2522 19.8631 73.728 19.8631H76.2181V23.3183H73.2683C72.8682 23.3183 72.5832 23.3803 72.4197 23.5029C72.25 23.6268 72.1682 23.8275 72.1682 24.1186C72.1682 24.4432 72.25 24.6551 72.4247 24.7616C72.5944 24.862 72.94 24.9128 73.4703 24.9128H76.508V29.348H72.9561C71.2861 29.348 70.0113 28.9392 69.1293 28.1277C68.2435 27.3113 67.8049 26.1318 67.8049 24.5931V18.509C67.8049 17.0211 68.2212 15.8689 69.0537 15.0525C69.8912 14.2311 71.0619 13.8222 72.5783 13.8222H73.946C73.9423 13.7739 73.9324 13.7182 73.9175 13.655C73.1531 10.258 71.3568 7.55719 68.6498 5.47462C68.1555 5.09552 67.6055 4.78208 67.0727 4.4575C66.8658 4.33113 66.6466 4.32741 66.436 4.51448C65.6394 5.22561 64.3286 5.41763 63.5048 4.95305C62.5607 4.42033 62.0033 3.2533 62.1594 2.14201C62.3415 0.828794 63.2657 0.0470555 64.5677 0.0024555C65.7459 -0.0384278 66.5784 0.429872 67.0802 1.5077C67.1842 1.73566 67.2759 1.97972 67.2152 2.23617C67.0839 2.79739 67.3515 3.10215 67.8086 3.36232C70.0113 4.61979 71.7916 6.33317 73.1692 8.50123C74.1839 10.1043 74.8652 11.8326 75.2233 13.6922C75.232 13.7405 75.2419 13.7838 75.253 13.8222H76.508V18.2798H73.6239C72.8471 18.2798 72.4581 18.5375 72.4581 19.0565Z" fill="#201515"/>
<path d="M10.1922 24.2746C9.62233 24.8618 8.86167 25.1529 7.90402 25.1529C6.94637 25.1529 6.1795 24.8172 5.56626 24.1569C4.94806 23.4916 4.64082 22.6529 4.64082 21.6345C4.64082 20.6161 4.95302 19.7167 5.58237 19.0341C6.20676 18.3515 7.00583 18.0108 7.96844 18.0108C9.14537 18.0108 10.0262 18.5199 10.6184 19.5371L12.9177 15.0523C11.5661 13.9732 9.95064 13.4355 8.0787 13.4355C5.80165 13.4355 3.88511 14.2247 2.33156 15.8018C0.776774 17.3789 0 19.3252 0 21.6345C0 23.9438 0.760669 25.8566 2.2882 27.4065C3.80954 28.9613 5.70997 29.7331 7.96968 29.7331C10.2294 29.7331 12.0035 29.0505 13.3885 27.6865C13.443 27.6357 13.4926 27.5799 13.531 27.5304L10.6791 23.6155C10.5428 23.862 10.378 24.085 10.1922 24.2758V24.2746Z" fill="#201515"/>
<path d="M27.1832 15.8353C25.6445 14.2359 23.7998 13.4355 21.6491 13.4355C19.377 13.4355 17.4555 14.2247 15.8846 15.8018C14.3137 17.3789 13.5308 19.3029 13.5308 21.5788C13.5308 23.8546 14.3075 25.7563 15.8685 27.3445C17.4283 28.939 19.3113 29.7331 21.5116 29.7331C23.7118 29.7331 25.6172 28.9452 27.1658 27.3557C28.7206 25.7724 29.4924 23.8496 29.4924 21.5788C29.4924 19.3079 28.7256 17.4347 27.1819 15.8353H27.1832ZM23.8877 24.1123C23.2423 24.8061 22.4482 25.1529 21.5116 25.1529C20.575 25.1529 19.8032 24.8011 19.1466 24.1073C18.49 23.4086 18.1617 22.5637 18.1617 21.58C18.1617 20.5963 18.49 19.7514 19.1416 19.0576C19.7933 18.3589 20.5861 18.012 21.5116 18.012C22.437 18.012 23.2411 18.3589 23.8877 19.0527C24.5394 19.7464 24.8615 20.5901 24.8615 21.58C24.8615 22.5699 24.5382 23.4197 23.8877 24.1135V24.1123Z" fill="#201515"/>
<path d="M37.7808 13.8218V23.7316C37.7808 24.6769 37.4574 25.1526 36.8231 25.1526C36.1888 25.1526 35.832 24.6769 35.832 23.7316V13.8218H31.3101V23.7428C31.3101 25.6717 31.7647 27.1547 32.6728 28.1892C33.5809 29.2187 34.8954 29.7328 36.6088 29.7328C38.3222 29.7328 39.7072 29.2013 40.7467 28.1446C41.7811 27.0816 42.2953 25.6618 42.2953 23.889V13.823H37.7795L37.7808 13.8218Z" fill="#201515"/>
<path d="M65.0633 18.0108C65.2442 18.0108 65.4957 18.0665 65.824 18.178V13.7539C65.2219 13.5409 64.6087 13.4355 63.9843 13.4355C62.567 13.4355 61.3454 13.967 60.3271 15.0238C59.3038 16.0806 58.7946 17.3393 58.7946 18.8049C58.7946 20.019 59.134 21.2319 59.8067 22.446C60.2342 23.2116 60.4423 23.7047 60.4423 23.9339C60.4423 24.2857 60.311 24.5719 60.0483 24.8061C59.7857 25.0353 59.4574 25.1529 59.0634 25.1529C58.7289 25.1529 58.3461 25.013 57.9199 24.728V29.2239C58.631 29.5646 59.3484 29.7331 60.0768 29.7331C61.5932 29.7331 62.8742 29.2128 63.9248 28.1672C64.9754 27.1215 65.5019 25.8405 65.5019 24.3303C65.5019 23.3008 65.1897 22.2329 64.5653 21.1253L64.2209 20.5096C63.9533 20.0339 63.8207 19.6374 63.8207 19.324C63.8207 18.961 63.9409 18.6525 64.1875 18.3961C64.4278 18.1384 64.7239 18.0108 65.0633 18.0108Z" fill="#201515"/>
<path d="M54.5637 22.9437C55.9103 21.8708 56.583 20.544 56.583 18.9731C56.583 17.4022 56.0417 16.167 54.9552 15.1647C53.9851 14.2653 52.6125 13.8218 50.8458 13.8218H45.0454V29.345H49.5623V24.3783L50.2301 24.3399L52.4254 29.345H57.1653L54.5624 22.9425L54.5637 22.9437ZM50.5869 20.3544H49.5636V17.9981H50.3689C51.4665 17.9981 52.0178 18.3611 52.0178 19.1032C52.0178 19.932 51.5408 20.3544 50.5869 20.3544Z" fill="#201515"/>
</svg>
