<svg width="27" height="26" viewBox="0 0 27 26" fill="none" xmlns="http://www.w3.org/2000/svg">
<g id="CashCoin" clip-path="url(#clip0_1380_16511)">
<path id="Vector" fill-rule="evenodd" clip-rule="evenodd" d="M18.375 24.375C20.0989 24.375 21.7522 23.6902 22.9712 22.4712C24.1902 21.2522 24.875 19.5989 24.875 17.875C24.875 16.1511 24.1902 14.4978 22.9712 13.2788C21.7522 12.0598 20.0989 11.375 18.375 11.375C16.6511 11.375 14.9978 12.0598 13.7788 13.2788C12.5598 14.4978 11.875 16.1511 11.875 17.875C11.875 19.5989 12.5598 21.2522 13.7788 22.4712C14.9978 23.6902 16.6511 24.375 18.375 24.375ZM26.5 17.875C26.5 20.0299 25.644 22.0965 24.1202 23.6202C22.5965 25.144 20.5299 26 18.375 26C16.2201 26 14.1535 25.144 12.6298 23.6202C11.106 22.0965 10.25 20.0299 10.25 17.875C10.25 15.7201 11.106 13.6535 12.6298 12.1298C14.1535 10.606 16.2201 9.75 18.375 9.75C20.5299 9.75 22.5965 10.606 24.1202 12.1298C25.644 13.6535 26.5 15.7201 26.5 17.875Z" fill="black"/>
<path id="Vector_2" d="M15.8366 19.409C15.913 20.3775 16.6783 21.1315 18.0515 21.2225V21.9375H18.6608V21.2176C20.0827 21.1185 20.9131 20.358 20.9131 19.2563C20.9131 18.252 20.2793 17.7352 19.1418 17.4688L18.6608 17.355V15.405C19.2718 15.4749 19.6586 15.808 19.7512 16.2695H20.8205C20.7441 15.3351 19.943 14.6055 18.6608 14.5259V13.8125H18.0515V14.5437C16.8376 14.6624 16.0121 15.392 16.0121 16.4255C16.0121 17.3387 16.6263 17.9205 17.6485 18.1577L18.0515 18.2569V20.3239C17.4275 20.2296 17.0131 19.8851 16.9205 19.409H15.8366ZM18.0466 17.2088C17.447 17.0706 17.122 16.7862 17.122 16.3605C17.122 15.8827 17.473 15.5252 18.0515 15.4212V17.2088H18.0466ZM18.7486 18.421C19.4782 18.59 19.813 18.863 19.813 19.3456C19.813 19.8965 19.3953 20.2735 18.6608 20.3434V18.4015L18.7486 18.421Z" fill="black"/>
<path id="Vector_3" d="M2.125 0C1.69402 0 1.2807 0.171205 0.975951 0.475951C0.671205 0.780698 0.5 1.19402 0.5 1.625L0.5 14.625C0.5 15.056 0.671205 15.4693 0.975951 15.774C1.2807 16.0788 1.69402 16.25 2.125 16.25H8.75988C8.85413 15.691 8.9955 15.1482 9.17912 14.625H5.375C5.375 13.763 5.03259 12.9364 4.4231 12.3269C3.8136 11.7174 2.98695 11.375 2.125 11.375V4.875C2.98695 4.875 3.8136 4.53259 4.4231 3.9231C5.03259 3.3136 5.375 2.48695 5.375 1.625H21.625C21.625 2.48695 21.9674 3.3136 22.5769 3.9231C23.1864 4.53259 24.013 4.875 24.875 4.875V10.608C25.4925 11.1605 26.0401 11.791 26.5 12.4833V1.625C26.5 1.19402 26.3288 0.780698 26.024 0.475951C25.7193 0.171205 25.306 0 24.875 0L2.125 0Z" fill="black"/>
<path id="Vector_4" d="M16.7468 8.2599L16.75 8.12502C16.7497 7.56536 16.6048 7.01526 16.3295 6.52802C16.0541 6.04077 15.6576 5.63288 15.1784 5.34386C14.6991 5.05484 14.1533 4.89448 13.5939 4.87831C13.0345 4.86214 12.4803 4.99071 11.9852 5.25157C11.49 5.51242 11.0706 5.89673 10.7676 6.36726C10.4646 6.83779 10.2882 7.37859 10.2555 7.9373C10.2229 8.49601 10.3351 9.05369 10.5812 9.55632C10.8273 10.059 11.1991 10.4895 11.6605 10.8063C13.0641 9.46934 14.8354 8.58257 16.7468 8.2599Z" fill="black"/>
</g>
<defs>
<clipPath id="clip0_1380_16511">
<rect width="26" height="26" fill="white" transform="translate(0.5)"/>
</clipPath>
</defs>
</svg>
