<svg width="23" height="22" viewBox="0 0 23 22" fill="none" xmlns="http://www.w3.org/2000/svg">
<g id="Frame 51">
<g id="Vector">
<path fill-rule="evenodd" clip-rule="evenodd" d="M9.88413 9.38413C9.87234 9.39592 9.86571 9.4119 9.86571 9.42857V20.4286C9.86571 20.4452 9.87234 20.4612 9.88413 20.473C9.89591 20.4848 9.9119 20.4914 9.92857 20.4914H13.0714C13.0881 20.4914 13.1041 20.4848 13.1159 20.473C13.1277 20.4612 13.1343 20.4452 13.1343 20.4286V9.42857C13.1343 9.4119 13.1277 9.39592 13.1159 9.38413C13.1041 9.37234 13.0881 9.36571 13.0714 9.36571H9.92857C9.9119 9.36571 9.89592 9.37234 9.88413 9.38413ZM17.7413 1.52698C17.7295 1.53877 17.7229 1.55476 17.7229 1.57143V20.4286C17.7229 20.4452 17.7295 20.4612 17.7413 20.473C17.7531 20.4848 17.769 20.4914 17.7857 20.4914H20.9286C20.9452 20.4914 20.9612 20.4848 20.973 20.473C20.9848 20.4612 20.9914 20.4452 20.9914 20.4286V1.57143C20.9914 1.55476 20.9848 1.53877 20.973 1.52698C20.9612 1.51519 20.9452 1.50857 20.9286 1.50857H17.7857C17.769 1.50857 17.7531 1.51519 17.7413 1.52698ZM8.8174 8.3174C8.5227 8.6121 8.35714 9.0118 8.35714 9.42857V20.4286C8.35714 20.8453 8.5227 21.245 8.8174 21.5397C9.1121 21.8344 9.5118 22 9.92857 22H13.0714C13.4882 22 13.8879 21.8344 14.1826 21.5397C14.4773 21.245 14.6429 20.8453 14.6429 20.4286V9.42857C14.6429 9.0118 14.4773 8.6121 14.1826 8.3174C13.8879 8.0227 13.4882 7.85714 13.0714 7.85714H9.92857C9.5118 7.85714 9.1121 8.0227 8.8174 8.3174ZM16.6745 0.460261C16.3798 0.754961 16.2143 1.15466 16.2143 1.57143V20.4286C16.2143 20.8453 16.3798 21.245 16.6745 21.5397C16.9692 21.8344 17.3689 22 17.7857 22H20.9286C21.3453 22 21.745 21.8344 22.0397 21.5397C22.3344 21.245 22.5 20.8453 22.5 20.4286V1.57143C22.5 1.15466 22.3344 0.754961 22.0397 0.460261C21.745 0.165561 21.3453 0 20.9286 0H17.7857C17.3689 0 16.9692 0.165561 16.6745 0.460261Z" fill="black"/>
<path d="M0.5 15.7143C0.5 15.2975 0.665561 14.8978 0.960261 14.6031C1.25496 14.3084 1.65466 14.1429 2.07143 14.1429H5.21429C5.63105 14.1429 6.03075 14.3084 6.32545 14.6031C6.62015 14.8978 6.78571 15.2975 6.78571 15.7143V20.4286C6.78571 20.8453 6.62015 21.245 6.32545 21.5397C6.03075 21.8344 5.63105 22 5.21429 22H2.07143C1.65466 22 1.25496 21.8344 0.960261 21.5397C0.665561 21.245 0.5 20.8453 0.5 20.4286V15.7143Z" fill="black"/>
</g>
</g>
</svg>
