<svg width="240" height="240" viewBox="0 0 240 240" fill="none" xmlns="http://www.w3.org/2000/svg">
<path d="M177.942 81.0176C184.059 72.2922 191.622 65.0761 200.326 59.0921C202.481 57.6308 205.254 55.3694 208.987 57.3214C221.435 63.6575 240.475 56.4361 239.99 37.5666C239.723 24.5905 229.174 16.8358 218.529 16.7025C204.982 16.5692 195.441 28.7932 198.475 42.3453C199.179 45.716 199.003 47.7534 195.659 49.2574C187.872 52.7561 182.55 59.3161 176.923 65.3855C165.312 77.8762 156.56 92.095 154.011 109.327C153.835 110.836 153.526 112.074 153.083 113.044H140.774V239.995H191.259C198.779 239.995 204.763 239.371 209.206 238.048C213.601 236.763 217.777 234.459 221.649 231.179C229.611 224.267 233.569 215.056 233.569 203.45C233.569 188.341 226.838 177.802 213.334 171.909C222.662 164.863 227.281 155.962 227.281 145.333C227.281 123.807 213.691 113.039 186.555 113.039H163.995C163.995 112.554 164.123 111.978 164.304 111.316C167.163 100.372 171.52 90.2283 177.936 81.0122L177.942 81.0176ZM178.251 147.109H185.195C191.398 147.109 194.523 149.279 194.523 153.711C194.523 158.447 191.051 160.842 184.187 160.842H178.251V147.109ZM178.251 194.33L184.187 194.73H191.355C197.643 194.73 200.811 196.768 200.811 200.842C200.811 203.28 200.022 204.96 198.481 205.936C196.939 206.869 194.299 207.354 190.518 207.354H184.187C181.414 207.354 179.526 207.178 178.251 206.912V194.33Z" fill="#FEAA00"/>
<path d="M134.715 222.533C134.405 222.938 134.011 223.376 133.568 223.776C122.437 234.592 107.915 240 90.0052 240C72.0957 240 56.565 233.883 44.3302 221.562C32.0528 209.29 25.9354 194.037 25.9354 175.824C25.9354 157.61 32.1861 142.09 44.6822 129.594C57.1783 117.092 72.5864 110.847 90.8852 110.847C93.1785 110.847 95.4292 110.943 97.6266 111.146C91.2159 83.6149 76.3678 61.7001 54.0476 44.772C49.9569 41.6733 45.3969 39.1133 40.9702 36.4519C39.2529 35.4226 37.4342 35.3906 35.6848 36.9213C29.0821 42.7453 18.2127 44.3026 11.3753 40.5159C3.54596 36.1479 -1.07274 26.6012 0.212602 17.5185C1.73261 6.77173 9.39666 0.382355 20.1967 0.0196855C29.9728 -0.310983 36.8795 3.51304 41.0395 12.3344C41.8982 14.2011 42.6555 16.1958 42.1649 18.2865C41.0715 22.8785 43.2849 25.3745 47.0876 27.5025C65.3544 37.7799 80.1171 51.7907 91.5412 69.5241C99.9626 82.6336 105.611 96.7723 108.587 111.972C108.672 112.404 108.752 112.788 108.859 113.135C116.539 115.21 123.52 118.714 129.792 123.652L111.307 159.199C106.555 151.13 99.4719 147.098 90.0105 147.098C82.2665 147.098 75.8451 149.802 70.8264 155.21C65.765 160.623 63.2583 167.487 63.2583 175.824C63.2583 184.16 65.7224 190.538 70.6931 195.808C75.6211 201.04 81.9091 203.701 89.4825 203.701C97.0559 203.701 103.296 201.397 107.872 196.741C109.371 195.237 110.688 193.461 111.787 191.514L134.715 222.538V222.533Z" fill="#343434"/>
</svg>
