<svg width="64" height="64" viewBox="0 0 64 64" fill="none" xmlns="http://www.w3.org/2000/svg">
<rect width="64" height="64" rx="12" fill="#2D68FF"/>
<path opacity="0.35" d="M40.6667 45H23.3333C20.9399 45 19 43.0601 19 40.6667V23.3333C19 20.9399 20.9399 19 23.3333 19H40.6667C43.0601 19 45 20.9399 45 23.3333V40.6667C45 43.0601 43.0601 45 40.6667 45Z" fill="white"/>
<path d="M30.6001 38C30.2417 38 29.8833 37.86 29.6103 37.5814L25.4105 33.2959C24.8632 32.7373 24.8632 31.8345 25.4105 31.276C25.9579 30.7174 26.8427 30.7174 27.39 31.276L30.6001 34.5516L36.61 28.4189C37.1573 27.8604 38.0421 27.8604 38.5895 28.4189C39.1368 28.9775 39.1368 29.8803 38.5895 30.4388L31.5898 37.5814C31.3168 37.86 30.9585 38 30.6001 38Z" fill="white"/>
</svg>
