<svg width="24" height="26" viewBox="0 0 24 26" fill="none" xmlns="http://www.w3.org/2000/svg">
<path d="M22 25.5H2C1.66848 25.5 1.35054 25.3683 1.11612 25.1339C0.8817 24.8995 0.75 24.5815 0.75 24.25V1.75C0.75 1.41848 0.8817 1.10054 1.11612 0.86612C1.35054 0.6317 1.66848 0.5 2 0.5H22C22.3315 0.5 22.6495 0.6317 22.8839 0.86612C23.1183 1.10054 23.25 1.41848 23.25 1.75V24.25C23.25 24.5815 23.1183 24.8995 22.8839 25.1339C22.6495 25.3683 22.3315 25.5 22 25.5ZM20.75 23V3H3.25V23H20.75ZM5.75 5.5H10.75V10.5H5.75V5.5ZM5.75 13H18.25V15.5H5.75V13ZM5.75 18H18.25V20.5H5.75V18ZM13.25 6.75H18.25V9.25H13.25V6.75Z" fill="#201515"/>
</svg>
