<svg width="45" height="45" viewBox="0 0 45 45" fill="none" xmlns="http://www.w3.org/2000/svg">
<g clip-path="url(#clip0_102_135)">
<path d="M33.6299 0.0500488H11.6299C5.55475 0.0500488 0.629883 4.97492 0.629883 11.05V33.05C0.629883 39.1252 5.55475 44.05 11.6299 44.05H33.6299C39.705 44.05 44.6299 39.1252 44.6299 33.05V11.05C44.6299 4.97492 39.705 0.0500488 33.6299 0.0500488Z" fill="#FF4F00"/>
<path opacity="0.35" d="M28.6095 10.6213L11.4517 27.7555C11.107 28.1001 10.8768 28.5425 10.7945 29.0224L10.0926 33.0939C9.94054 33.9743 10.7066 34.7404 11.5884 34.5868L15.6124 33.8864C16.0896 33.8027 16.5305 33.5752 16.8738 33.2334L34.0582 16.0699L28.6095 10.6213Z" fill="white"/>
<path d="M26.1413 13.084L11.4517 27.7555C11.107 28.1002 10.8768 28.5424 10.7945 29.0224L10.521 30.6075L14.0692 34.1557L15.611 33.8878C16.0882 33.8041 16.5291 33.5766 16.8723 33.2348L31.5927 18.5326L26.1413 13.084Z" fill="white"/>
<path d="M33.8544 16.2735L34.0595 16.0698C35.5636 14.5657 35.5636 12.1252 34.0595 10.6211C32.5554 9.11701 30.115 9.11701 28.6108 10.6211L28.4058 10.8248L33.8544 16.2735Z" fill="white"/>
<path opacity="0.6" d="M34.3695 27.8712L16.8084 10.3101C15.7187 9.22036 13.9522 9.22036 12.8625 10.3101L10.8895 12.283C9.79984 13.3727 9.79984 15.1392 10.8895 16.2289L28.4507 33.7901C29.5404 34.8798 31.3068 34.8798 32.3966 33.7901L34.3695 31.8171C35.4593 30.7274 35.4593 28.961 34.3695 27.8712Z" fill="white"/>
</g>
<defs>
<clipPath id="clip0_102_135">
<rect width="44" height="44" fill="white" transform="translate(0.629883 0.0500488)"/>
</clipPath>
</defs>
</svg>
