<svg width="45" height="45" viewBox="0 0 45 45" fill="none" xmlns="http://www.w3.org/2000/svg">
<g clip-path="url(#clip0_102_150)">
<path d="M33.6299 0.0500488H11.6299C5.55475 0.0500488 0.629883 4.97492 0.629883 11.05V33.05C0.629883 39.1252 5.55475 44.05 11.6299 44.05H33.6299C39.705 44.05 44.6299 39.1252 44.6299 33.05V11.05C44.6299 4.97492 39.705 0.0500488 33.6299 0.0500488Z" fill="#FF4F00"/>
<path opacity="0.6" d="M20.2433 34.0024C20.0497 34.0024 19.8561 33.9809 19.6601 33.9307C18.3788 33.6104 17.6019 32.3124 17.9198 31.0312L22.7006 11.9079C23.021 10.6266 24.3237 9.85217 25.6002 10.1677C26.8814 10.488 27.6583 11.786 27.3404 13.0673L22.5596 32.1905C22.2871 33.2781 21.3142 34.0024 20.2433 34.0024Z" fill="#FAFBFC"/>
<path d="M30.5321 29.2216C29.9202 29.2216 29.3082 28.9874 28.8421 28.5213C27.9074 27.5866 27.9074 26.0759 28.8421 25.1413L31.9329 22.0505L28.8421 18.9597C27.9074 18.025 27.9074 16.5143 28.8421 15.5797C29.7768 14.645 31.2875 14.645 32.2221 15.5797L37.0029 20.3605C37.9376 21.2951 37.9376 22.8058 37.0029 23.7405L32.2221 28.5213C31.756 28.9874 31.1441 29.2216 30.5321 29.2216Z" fill="#FAFBFC"/>
<path d="M14.7274 29.2216C14.1155 29.2216 13.5036 28.9874 13.0374 28.5213L8.25663 23.7405C7.32201 22.8058 7.32201 21.2951 8.25663 20.3605L13.0374 15.5797C13.9721 14.645 15.4829 14.645 16.4175 15.5797C17.3521 16.5143 17.3521 18.025 16.4175 18.9597L13.3267 22.0505L16.4175 25.1413C17.3521 26.0759 17.3521 27.5866 16.4175 28.5213C15.9513 28.9874 15.3394 29.2216 14.7274 29.2216Z" fill="#FAFBFC"/>
</g>
<defs>
<clipPath id="clip0_102_150">
<rect width="44" height="44" fill="white" transform="translate(0.629883 0.0500488)"/>
</clipPath>
</defs>
</svg>
