<svg width="28" height="27" viewBox="0 0 28 27" fill="none" xmlns="http://www.w3.org/2000/svg">
<path d="M15.2486 14.25V21.2313L17.5336 18.9463L19.3024 20.715L13.9986 26.0175L8.6949 20.715L10.4636 18.9463L12.7486 21.2313V14.25H15.2486ZM13.9986 0.5C16.1449 0.5001 18.2162 1.28889 19.8189 2.7164C21.4215 4.1439 22.4438 6.11058 22.6911 8.2425C24.2465 8.6666 25.6033 9.6239 26.5245 10.9469C27.4456 12.2699 27.8726 13.8746 27.7307 15.4805C27.5888 17.0864 26.887 18.5913 25.7481 19.7323C24.6092 20.8732 23.1055 21.5777 21.4999 21.7225V19.205C22.0751 19.1229 22.6282 18.9269 23.1269 18.6287C23.6256 18.3305 24.0598 17.9359 24.4044 17.468C24.7489 17.0001 24.9967 16.4683 25.1335 15.9036C25.2702 15.3388 25.2931 14.7525 25.2008 14.1788C25.1085 13.6052 24.9028 13.0556 24.5958 12.5623C24.2888 12.069 23.8866 11.6418 23.4127 11.3056C22.9387 10.9694 22.4026 10.731 21.8355 10.6043C21.2685 10.4775 20.6818 10.465 20.1099 10.5675C20.3057 9.6561 20.2951 8.7125 20.0789 7.80569C19.8628 6.89892 19.4465 6.05198 18.8606 5.32691C18.2748 4.60184 17.5341 4.01701 16.693 3.61524C15.8518 3.21348 14.9315 3.00496 13.9993 3.00496C13.0671 3.00496 12.1467 3.21348 11.3056 3.61524C10.4644 4.01701 9.7238 4.60184 9.1379 5.32691C8.55204 6.05198 8.13578 6.89892 7.91962 7.80569C7.70347 8.7125 7.69288 9.6561 7.88865 10.5675C6.74822 10.3533 5.56942 10.601 4.61158 11.256C3.65373 11.9109 2.99531 12.9196 2.78115 14.06C2.56698 15.2004 2.81463 16.3792 3.4696 17.3371C4.12457 18.2949 5.13322 18.9533 6.27365 19.1675L6.49865 19.205V21.7225C4.89296 21.5779 3.38915 20.8736 2.25006 19.7327C1.11097 18.5919 0.409061 17.0869 0.266991 15.481C0.124921 13.8751 0.551751 12.2704 1.47286 10.9472C2.39397 9.6241 3.75078 8.6667 5.30615 8.2425C5.55328 6.11047 6.5754 4.14364 8.17812 2.71608C9.7808 1.28852 11.8523 0.49983 13.9986 0.5Z" fill="#201515"/>
</svg>
