<svg width="100" height="34" viewBox="0 0 100 34" fill="none" xmlns="http://www.w3.org/2000/svg">
<mask id="mask0_132_359" style="mask-type:luminance" maskUnits="userSpaceOnUse" x="0" y="0" width="100" height="34">
<path d="M99.4838 0.585449H0.0771484V33.2906H99.4838V0.585449Z" fill="white"/>
</mask>
<g mask="url(#mask0_132_359)">
<path d="M42.8452 17.158C42.8452 21.8612 39.166 25.3268 34.6506 25.3268C30.1353 25.3268 26.4561 21.8612 26.4561 17.158C26.4561 12.4217 30.1353 8.98926 34.6506 8.98926C39.166 8.98926 42.8452 12.4217 42.8452 17.158ZM39.258 17.158C39.258 14.219 37.1256 12.2081 34.6506 12.2081C32.1757 12.2081 30.0433 14.219 30.0433 17.158C30.0433 20.0676 32.1757 22.1079 34.6506 22.1079C37.1256 22.1079 39.258 20.0639 39.258 17.158Z" fill="black"/>
<path d="M60.523 17.158C60.523 21.8612 56.8437 25.3268 52.3284 25.3268C47.8131 25.3268 44.1338 21.8612 44.1338 17.158C44.1338 12.4254 47.8131 8.98926 52.3284 8.98926C56.8437 8.98926 60.523 12.4217 60.523 17.158ZM56.9358 17.158C56.9358 14.219 54.8033 12.2081 52.3284 12.2081C49.8534 12.2081 47.721 14.219 47.721 17.158C47.721 20.0676 49.8534 22.1079 52.3284 22.1079C54.8033 22.1079 56.9358 20.0639 56.9358 17.158Z" fill="black"/>
<path d="M77.4656 9.48278V24.1483C77.4656 30.181 73.9079 32.645 69.7019 32.645C65.7428 32.645 63.3599 29.9968 62.4612 27.8312L65.5844 26.5312C66.1405 27.8608 67.5032 29.4296 69.6983 29.4296C72.3905 29.4296 74.0589 27.7686 74.0589 24.6418V23.4669H73.9337C73.1308 24.4576 71.5839 25.3231 69.632 25.3231C65.5476 25.3231 61.8057 21.7654 61.8057 17.1875C61.8057 12.5764 65.5476 8.98926 69.632 8.98926C71.5802 8.98926 73.1271 9.85475 73.9337 10.816H74.0589V9.48646H77.4656V9.48278ZM74.313 17.1875C74.313 14.3111 72.3942 12.2081 69.9524 12.2081C67.4774 12.2081 65.4039 14.3111 65.4039 17.1875C65.4039 20.0344 67.4774 22.1079 69.9524 22.1079C72.3942 22.1079 74.313 20.0344 74.313 17.1875Z" fill="black"/>
<path d="M83.0818 0.887207V24.8265H79.583V0.887207H83.0818Z" fill="black"/>
<path d="M96.7149 19.8469L99.4992 21.7032C98.6006 23.0327 96.435 25.3235 92.6931 25.3235C88.0526 25.3235 84.5869 21.7363 84.5869 17.1547C84.5869 12.2969 88.082 8.98584 92.2917 8.98584C96.5308 8.98584 98.6043 12.3595 99.2819 14.1826L99.6539 15.1107L88.7339 19.6333C89.57 21.2723 90.8701 22.1083 92.6931 22.1083C94.5199 22.1083 95.7868 21.2096 96.7149 19.8469ZM88.1447 16.9078L95.4443 13.8769C95.0428 12.8567 93.8348 12.1459 92.4132 12.1459C90.5901 12.1459 88.0526 13.7552 88.1447 16.9078Z" fill="black"/>
<path d="M13.2132 15.0331V11.5674H24.8919C25.0061 12.1714 25.065 12.8859 25.065 13.6593C25.065 16.2596 24.3542 19.4747 22.0634 21.7655C19.8352 24.0858 16.9883 25.3233 13.2169 25.3233C6.22664 25.3233 0.348633 19.6294 0.348633 12.6392C0.348633 5.64894 6.22664 -0.0449219 13.2169 -0.0449219C17.084 -0.0449219 19.8389 1.47246 21.9087 3.45021L19.4632 5.8957C17.979 4.50354 15.9681 3.42075 13.2132 3.42075C8.10864 3.42075 4.1163 7.53462 4.1163 12.6392C4.1163 17.7437 8.10864 21.8576 13.2132 21.8576C16.5242 21.8576 18.4099 20.5281 19.6179 19.32C20.5976 18.3404 21.2421 16.9409 21.4962 15.0294L13.2132 15.0331Z" fill="black"/>
</g>
</svg>
