<svg width="45" height="45" viewBox="0 0 45 45" fill="none" xmlns="http://www.w3.org/2000/svg">
<g clip-path="url(#clip0_102_163)">
<path d="M33.6299 0.0500488H11.6299C5.55475 0.0500488 0.629883 4.97492 0.629883 11.05V33.05C0.629883 39.1252 5.55475 44.05 11.6299 44.05H33.6299C39.705 44.05 44.6299 39.1252 44.6299 33.05V11.05C44.6299 4.97492 39.705 0.0500488 33.6299 0.0500488Z" fill="#FF4F00"/>
<path d="M15.2625 16.603C13.4573 16.603 11.9941 18.0662 11.9941 19.8714V24.2292C11.9941 26.0344 13.4573 27.4976 15.2625 27.4976H19.6203V16.603H15.2625Z" fill="white"/>
<path opacity="0.54" d="M31.3493 11.3215C30.5322 10.9827 29.5986 11.1701 28.9744 11.7943C27.6365 13.1311 23.3484 16.6032 19.6203 16.6032C18.4176 16.6032 17.4414 17.5793 17.4414 18.7821V25.3188C17.4414 26.5216 18.4176 27.4977 19.6203 27.4977C23.3245 27.4977 27.6299 30.9708 28.9744 32.3065C29.3916 32.7238 29.9472 32.9449 30.5148 32.9449C30.7959 32.9449 31.0791 32.8905 31.3493 32.7794C32.1632 32.4416 32.6937 31.6474 32.6937 30.766V13.3348C32.6937 12.4534 32.1632 11.6592 31.3493 11.3215Z" fill="white"/>
<path d="M19.6205 23.14H15.2627C15.2627 23.14 16.3522 31.1192 16.3522 31.311C16.3522 32.213 17.0842 32.9451 17.9863 32.9451C18.8884 32.9451 19.6205 32.213 19.6205 31.311C19.6205 31.1192 19.6205 23.14 19.6205 23.14Z" fill="white"/>
<path d="M32.6938 18.9825V25.1194C33.9609 24.6695 34.8727 23.4722 34.8727 22.0515C34.8727 20.6309 33.9609 19.4324 32.6938 18.9825Z" fill="white"/>
</g>
<defs>
<clipPath id="clip0_102_163">
<rect width="44" height="44" fill="white" transform="translate(0.629883 0.0500488)"/>
</clipPath>
</defs>
</svg>
