<svg width="76" height="77" viewBox="0 0 76 77" fill="none" xmlns="http://www.w3.org/2000/svg">
<g clip-path="url(#clip0_132_281)">
<path d="M59.1111 0.271484H16.8889C7.56142 0.271484 0 7.8329 0 17.1604V59.3826C0 68.7101 7.56142 76.2715 16.8889 76.2715H59.1111C68.4386 76.2715 76 68.7101 76 59.3826V17.1604C76 7.8329 68.4386 0.271484 59.1111 0.271484Z" fill="#FF4F00"/>
<path opacity="0.55" d="M52.0388 54.3163H23.961C20.6378 54.3163 17.9443 51.6229 17.9443 48.2997V28.2441C17.9443 24.9209 20.6378 22.2275 23.961 22.2275H52.0388C55.362 22.2275 58.0555 24.9209 58.0555 28.2441V48.2997C58.0555 51.6229 55.362 54.3163 52.0388 54.3163Z" fill="white"/>
<path d="M33.8725 37.8006L17.9443 28.2441C17.9443 24.9209 20.6378 22.2275 23.961 22.2275H52.0388C55.362 22.2275 58.0555 24.9209 58.0555 28.2441L42.1273 37.8006C39.5863 39.3248 36.4135 39.3248 33.8725 37.8006Z" fill="white"/>
</g>
<defs>
<clipPath id="clip0_132_281">
<rect width="76" height="76" fill="white" transform="translate(0 0.271484)"/>
</clipPath>
</defs>
</svg>
