<svg width="17" height="16" viewBox="0 0 17 16" fill="none" xmlns="http://www.w3.org/2000/svg">
<path d="M8.05825 13.4676L8.05826 13.4676C8.53203 13.1877 9.1206 13.1877 9.59437 13.4676L9.59438 13.4676L12.8819 15.4097L12.8819 15.4097C13.2695 15.6387 13.742 15.29 13.6376 14.8522L14.124 14.7363L13.6376 14.8522L12.7806 11.2574L12.7806 11.2573C12.6487 10.704 12.839 10.1233 13.273 9.75539C13.273 9.75538 13.273 9.75537 13.273 9.75536L16.1092 7.35059L16.1092 7.35055C16.4557 7.05685 16.2744 6.49072 15.8215 6.45312L12.0475 6.13983C11.4925 6.09377 11.008 5.74597 10.7867 5.23507L10.7866 5.23498L9.29445 1.78911C9.29444 1.78911 9.29444 1.7891 9.29444 1.78909C9.11691 1.37922 8.53572 1.37922 8.35819 1.78909L8.05825 13.4676ZM8.05825 13.4676L4.77075 15.4097L4.77073 15.4097C4.38317 15.6387 3.91065 15.29 4.01503 14.8522L3.52866 14.7363L4.01503 14.8522L4.87204 11.2574L4.87205 11.2573C5.0039 10.7039 4.81361 10.1233 4.37958 9.75536L1.54343 7.3506C1.54343 7.3506 1.54343 7.35059 1.54342 7.35059C1.19692 7.05675 1.37843 6.4907 1.83113 6.45312L5.60513 6.13983C6.16003 6.09377 6.64471 5.74605 6.86599 5.23498C6.866 5.23498 6.866 5.23497 6.866 5.23496L8.35818 1.78911L8.05825 13.4676Z" fill="url(#paint0_linear_16_767)" stroke="#666666"/>
<defs>
<linearGradient id="paint0_linear_16_767" x1="0.499878" y1="6.99976" x2="16.4999" y2="6.99976" gradientUnits="userSpaceOnUse">
<stop stop-color="#FEAA00"/>
<stop offset="0.750905" stop-color="#FEAA00"/>
<stop offset="0.752916" stop-color="#FEAA00" stop-opacity="0"/>
<stop offset="1" stop-color="#FEAA00" stop-opacity="0"/>
</linearGradient>
</defs>
</svg>
