<svg width="17" height="16" viewBox="0 0 17 16" fill="none" xmlns="http://www.w3.org/2000/svg">
<path d="M12.2291 15.4097L12.2291 15.4097L8.94158 13.4676L8.94155 13.4675C8.46775 13.1877 7.87921 13.1877 7.40541 13.4675L7.40538 13.4676L4.11789 15.4097L4.11787 15.4097C3.73035 15.6386 3.25782 15.2901 3.36221 14.8522L2.87584 14.7363L3.36221 14.8522L4.21917 11.2574C4.21917 11.2574 4.21917 11.2574 4.21917 11.2574C4.35111 10.704 4.1608 10.1233 3.72683 9.75539C3.72683 9.75538 3.72683 9.75538 3.72682 9.75538L0.890613 7.35059C0.544099 7.05678 0.725567 6.4907 1.17832 6.45312L4.95227 6.13983C4.95228 6.13983 4.95228 6.13983 4.95228 6.13983C5.50727 6.09377 5.99183 5.746 6.21313 5.23499L6.21313 5.23499L7.70535 1.7891C7.70535 1.7891 7.70535 1.7891 7.70535 1.7891C7.88286 1.37921 8.46411 1.37923 8.6416 1.7891L9.09764 1.59161L8.6416 1.7891L10.1338 5.23496C10.1338 5.23497 10.1338 5.23498 10.1339 5.23499C10.3551 5.74602 10.8397 6.09378 11.3947 6.13983L15.1686 6.45312L15.21 5.95483L15.1686 6.45312C15.6214 6.49071 15.8028 7.05681 15.4563 7.35058L15.4563 7.35059L12.6202 9.75536C12.6201 9.75537 12.6201 9.75538 12.6201 9.75539C12.1861 10.1233 11.9958 10.704 12.1278 11.2574C12.1278 11.2574 12.1278 11.2574 12.1278 11.2575L12.9847 14.8522L12.9847 14.8522C13.0891 15.2901 12.6166 15.6386 12.2291 15.4097Z" fill="#FEAA00" stroke="#666666"/>
</svg>
