<svg width="24" height="24" viewBox="0 0 24 24" fill="none" xmlns="http://www.w3.org/2000/svg">
<path d="M0.75 1.99125C0.75 1.30625 1.30625 0.75 1.99125 0.75H22.0088C22.6938 0.75 23.25 1.30625 23.25 1.99125V22.0088C23.2497 22.3378 23.1188 22.6534 22.8861 22.8861C22.6534 23.1188 22.3378 23.2497 22.0088 23.25H1.99125C1.66215 23.2497 1.34663 23.1188 1.11392 22.8861C0.88121 22.6534 0.75033 22.3378 0.75 22.0088V1.99125ZM3.25 3.25V20.75H20.75V3.25H3.25ZM10.2775 7.5188L16.3763 11.5837C16.4448 11.6294 16.5011 11.6913 16.54 11.7639C16.5789 11.8365 16.5992 11.9176 16.5992 12C16.5992 12.0824 16.5789 12.1635 16.54 12.2361C16.5011 12.3087 16.4448 12.3706 16.3763 12.4163L10.2763 16.4812C10.201 16.5311 10.1137 16.5597 10.0236 16.5639C9.9335 16.5682 9.8438 16.548 9.7643 16.5054C9.6847 16.4629 9.6181 16.3996 9.5716 16.3223C9.525 16.245 9.5003 16.1565 9.5 16.0662V7.9337C9.5002 7.8433 9.5249 7.7546 9.5714 7.6771C9.618 7.5996 9.6848 7.5362 9.7646 7.4936C9.8443 7.451 9.9342 7.4308 10.0245 7.4353C10.1148 7.4397 10.2023 7.4686 10.2775 7.5188Z" fill="#201515"/>
</svg>
