<svg width="103" height="31" viewBox="0 0 103 31" fill="none" xmlns="http://www.w3.org/2000/svg">
<mask id="mask0_132_371" style="mask-type:luminance" maskUnits="userSpaceOnUse" x="0" y="0" width="103" height="31">
<path d="M102.999 0.585449H0.328125V30.6183H102.999V0.585449Z" fill="white"/>
</mask>
<g mask="url(#mask0_132_371)">
<path d="M33.1267 9.68039C32.7555 8.30158 31.6684 7.21444 30.2895 6.84322C27.7706 6.15381 17.6946 6.15381 17.6946 6.15381C17.6946 6.15381 7.61866 6.15381 5.09968 6.8167C3.74738 7.18792 2.63372 8.30158 2.2625 9.68039C1.59961 12.1993 1.59961 17.4229 1.59961 17.4229C1.59961 17.4229 1.59961 22.673 2.2625 25.1655C2.63372 26.5443 3.72086 27.6314 5.09968 28.0027C7.64518 28.6921 17.6946 28.6922 17.6946 28.6922C17.6946 28.6922 27.7706 28.6922 30.2895 28.0292C31.6684 27.658 32.7555 26.5708 33.1267 25.192C33.7896 22.673 33.7896 17.4494 33.7896 17.4494C33.7896 17.4494 33.8161 12.1993 33.1267 9.68039Z" fill="#F00A0A"/>
<path d="M14.4863 12.5972V22.2489L22.8653 17.4231L14.4863 12.5972Z" fill="white"/>
<path d="M48.3477 26.6768C47.7113 26.2526 47.2605 25.5897 46.9954 24.6616C46.7302 23.7601 46.5977 22.5404 46.5977 21.0555V19.0138C46.5977 17.5024 46.7567 16.2827 47.0484 15.3546C47.3666 14.4266 47.8439 13.7637 48.4803 13.3395C49.1432 12.9152 49.9917 12.7031 51.0523 12.7031C52.0864 12.7031 52.9349 12.9152 53.5713 13.3395C54.2076 13.7637 54.6584 14.4531 54.9501 15.3546C55.2418 16.2562 55.4009 17.4759 55.4009 19.0138V21.0555C55.4009 22.5669 55.2683 23.7601 54.9766 24.6882C54.6849 25.5897 54.2342 26.2791 53.5978 26.7033C52.9614 27.1276 52.0864 27.3397 50.9993 27.3397C49.8856 27.3132 48.9841 27.1011 48.3477 26.6768ZM51.9273 24.4495C52.1129 23.9987 52.1925 23.2298 52.1925 22.1957V17.7941C52.1925 16.7865 52.1129 16.044 51.9273 15.5668C51.7417 15.0895 51.45 14.8774 50.9993 14.8774C50.575 14.8774 50.2568 15.116 50.0977 15.5668C49.9121 16.044 49.8326 16.7865 49.8326 17.7941V22.1957C49.8326 23.2298 49.9121 23.9987 50.0977 24.4495C50.2568 24.9003 50.575 25.1389 51.0258 25.1389C51.45 25.1389 51.7417 24.9268 51.9273 24.4495Z" fill="#F00A0A"/>
<path d="M97.2945 21.0818V21.7978C97.2945 22.6993 97.321 23.3887 97.374 23.8395C97.4271 24.2902 97.5331 24.6349 97.7188 24.8205C97.8779 25.0327 98.143 25.1387 98.5142 25.1387C98.9915 25.1387 99.3097 24.9531 99.4953 24.5819C99.6809 24.2107 99.7604 23.6008 99.7869 22.7258L102.518 22.8849C102.545 23.0175 102.545 23.1766 102.545 23.3887C102.545 24.688 102.2 25.669 101.484 26.3054C100.768 26.9418 99.7605 27.26 98.4613 27.26C96.8968 27.26 95.8096 26.7562 95.1732 25.7751C94.5368 24.794 94.2188 23.2826 94.2188 21.2144V18.7485C94.2188 16.6272 94.5368 15.0893 95.1997 14.1082C95.8626 13.1271 96.9763 12.6499 98.5407 12.6499C99.6278 12.6499 100.476 12.862 101.06 13.2597C101.643 13.6574 102.041 14.2938 102.28 15.1158C102.518 15.9643 102.624 17.131 102.624 18.6159V21.0288H97.2945V21.0818ZM97.6922 15.1423C97.5331 15.3545 97.4271 15.6726 97.374 16.1234C97.321 16.5742 97.2945 17.2636 97.2945 18.1916V19.1992H99.6279V18.1916C99.6279 17.2901 99.6013 16.6007 99.5483 16.1234C99.4953 15.6461 99.3627 15.3279 99.2036 15.1423C99.0445 14.9567 98.7794 14.8507 98.4613 14.8507C98.09 14.8241 97.8513 14.9302 97.6922 15.1423Z" fill="#F00A0A"/>
<path d="M40.6042 20.8168L36.998 7.74463H40.1534L41.4262 13.6576C41.7443 15.1159 41.983 16.3622 42.1421 17.3963H42.2216C42.3277 16.6538 42.5663 15.4341 42.9376 13.6841L44.2633 7.74463H47.4187L43.7595 20.8168V27.0745H40.6307V20.8168H40.6042Z" fill="#F00A0A"/>
<path d="M65.6625 12.9683V27.1012H63.17L62.9049 25.3776H62.8253C62.1624 26.6769 61.1283 27.3398 59.776 27.3398C58.848 27.3398 58.1586 27.0216 57.7078 26.4118C57.257 25.8019 57.0449 24.8473 57.0449 23.5215V12.9683H60.2268V23.3359C60.2268 23.9723 60.3063 24.4231 60.4389 24.6882C60.5715 24.9534 60.8101 25.086 61.1283 25.086C61.3935 25.086 61.6586 25.0064 61.9238 24.8208C62.189 24.6617 62.3746 24.4496 62.4806 24.1844V12.9683H65.6625Z" fill="#F00A0A"/>
<path d="M81.9692 12.9683V27.1012H79.4767L79.2115 25.3776H79.132C78.4691 26.6769 77.435 27.3398 76.0827 27.3398C75.1546 27.3398 74.4652 27.0216 74.0145 26.4118C73.5637 25.8019 73.3516 24.8473 73.3516 23.5215V12.9683H76.5334V23.3359C76.5334 23.9723 76.613 24.4231 76.7456 24.6882C76.8781 24.9534 77.1168 25.086 77.435 25.086C77.7001 25.086 77.9653 25.0064 78.2304 24.8208C78.4956 24.6617 78.6812 24.4496 78.7873 24.1844V12.9683H81.9692Z" fill="#F00A0A"/>
<path d="M74.3056 10.3166H71.1503V27.0745H68.0479V10.3166H64.8926V7.74463H74.3056V10.3166Z" fill="#F00A0A"/>
<path d="M92.4965 15.2221C92.3109 14.3206 91.9927 13.6842 91.5684 13.2865C91.1442 12.8887 90.5343 12.6766 89.7919 12.6766C89.2086 12.6766 88.6517 12.8357 88.1479 13.1804C87.6441 13.4986 87.2464 13.9493 86.9812 14.4797H86.9547V7.02881H83.8789V27.0746H86.504L86.8221 25.7488H86.9017C87.1403 26.2262 87.5116 26.5973 88.0153 26.889C88.5191 27.1542 89.0495 27.3132 89.6593 27.3132C90.7465 27.3132 91.5154 26.8095 92.0192 25.8284C92.523 24.8473 92.7882 23.2829 92.7882 21.1881V18.9608C92.7617 17.3433 92.6821 16.0971 92.4965 15.2221ZM89.5798 20.976C89.5798 22.0101 89.5267 22.8056 89.4472 23.3889C89.3676 23.9723 89.2086 24.3965 89.0229 24.6353C88.8108 24.8738 88.5457 25.0064 88.2275 25.0064C87.9623 25.0064 87.7237 24.9533 87.5116 24.8208C87.2994 24.6882 87.1138 24.5026 86.9812 24.2639V16.2562C87.0873 15.885 87.2729 15.5668 87.5381 15.3016C87.8032 15.063 88.0949 14.9304 88.3866 14.9304C88.7048 14.9304 88.9699 15.063 89.129 15.3016C89.3146 15.5668 89.4207 15.9911 89.5002 16.5744C89.5798 17.1843 89.6063 18.0328 89.6063 19.1199V20.976H89.5798Z" fill="#F00A0A"/>
</g>
</svg>
